  0
SECTION
  2
HEADER
  9
$ACADVER
  1
AC1014
  9
$ACADMAINTVER
 70
     0
  9
$DWGCODEPAGE
  3
ANSI_1252
  9
$INSBASE
 10
0.0
 20
0.0
 30
0.0
  9
$EXTMIN
 10
-4.087986
 20
-42.156014
 30
0.0
  9
$EXTMAX
 10
232.632726
 20
62.466961
 30
0.0
  9
$LIMMIN
 10
0.0
 20
0.0
  9
$LIMMAX
 10
12.0
 20
9.0
  9
$ORTHOMODE
 70
     1
  9
$REGENMODE
 70
     1
  9
$FILLMODE
 70
     1
  9
$QTEXTMODE
 70
     0
  9
$MIRRTEXT
 70
     1
  9
$DRAGMODE
 70
     2
  9
$LTSCALE
 40
2.0
  9
$OSMODE
 70
    72
  9
$ATTMODE
 70
     1
  9
$TEXTSIZE
 40
2.0
  9
$TRACEWID
 40
0.05
  9
$TEXTSTYLE
  7
STANDARD
  9
$CLAYER
  8
STRUCTURE
  9
$CELTYPE
  6
BYLAYER
  9
$CECOLOR
 62
   256
  9
$CELTSCALE
 40
1.0
  9
$DELOBJ
 70
     1
  9
$DISPSILH
 70
     0
  9
$DIMSCALE
 40
10.0
  9
$DIMASZ
 40
0.1875
  9
$DIMEXO
 40
0.0625
  9
$DIMDLI
 40
0.375
  9
$DIMRND
 40
0.0
  9
$DIMDLE
 40
0.0
  9
$DIMEXE
 40
0.1875
  9
$DIMTP
 40
0.0
  9
$DIMTM
 40
0.0
  9
$DIMTXT
 40
0.18
  9
$DIMCEN
 40
0.09375
  9
$DIMTSZ
 40
0.0
  9
$DIMTOL
 70
     0
  9
$DIMLIM
 70
     0
  9
$DIMTIH
 70
     1
  9
$DIMTOH
 70
     1
  9
$DIMSE1
 70
     0
  9
$DIMSE2
 70
     0
  9
$DIMTAD
 70
     0
  9
$DIMZIN
 70
     0
  9
$DIMBLK
  1

  9
$DIMASO
 70
     1
  9
$DIMSHO
 70
     1
  9
$DIMPOST
  1

  9
$DIMAPOST
  1

  9
$DIMALT
 70
     0
  9
$DIMALTD
 70
     2
  9
$DIMALTF
 40
25.4
  9
$DIMLFAC
 40
1.0
  9
$DIMTOFL
 70
     0
  9
$DIMTVP
 40
0.0
  9
$DIMTIX
 70
     0
  9
$DIMSOXD
 70
     0
  9
$DIMSAH
 70
     0
  9
$DIMBLK1
  1

  9
$DIMBLK2
  1

  9
$DIMSTYLE
  2
STANDARD
  9
$DIMCLRD
 70
     0
  9
$DIMCLRE
 70
     0
  9
$DIMCLRT
 70
     0
  9
$DIMTFAC
 40
1.0
  9
$DIMGAP
 40
0.09375
  9
$DIMJUST
 70
     0
  9
$DIMSD1
 70
     0
  9
$DIMSD2
 70
     0
  9
$DIMTOLJ
 70
     1
  9
$DIMTZIN
 70
     0
  9
$DIMALTZ
 70
     0
  9
$DIMALTTZ
 70
     0
  9
$DIMFIT
 70
     3
  9
$DIMUPT
 70
     0
  9
$DIMUNIT
 70
     2
  9
$DIMDEC
 70
     2
  9
$DIMTDEC
 70
     4
  9
$DIMALTU
 70
     2
  9
$DIMALTTD
 70
     2
  9
$DIMTXSTY
  7
STANDARD
  9
$DIMAUNIT
 70
     0
  9
$LUNITS
 70
     2
  9
$LUPREC
 70
     2
  9
$SKETCHINC
 40
0.1
  9
$FILLETRAD
 40
10.0
  9
$AUNITS
 70
     0
  9
$AUPREC
 70
     0
  9
$MENU
  1
.
  9
$ELEVATION
 40
0.0
  9
$PELEVATION
 40
0.0
  9
$THICKNESS
 40
0.0
  9
$LIMCHECK
 70
     0
  9
$BLIPMODE
 70
     0
  9
$CHAMFERA
 40
1.0
  9
$CHAMFERB
 40
1.0
  9
$CHAMFERC
 40
1.0
  9
$CHAMFERD
 40
0.0
  9
$SKPOLY
 70
     1
  9
$TDCREATE
 40
2452103.801942013
  9
$TDUPDATE
 40
2460997.979087859
  9
$TDINDWG
 40
8.2433038773
  9
$TDUSRTIMER
 40
8.2433038773
  9
$USRTIMER
 70
     1
  9
$ANGBASE
 50
0.0
  9
$ANGDIR
 70
     0
  9
$PDMODE
 70
    35
  9
$PDSIZE
 40
0.0
  9
$PLINEWID
 40
0.0
  9
$COORDS
 70
     2
  9
$SPLFRAME
 70
     0
  9
$SPLINETYPE
 70
     6
  9
$SPLINESEGS
 70
     8
  9
$ATTDIA
 70
     0
  9
$ATTREQ
 70
     1
  9
$HANDLING
 70
     1
  9
$HANDSEED
  5
181
  9
$SURFTAB1
 70
     6
  9
$SURFTAB2
 70
     6
  9
$SURFTYPE
 70
     6
  9
$SURFU
 70
     6
  9
$SURFV
 70
     6
  9
$UCSNAME
  2

  9
$UCSORG
 10
0.0
 20
0.0
 30
0.0
  9
$UCSXDIR
 10
1.0
 20
0.0
 30
0.0
  9
$UCSYDIR
 10
0.0
 20
1.0
 30
0.0
  9
$PUCSNAME
  2

  9
$PUCSORG
 10
0.0
 20
0.0
 30
0.0
  9
$PUCSXDIR
 10
1.0
 20
0.0
 30
0.0
  9
$PUCSYDIR
 10
0.0
 20
1.0
 30
0.0
  9
$USERI1
 70
     0
  9
$USERI2
 70
     0
  9
$USERI3
 70
     0
  9
$USERI4
 70
     0
  9
$USERI5
 70
     0
  9
$USERR1
 40
0.0
  9
$USERR2
 40
0.0
  9
$USERR3
 40
0.0
  9
$USERR4
 40
0.0
  9
$USERR5
 40
0.0
  9
$WORLDVIEW
 70
     1
  9
$SHADEDGE
 70
     3
  9
$SHADEDIF
 70
    70
  9
$TILEMODE
 70
     1
  9
$MAXACTVP
 70
    48
  9
$PINSBASE
 10
0.0
 20
0.0
 30
0.0
  9
$PLIMCHECK
 70
     0
  9
$PEXTMIN
 10
1.000000E+20
 20
1.000000E+20
 30
1.000000E+20
  9
$PEXTMAX
 10
-1.000000E+20
 20
-1.000000E+20
 30
-1.000000E+20
  9
$PLIMMIN
 10
0.0
 20
0.0
  9
$PLIMMAX
 10
12.0
 20
9.0
  9
$UNITMODE
 70
     0
  9
$VISRETAIN
 70
     0
  9
$PLINEGEN
 70
     0
  9
$PSLTSCALE
 70
     1
  9
$TREEDEPTH
 70
  3020
  9
$PICKSTYLE
 70
     0
  9
$CMLSTYLE
  2
STANDARD
  9
$CMLJUST
 70
     0
  9
$CMLSCALE
 40
1.0
  9
$PROXYGRAPHICS
 70
     1
  9
$MEASUREMENT
 70
     0
  0
ENDSEC
  0
SECTION
  2
CLASSES
  0
CLASS
  1
DICTIONARYVAR
  2
AcDbDictionaryVar
  3
"AutoCAD"
 90
        0
280
     0
281
     0
  0
CLASS
  1
HATCH
  2
AcDbHatch
  3
"ACAD_SEDONA"
 90
        0
280
     0
281
     1
  0
CLASS
  1
LWPOLYLINE
  2
AcDbPolyline
  3
"AutoCAD"
 90
        0
280
     0
281
     1
  0
CLASS
  1
RASTERVARIABLES
  2
AcDbRasterVariables
  3
ISM
 90
        0
280
     0
281
     0
  0
ENDSEC
  0
SECTION
  2
TABLES
  0
TABLE
  2
VPORT
  5
13
100
AcDbSymbolTable
 70
     1
  0
VPORT
  5
14
100
AcDbSymbolTableRecord
100
AcDbViewportTableRecord
  2
*ACTIVE
 70
     0
 10
0.0
 20
0.0
 11
1.0
 21
1.0
 12
114.284878
 22
10.153048
 13
0.0
 23
0.0
 14
0.5
 24
0.5
 15
0.5
 25
0.5
 16
0.0
 26
0.0
 36
1.0
 17
0.0
 27
0.0
 37
0.0
 40
105.968882
 41
2.33682
 42
50.0
 43
0.0
 44
0.0
 50
0.0
 51
0.0
 71
     0
 72
   100
 73
     1
 74
     0
 75
     0
 76
     0
 77
     0
 78
     1
  0
ENDTAB
  0
TABLE
  2
LTYPE
  5
E
100
AcDbSymbolTable
 70
     2
  0
LTYPE
  5
F
100
AcDbSymbolTableRecord
100
AcDbLinetypeTableRecord
  2
BYBLOCK
 70
     0
  3

 72
    65
 73
     0
 40
0.0
  0
LTYPE
  5
10
100
AcDbSymbolTableRecord
100
AcDbLinetypeTableRecord
  2
BYLAYER
 70
     0
  3

 72
    65
 73
     0
 40
0.0
  0
LTYPE
  5
5
100
AcDbSymbolTableRecord
100
AcDbLinetypeTableRecord
  2
CONTINUOUS
 70
     0
  3
Solid line
 72
    65
 73
     0
 40
0.0
  0
LTYPE
  5
148
100
AcDbSymbolTableRecord
100
AcDbLinetypeTableRecord
  2
CENTER
 70
     0
  3
Center ____ _ ____ _ ____ _ ____ _ ____ _ ____
 72
    65
 73
     4
 40
2.0
 49
1.25
 74
     0
 49
-0.25
 74
     0
 49
0.25
 74
     0
 49
-0.25
 74
     0
  0
ENDTAB
  0
TABLE
  2
LAYER
  5
A
100
AcDbSymbolTable
 70
    22
  0
LAYER
  5
4
100
AcDbSymbolTableRecord
100
AcDbLayerTableRecord
  2
0
 70
     0
 62
     2
  6
CONTINUOUS
  0
LAYER
  5
1B
100
AcDbSymbolTableRecord
100
AcDbLayerTableRecord
  2
STRUCTURE
 70
     0
 62
   250
  6
CONTINUOUS
  0
LAYER
  5
25
100
AcDbSymbolTableRecord
100
AcDbLayerTableRecord
  2
DIM
 70
     0
 62
     5
  6
CONTINUOUS
  0
LAYER
  5
147
100
AcDbSymbolTableRecord
100
AcDbLayerTableRecord
  2
CENTERLINE
 70
     0
 62
     5
  6
CENTER
  0
LAYER
  5
1F
100
AcDbSymbolTableRecord
100
AcDbLayerTableRecord
  2
SHELTER
 70
     0
 62
    52
  6
CONTINUOUS
  0
LAYER
  5
44
100
AcDbSymbolTableRecord
100
AcDbLayerTableRecord
  2
RADIATORS
 70
     0
 62
     1
  6
CONTINUOUS
  0
LAYER
  5
143
100
AcDbSymbolTableRecord
100
AcDbLayerTableRecord
  2
REACTOR
 70
     0
 62
     6
  6
CONTINUOUS
  0
LAYER
  5
4A
100
AcDbSymbolTableRecord
100
AcDbLayerTableRecord
  2
NOZZLE
 70
     0
 62
     1
  6
CONTINUOUS
  0
LAYER
  5
6C
100
AcDbSymbolTableRecord
100
AcDbLayerTableRecord
  2
SHIELDING
 70
     0
 62
   132
  6
CONTINUOUS
  0
LAYER
  5
F1
100
AcDbSymbolTableRecord
100
AcDbLayerTableRecord
  2
HATCH
 70
     0
 62
     6
  6
CONTINUOUS
  0
LAYER
  5
D8
100
AcDbSymbolTableRecord
100
AcDbLayerTableRecord
  2
TANKS
 70
     0
 62
     5
  6
CONTINUOUS
  0
LAYER
  5
121
100
AcDbSymbolTableRecord
100
AcDbLayerTableRecord
  2
RING
 70
     0
 62
    94
  6
CONTINUOUS
  0
LAYER
  5
14E
100
AcDbSymbolTableRecord
100
AcDbLayerTableRecord
  2
PROFILE
 70
     0
 62
     7
  6
CONTINUOUS
  0
LAYER
  5
123
100
AcDbSymbolTableRecord
100
AcDbLayerTableRecord
  2
UTILITIES
 70
     0
 62
     7
  6
CONTINUOUS
  0
LAYER
  5
133
100
AcDbSymbolTableRecord
100
AcDbLayerTableRecord
  2
WHIPPLE
 70
     0
 62
    60
  6
CONTINUOUS
  0
LAYER
  5
42
100
AcDbSymbolTableRecord
100
AcDbLayerTableRecord
  2
TEXT
 70
     0
 62
     5
  6
CONTINUOUS
  0
LAYER
  5
EF
100
AcDbSymbolTableRecord
100
AcDbLayerTableRecord
  2
GEN
 70
     0
 62
    30
  6
CONTINUOUS
  0
LAYER
  5
ED
100
AcDbSymbolTableRecord
100
AcDbLayerTableRecord
  2
BAT
 70
     0
 62
     6
  6
CONTINUOUS
  0
LAYER
  5
47
100
AcDbSymbolTableRecord
100
AcDbLayerTableRecord
  2
STA
 70
     0
 62
     5
  6
CONTINUOUS
  0
LAYER
  5
116
100
AcDbSymbolTableRecord
100
AcDbLayerTableRecord
  2
RCS
 70
     0
 62
     5
  6
CONTINUOUS
  0
LAYER
  5
A0
100
AcDbSymbolTableRecord
100
AcDbLayerTableRecord
  2
VIEW
 70
     0
 62
     7
  6
CONTINUOUS
  0
LAYER
  5
145
100
AcDbSymbolTableRecord
100
AcDbLayerTableRecord
  2
CALLOUTS2
 70
     0
 62
     5
  6
CONTINUOUS
  0
ENDTAB
  0
TABLE
  2
STYLE
  5
B
100
AcDbSymbolTable
 70
     1
  0
STYLE
  5
C
100
AcDbSymbolTableRecord
100
AcDbTextStyleTableRecord
  2
STANDARD
 70
     0
 40
0.0
 41
1.0
 50
0.0
 71
     0
 42
2.0
  3
arial.ttf
  4

1001
ACAD
1000
Arial
1071
       34
  0
ENDTAB
  0
TABLE
  2
VIEW
  5
11
100
AcDbSymbolTable
 70
     0
  0
ENDTAB
  0
TABLE
  2
UCS
  5
12
100
AcDbSymbolTable
 70
     0
  0
ENDTAB
  0
TABLE
  2
APPID
  5
15
100
AcDbSymbolTable
 70
     1
  0
APPID
  5
D
100
AcDbSymbolTableRecord
100
AcDbRegAppTableRecord
  2
ACAD
 70
     0
  0
ENDTAB
  0
TABLE
  2
DIMSTYLE
  5
16
100
AcDbSymbolTable
 70
     1
  0
DIMSTYLE
105
1D
100
AcDbSymbolTableRecord
100
AcDbDimStyleTableRecord
  2
STANDARD
 70
     0
  3

  4

  5

  6

  7

 40
10.0
 41
0.1875
 42
0.0625
 43
0.375
 44
0.1875
 45
0.0
 46
0.0
 47
0.0
 48
0.0
140
0.18
141
0.09375
142
0.0
143
25.4
144
1.0
145
0.0
146
1.0
147
0.09375
 71
     0
 72
     0
 73
     1
 74
     1
 75
     0
 76
     0
 77
     0
 78
     0
170
     0
171
     2
172
     0
173
     0
174
     0
175
     0
176
     0
177
     0
178
     0
270
     2
271
     2
272
     4
273
     2
274
     2
340
C
275
     0
280
     0
281
     0
282
     0
283
     1
284
     0
285
     0
286
     0
287
     3
288
     0
  0
ENDTAB
  0
TABLE
  2
BLOCK_RECORD
  5
1
100
AcDbSymbolTable
 70
     2
  0
BLOCK_RECORD
  5
2
100
AcDbSymbolTableRecord
100
AcDbBlockTableRecord
  2
*MODEL_SPACE
  0
BLOCK_RECORD
  5
7
100
AcDbSymbolTableRecord
100
AcDbBlockTableRecord
  2
*PAPER_SPACE
  0
BLOCK_RECORD
  5
26
100
AcDbSymbolTableRecord
100
AcDbBlockTableRecord
  2
CG
  0
BLOCK_RECORD
  5
20
100
AcDbSymbolTableRecord
100
AcDbBlockTableRecord
  2
SHELTER
  0
ENDTAB
  0
ENDSEC
  0
SECTION
  2
BLOCKS
  0
BLOCK
  5
3
100
AcDbEntity
  8
0
100
AcDbBlockBegin
  2
*MODEL_SPACE
 70
     0
 10
0.0
 20
0.0
 30
0.0
  3
*MODEL_SPACE
  1

  0
ENDBLK
  5
6
100
AcDbEntity
  8
0
100
AcDbBlockEnd
  0
BLOCK
  5
8
100
AcDbEntity
 67
     1
  8
0
100
AcDbBlockBegin
  2
*PAPER_SPACE
 70
     0
 10
0.0
 20
0.0
 30
0.0
  3
*PAPER_SPACE
  1

  0
ENDBLK
  5
9
100
AcDbEntity
 67
     1
  8
0
100
AcDbBlockEnd
  0
BLOCK
  5
2A
100
AcDbEntity
  8
0
100
AcDbBlockBegin
  2
CG
 70
     0
 10
0.0
 20
0.0
 30
0.0
  3
CG
  1

  0
LINE
  5
27
100
AcDbEntity
  8
DIM
100
AcDbLine
 10
0.676991
 20
0.676991
 30
0.0
 11
-0.676991
 21
-0.676991
 31
0.0
  0
LINE
  5
28
100
AcDbEntity
  8
DIM
100
AcDbLine
 10
-0.676991
 20
0.676991
 30
0.0
 11
0.676991
 21
-0.676991
 31
0.0
  0
CIRCLE
  5
29
100
AcDbEntity
  8
DIM
100
AcDbCircle
 10
0.0
 20
0.0
 30
0.0
 40
0.5
  0
ENDBLK
  5
2B
100
AcDbEntity
  8
0
100
AcDbBlockEnd
  0
BLOCK
  5
22
100
AcDbEntity
  8
0
100
AcDbBlockBegin
  2
SHELTER
 70
     0
 10
0.0
 20
0.0
 30
0.0
  3
SHELTER
  1

  0
LWPOLYLINE
  5
21
100
AcDbEntity
  8
0
100
AcDbPolyline
 90
        8
 70
     1
 43
0.0
 10
4.650573
 20
-3.092811
 42
0.108871
 10
4.650573
 20
3.091775
 42
0.352025
 10
1.965
 20
5.25
 10
-1.965
 20
5.25
 42
0.352025
 10
-4.650573
 20
3.091775
 42
0.108871
 10
-4.650573
 20
-3.092811
 42
0.352025
 10
-1.965
 20
-5.251036
 10
1.965
 20
-5.251036
 42
0.352025
  0
ENDBLK
  5
23
100
AcDbEntity
  8
0
100
AcDbBlockEnd
  0
ENDSEC
  0
SECTION
  2
ENTITIES
  0
INSERT
  5
1E
100
AcDbEntity
  8
SHELTER
100
AcDbBlockReference
  2
SHELTER
 10
24.514508
 20
0.0
 30
0.0
  0
INSERT
  5
24
100
AcDbEntity
  8
DIM
100
AcDbBlockReference
  2
CG
 10
119.470787
 20
-21.635337
 30
0.0
  0
INSERT
  5
2C
100
AcDbEntity
  8
DIM
100
AcDbBlockReference
  2
CG
 10
119.470787
 20
21.635337
 30
0.0
  0
INSERT
  5
2D
100
AcDbEntity
  8
DIM
100
AcDbBlockReference
  2
CG
 10
125.0
 20
0.0
 30
0.0
  0
INSERT
  5
2E
100
AcDbEntity
  8
DIM
100
AcDbBlockReference
  2
CG
 10
102.583894
 20
0.0
 30
0.0
  0
INSERT
  5
2F
100
AcDbEntity
  8
DIM
100
AcDbBlockReference
  2
CG
 10
97.9
 20
0.0
 30
0.0
  0
INSERT
  5
30
100
AcDbEntity
  8
DIM
100
AcDbBlockReference
  2
CG
 10
90.7
 20
0.0
 30
0.0
  0
INSERT
  5
31
100
AcDbEntity
  8
DIM
100
AcDbBlockReference
  2
CG
 10
80.051556
 20
0.0
 30
0.0
  0
INSERT
  5
32
100
AcDbEntity
  8
DIM
100
AcDbBlockReference
  2
CG
 10
78.3
 20
0.0
 30
0.0
  0
INSERT
  5
33
100
AcDbEntity
  8
DIM
100
AcDbBlockReference
  2
CG
 10
76.8
 20
0.0
 30
0.0
  0
INSERT
  5
34
100
AcDbEntity
  8
DIM
100
AcDbBlockReference
  2
CG
 10
61.996762
 20
0.0
 30
0.0
  0
INSERT
  5
35
100
AcDbEntity
  8
DIM
100
AcDbBlockReference
  2
CG
 10
65.0
 20
0.0
 30
0.0
  0
INSERT
  5
36
100
AcDbEntity
  8
DIM
100
AcDbBlockReference
  2
CG
 10
65.802098
 20
0.0
 30
0.0
  0
INSERT
  5
37
100
AcDbEntity
  8
DIM
100
AcDbBlockReference
  2
CG
 10
55.55264
 20
0.0
 30
0.0
  0
INSERT
  5
38
100
AcDbEntity
  8
DIM
100
AcDbBlockReference
  2
CG
 10
31.05
 20
1.626346
 30
0.0
 41
-1.0
 50
180.0
  0
INSERT
  5
39
100
AcDbEntity
  8
DIM
100
AcDbBlockReference
  2
CG
 10
31.5
 20
-1.767767
 30
0.0
 41
-1.0
 50
180.0
  0
INSERT
  5
3A
100
AcDbEntity
  8
DIM
100
AcDbBlockReference
  2
CG
 10
30.5
 20
0.0
 30
0.0
  0
INSERT
  5
3B
100
AcDbEntity
  8
DIM
100
AcDbBlockReference
  2
CG
 10
24.514508
 20
0.0
 30
0.0
  0
INSERT
  5
3C
100
AcDbEntity
  8
DIM
100
AcDbBlockReference
  2
CG
 10
17.33
 20
0.0
 30
0.0
  0
INSERT
  5
3D
100
AcDbEntity
  8
DIM
100
AcDbBlockReference
  2
CG
 10
15.5
 20
0.0
 30
0.0
  0
INSERT
  5
3E
100
AcDbEntity
  8
DIM
100
AcDbBlockReference
  2
CG
 10
3.82
 20
0.0
 30
0.0
  0
INSERT
  5
3F
100
AcDbEntity
  8
DIM
100
AcDbBlockReference
  2
CG
 10
0.0
 20
0.0
 30
0.0
  0
INSERT
  5
40
100
AcDbEntity
  8
DIM
100
AcDbBlockReference
  2
CG
 10
45.37847
 20
0.0
 30
0.0
  0
MTEXT
  5
41
100
AcDbEntity
  8
TEXT
100
AcDbMText
 10
150.470379
 20
-3.694059
 30
0.0
 40
2.0
 41
91.6
 71
     1
 72
     5
  3
SATURN EXPLORER CG REV. 1.2.dwg\PRB 11/17/25\P\PREFERENCE DOCUMENTS:\PSATURN EXPLORER TECH DESIGN SUMMARY REV. 1.2\PSATURN EXPLORER CG ANALYSIS REV. 1.2\PSATURN EXPLORER ENCELADUS DELTA-V BUDGET REV. 1.2\PLANDER REV. 13.1.dwg\PLANDER TECH DESIGN SUMM
  1
ARY REV. 13.1\PRB DESIGN, CLAUDE AI ASSISTANCE
  0
LINE
  5
43
100
AcDbEntity
  8
RADIATORS
100
AcDbLine
 10
130.598951
 20
0.0
 30
0.0
 11
140.832814
 21
0.0
 31
0.0
  0
LWPOLYLINE
  5
45
100
AcDbEntity
  8
RADIATORS
100
AcDbPolyline
 90
        5
 70
     1
 43
0.0
 10
110.12526
 20
-26.828701
 10
102.621804
 20
-7.892297
 10
118.993054
 20
-7.892297
 10
140.832814
 20
-33.144908
 10
119.422016
 20
-33.144908
 42
-0.307565
  0
LINE
  5
46
100
AcDbEntity
  8
STA
100
AcDbLine
 10
140.832814
 20
33.144908
 30
0.0
 11
140.832814
 21
40.618011
 31
0.0
  0
LWPOLYLINE
  5
48
100
AcDbEntity
  8
RADIATORS
100
AcDbPolyline
 90
        5
 70
     1
 43
0.0
 10
110.12526
 20
26.828701
 10
102.621804
 20
7.892297
 10
118.993054
 20
7.892297
 10
140.832814
 20
33.144908
 10
119.422016
 20
33.144908
 42
0.307565
  0
LINE
  5
49
100
AcDbEntity
  8
NOZZLE
100
AcDbLine
 10
116.102098
 20
-6.330127
 30
0.0
 11
121.901049
 21
-6.330127
 31
0.0
  0
LINE
  5
4B
100
AcDbEntity
  8
NOZZLE
100
AcDbLine
 10
116.102098
 20
6.330127
 30
0.0
 11
121.901049
 21
6.330127
 31
0.0
  0
TEXT
  5
4C
100
AcDbEntity
  8
STA
100
AcDbText
 10
141.912874
 20
41.705967
 30
0.0
 40
2.0
  1
TAIL 140.8
 50
90.0
100
AcDbText
  0
LINE
  5
4D
100
AcDbEntity
  8
STA
100
AcDbLine
 10
119.470787
 20
21.635337
 30
0.0
 11
119.470787
 21
36.332253
 31
0.0
  0
TEXT
  5
4E
100
AcDbEntity
  8
STA
100
AcDbText
 10
120.751824
 20
38.398749
 30
0.0
 40
2.0
  1
RADIATORS 119.5
 50
90.0
100
AcDbText
  0
TEXT
  5
4F
100
AcDbEntity
  8
STA
100
AcDbText
 10
126.063275
 20
38.614179
 30
0.0
 40
2.0
  1
NOZZLES 125.0
 50
90.0
100
AcDbText
  0
LINE
  5
50
100
AcDbEntity
  8
NOZZLE
100
AcDbLine
 10
130.598951
 20
2.330127
 30
0.0
 11
130.598951
 21
6.330127
 31
0.0
  0
LINE
  5
51
100
AcDbEntity
  8
NOZZLE
100
AcDbLine
 10
130.598951
 20
-2.0
 30
0.0
 11
130.598951
 21
2.0
 31
0.0
  0
LINE
  5
52
100
AcDbEntity
  8
NOZZLE
100
AcDbLine
 10
130.598951
 20
-2.330127
 30
0.0
 11
130.598951
 21
-6.330127
 31
0.0
  0
LINE
  5
53
100
AcDbEntity
  8
NOZZLE
100
AcDbLine
 10
128.098951
 20
2.330127
 30
0.0
 11
128.098951
 21
6.330127
 31
0.0
  0
LINE
  5
54
100
AcDbEntity
  8
NOZZLE
100
AcDbLine
 10
121.901049
 20
6.330127
 30
0.0
 11
121.901049
 21
2.330127
 31
0.0
  0
LINE
  5
55
100
AcDbEntity
  8
NOZZLE
100
AcDbLine
 10
121.901049
 20
2.330127
 30
0.0
 11
128.098951
 21
2.330127
 31
0.0
  0
LINE
  5
56
100
AcDbEntity
  8
NOZZLE
100
AcDbLine
 10
121.901049
 20
2.0
 30
0.0
 11
128.098951
 21
2.0
 31
0.0
  0
LINE
  5
57
100
AcDbEntity
  8
NOZZLE
100
AcDbLine
 10
121.901049
 20
6.330127
 30
0.0
 11
128.098951
 21
6.330127
 31
0.0
  0
LINE
  5
58
100
AcDbEntity
  8
NOZZLE
100
AcDbLine
 10
121.901049
 20
-2.330127
 30
0.0
 11
128.098951
 21
-2.330127
 31
0.0
  0
LINE
  5
59
100
AcDbEntity
  8
NOZZLE
100
AcDbLine
 10
121.901049
 20
-2.0
 30
0.0
 11
128.098951
 21
-2.0
 31
0.0
  0
LINE
  5
5A
100
AcDbEntity
  8
NOZZLE
100
AcDbLine
 10
128.098951
 20
-2.0
 30
0.0
 11
128.098951
 21
2.0
 31
0.0
  0
LINE
  5
5B
100
AcDbEntity
  8
NOZZLE
100
AcDbLine
 10
121.901049
 20
2.0
 30
0.0
 11
121.901049
 21
-2.0
 31
0.0
  0
LINE
  5
5C
100
AcDbEntity
  8
NOZZLE
100
AcDbLine
 10
116.102098
 20
6.330127
 30
0.0
 11
109.391023
 21
3.187553
 31
0.0
  0
LINE
  5
5D
100
AcDbEntity
  8
STRUCTURE
100
AcDbLine
 10
125.0
 20
-7.892297
 30
0.0
 11
125.0
 21
-6.330127
 31
0.0
  0
LINE
  5
5E
100
AcDbEntity
  8
NOZZLE
100
AcDbLine
 10
121.901049
 20
-6.330127
 30
0.0
 11
128.098951
 21
-6.330127
 31
0.0
  0
LINE
  5
5F
100
AcDbEntity
  8
NOZZLE
100
AcDbLine
 10
128.098951
 20
-2.330127
 30
0.0
 11
128.098951
 21
-6.330127
 31
0.0
  0
LINE
  5
60
100
AcDbEntity
  8
NOZZLE
100
AcDbLine
 10
116.102098
 20
-6.330127
 30
0.0
 11
109.391023
 21
-3.187553
 31
0.0
  0
LINE
  5
61
100
AcDbEntity
  8
NOZZLE
100
AcDbLine
 10
121.901049
 20
-6.330127
 30
0.0
 11
121.901049
 21
-2.330127
 31
0.0
  0
LINE
  5
62
100
AcDbEntity
  8
NOZZLE
100
AcDbLine
 10
130.598951
 20
6.330127
 30
0.0
 11
128.098951
 21
5.294593
 31
0.0
  0
LINE
  5
63
100
AcDbEntity
  8
NOZZLE
100
AcDbLine
 10
130.598951
 20
-6.330127
 30
0.0
 11
128.098951
 21
-5.294593
 31
0.0
  0
LINE
  5
64
100
AcDbEntity
  8
NOZZLE
100
AcDbLine
 10
130.598951
 20
-2.330127
 30
0.0
 11
128.098951
 21
-3.365661
 31
0.0
  0
LINE
  5
65
100
AcDbEntity
  8
NOZZLE
100
AcDbLine
 10
130.598951
 20
-2.0
 30
0.0
 11
128.098951
 21
-0.964466
 31
0.0
  0
LINE
  5
66
100
AcDbEntity
  8
NOZZLE
100
AcDbLine
 10
130.598951
 20
2.330127
 30
0.0
 11
128.098951
 21
3.365661
 31
0.0
  0
LINE
  5
67
100
AcDbEntity
  8
NOZZLE
100
AcDbLine
 10
130.598951
 20
2.0
 30
0.0
 11
128.098951
 21
0.964466
 31
0.0
  0
LINE
  5
68
100
AcDbEntity
  8
STA
100
AcDbLine
 10
125.0
 20
0.0
 30
0.0
 11
125.0
 21
36.910546
 31
0.0
  0
LINE
  5
69
100
AcDbEntity
  8
STRUCTURE
100
AcDbLine
 10
125.0
 20
7.892297
 30
0.0
 11
125.0
 21
6.330127
 31
0.0
  0
MTEXT
  5
6A
100
AcDbEntity
  8
TEXT
100
AcDbMText
 10
67.183048
 20
57.681725
 30
0.0
 40
2.0
 41
40.29
 71
     5
 72
     5
  1
SIDE VIEW
  0
LINE
  5
6B
100
AcDbEntity
  8
SHIELDING
100
AcDbLine
 10
86.355924
 20
18.9987
 30
0.0
 11
85.951556
 21
18.704614
 31
0.0
  0
LINE
  5
6D
100
AcDbEntity
  8
STA
100
AcDbLine
 10
83.828347
 20
18.69076
 30
0.0
 11
83.828347
 21
21.630778
 31
0.0
  0
LINE
  5
6E
100
AcDbEntity
  8
STA
100
AcDbLine
 10
76.8
 20
13.903031
 30
0.0
 11
73.02321
 21
18.69076
 31
0.0
  0
LINE
  5
6F
100
AcDbEntity
  8
STA
100
AcDbLine
 10
73.02321
 20
18.69076
 30
0.0
 11
73.02321
 21
21.697009
 31
0.0
  0
LINE
  5
70
100
AcDbEntity
  8
STA
100
AcDbLine
 10
80.051556
 20
13.903031
 30
0.0
 11
83.828347
 21
18.69076
 31
0.0
  0
TEXT
  5
71
100
AcDbEntity
  8
STA
100
AcDbText
 10
92.110822
 20
24.79297
 30
0.0
 40
2.0
  1
SHIELD 90.7
 50
90.0
100
AcDbText
  0
TEXT
  5
72
100
AcDbEntity
  8
STA
100
AcDbText
 10
84.969174
 20
24.61935
 30
0.0
 40
2.0
  1
TANKS 80.0
 50
90.0
100
AcDbText
  0
TEXT
  5
73
100
AcDbEntity
  8
STA
100
AcDbText
 10
66.925234
 20
24.79297
 30
0.0
 40
2.0
  1
RCS & LANDERS 65.8
 50
90.0
100
AcDbText
  0
TEXT
  5
74
100
AcDbEntity
  8
STA
100
AcDbText
 10
79.331441
 20
24.79297
 30
0.0
 40
2.0
  1
77.8 LOADED CG
 50
90.0
100
AcDbText
  0
TEXT
  5
75
100
AcDbEntity
  8
STA
100
AcDbText
 10
73.985582
 20
24.904313
 30
0.0
 40
2.0
  1
75.9 DRY CG
 50
90.0
100
AcDbText
  0
LINE
  5
76
100
AcDbEntity
  8
STA
100
AcDbLine
 10
30.5
 20
11.736151
 30
0.0
 11
34.439274
 21
17.064592
 31
0.0
  0
LINE
  5
77
100
AcDbEntity
  8
STA
100
AcDbLine
 10
34.439274
 20
17.064592
 30
0.0
 11
34.439274
 21
22.925877
 31
0.0
  0
TEXT
  5
78
100
AcDbEntity
  8
STA
100
AcDbText
 10
56.701659
 20
24.520104
 30
0.0
 40
2.0
  1
PALLETS 55.6
 50
90.0
100
AcDbText
  0
TEXT
  5
79
100
AcDbEntity
  8
STA
100
AcDbText
 10
25.854437
 20
25.17231
 30
0.0
 40
2.0
  1
SHELTER 24.5
 50
90.0
100
AcDbText
  0
TEXT
  5
7A
100
AcDbEntity
  8
STA
100
AcDbText
 10
35.69915
 20
25.135775
 30
0.0
 40
2.0
  1
AFT END OF SPHERE 30.5
 50
90.0
100
AcDbText
  0
TEXT
  5
7B
100
AcDbEntity
  8
STA
100
AcDbText
 10
16.910822
 20
24.79297
 30
0.0
 40
2.0
  1
SPHERE 15.5
 50
90.0
100
AcDbText
  0
TEXT
  5
7C
100
AcDbEntity
  8
STA
100
AcDbText
 10
4.794924
 20
24.986695
 30
0.0
 40
2.0
  1
WHIPPLE 3.8
 50
90.0
100
AcDbText
  0
TEXT
  5
7D
100
AcDbEntity
  8
STA
100
AcDbText
 10
1.110498
 20
24.649886
 30
0.0
 40
2.0
  1
NOSE OF WHIPPLE
 50
90.0
100
AcDbText
  0
LINE
  5
7E
100
AcDbEntity
  8
STRUCTURE
100
AcDbLine
 10
87.285962
 20
2.309401
 30
0.0
 11
86.285962
 21
2.309401
 31
0.0
  0
LINE
  5
7F
100
AcDbEntity
  8
STRUCTURE
100
AcDbLine
 10
87.285962
 20
1.982051
 30
0.0
 11
93.593524
 21
3.772108
 31
0.0
  0
LINE
  5
80
100
AcDbEntity
  8
STRUCTURE
100
AcDbLine
 10
87.285962
 20
-0.5
 30
0.0
 11
87.285962
 21
-1.982051
 31
0.0
  0
LINE
  5
81
100
AcDbEntity
  8
STRUCTURE
100
AcDbLine
 10
87.285962
 20
-1.154701
 30
0.0
 11
86.285962
 21
-1.154701
 31
0.0
  0
LINE
  5
82
100
AcDbEntity
  8
STRUCTURE
100
AcDbLine
 10
87.285962
 20
1.154701
 30
0.0
 11
86.285962
 21
1.154701
 31
0.0
  0
LINE
  5
83
100
AcDbEntity
  8
STRUCTURE
100
AcDbLine
 10
87.285962
 20
-2.309401
 30
0.0
 11
86.285962
 21
-2.309401
 31
0.0
  0
LINE
  5
84
100
AcDbEntity
  8
STRUCTURE
100
AcDbLine
 10
93.593524
 20
-2.378205
 30
0.0
 11
87.285962
 21
-0.551819
 31
0.0
  0
LINE
  5
85
100
AcDbEntity
  8
STRUCTURE
100
AcDbLine
 10
87.285962
 20
-1.982051
 30
0.0
 11
93.593524
 21
-3.772108
 31
0.0
  0
LINE
  5
86
100
AcDbEntity
  8
STRUCTURE
100
AcDbLine
 10
87.285962
 20
0.5
 30
0.0
 11
93.593524
 21
0.5
 31
0.0
  0
LINE
  5
87
100
AcDbEntity
  8
STRUCTURE
100
AcDbLine
 10
87.285962
 20
-0.5
 30
0.0
 11
93.593524
 21
-0.5
 31
0.0
  0
LINE
  5
88
100
AcDbEntity
  8
STRUCTURE
100
AcDbLine
 10
93.593524
 20
-3.308437
 30
0.0
 11
87.285962
 21
-1.482051
 31
0.0
  0
LINE
  5
89
100
AcDbEntity
  8
STRUCTURE
100
AcDbLine
 10
93.593524
 20
2.378205
 30
0.0
 11
87.285962
 21
0.551819
 31
0.0
  0
LINE
  5
8A
100
AcDbEntity
  8
STRUCTURE
100
AcDbLine
 10
93.593524
 20
3.308437
 30
0.0
 11
87.285962
 21
1.482051
 31
0.0
  0
LINE
  5
8B
100
AcDbEntity
  8
STRUCTURE
100
AcDbLine
 10
87.285962
 20
0.5
 30
0.0
 11
87.285962
 21
1.982051
 31
0.0
  0
LINE
  5
8C
100
AcDbEntity
  8
STRUCTURE
100
AcDbLine
 10
87.285962
 20
-2.309401
 30
0.0
 11
87.285962
 21
2.309401
 31
0.0
  0
LINE
  5
8D
100
AcDbEntity
  8
STRUCTURE
100
AcDbLine
 10
86.285962
 20
-2.309401
 30
0.0
 11
86.285962
 21
2.309401
 31
0.0
  0
LINE
  5
8E
100
AcDbEntity
  8
STRUCTURE
100
AcDbLine
 10
102.621804
 20
-7.892297
 30
0.0
 11
102.602098
 21
-7.5
 31
0.0
  0
LINE
  5
8F
100
AcDbEntity
  8
STRUCTURE
100
AcDbLine
 10
93.593524
 20
-4.904284
 30
0.0
 11
102.621804
 21
-7.892297
 31
0.0
  0
LINE
  5
90
100
AcDbEntity
  8
STRUCTURE
100
AcDbLine
 10
93.593524
 20
4.904284
 30
0.0
 11
93.593524
 21
-4.904284
 31
0.0
  0
LINE
  5
91
100
AcDbEntity
  8
STRUCTURE
100
AcDbLine
 10
67.899529
 20
2.006462
 30
0.0
 11
68.197713
 21
2.522669
 31
0.0
  0
LINE
  5
92
100
AcDbEntity
  8
STRUCTURE
100
AcDbLine
 10
68.197713
 20
2.522669
 30
0.0
 11
67.406483
 21
2.522669
 31
0.0
  0
LINE
  5
93
100
AcDbEntity
  8
STRUCTURE
100
AcDbLine
 10
67.704667
 20
2.006462
 30
0.0
 11
67.406483
 21
2.522669
 31
0.0
  0
LINE
  5
94
100
AcDbEntity
  8
STRUCTURE
100
AcDbLine
 10
63.503383
 20
2.006462
 30
0.0
 11
64.100814
 21
2.006462
 31
0.0
  0
LINE
  5
95
100
AcDbEntity
  8
STRUCTURE
100
AcDbLine
 10
63.406483
 20
2.522669
 30
0.0
 11
64.197713
 21
2.522669
 31
0.0
  0
LINE
  5
96
100
AcDbEntity
  8
STRUCTURE
100
AcDbLine
 10
63.899529
 20
2.006462
 30
0.0
 11
64.197713
 21
2.522669
 31
0.0
  0
LINE
  5
97
100
AcDbEntity
  8
STRUCTURE
100
AcDbLine
 10
68.100814
 20
2.006462
 30
0.0
 11
67.503383
 21
2.006462
 31
0.0
  0
LINE
  5
98
100
AcDbEntity
  8
STRUCTURE
100
AcDbLine
 10
63.704667
 20
2.006462
 30
0.0
 11
63.406483
 21
2.522669
 31
0.0
  0
LINE
  5
99
100
AcDbEntity
  8
STRUCTURE
100
AcDbLine
 10
69.801054
 20
0.0
 30
0.0
 11
69.909661
 21
0.0
 31
0.0
  0
LINE
  5
9A
100
AcDbEntity
  8
STRUCTURE
100
AcDbLine
 10
69.801054
 20
0.0
 30
0.0
 11
69.909661
 21
0.0
 31
0.0
  0
LINE
  5
9B
100
AcDbEntity
  8
STRUCTURE
100
AcDbLine
 10
69.801054
 20
0.0
 30
0.0
 11
69.909661
 21
0.0
 31
0.0
  0
LINE
  5
9C
100
AcDbEntity
  8
STRUCTURE
100
AcDbLine
 10
69.801054
 20
0.0
 30
0.0
 11
69.909661
 21
0.0
 31
0.0
  0
LINE
  5
9D
100
AcDbEntity
  8
STRUCTURE
100
AcDbLine
 10
63.503383
 20
-2.006462
 30
0.0
 11
64.100814
 21
-2.006462
 31
0.0
  0
LINE
  5
9E
100
AcDbEntity
  8
STRUCTURE
100
AcDbLine
 10
63.503383
 20
-1.808847
 30
0.0
 11
64.100814
 21
-1.808847
 31
0.0
  0
LINE
  5
9F
100
AcDbEntity
  8
VIEW
100
AcDbLine
 10
64.069003
 20
-1.732051
 30
0.0
 11
63.535193
 21
-1.732051
 31
0.0
  0
LINE
  5
A1
100
AcDbEntity
  8
STRUCTURE
100
AcDbLine
 10
68.100814
 20
-1.808847
 30
0.0
 11
63.503383
 21
-1.808847
 31
0.0
  0
LINE
  5
A2
100
AcDbEntity
  8
STRUCTURE
100
AcDbLine
 10
68.100814
 20
-1.808847
 30
0.0
 11
63.503383
 21
-1.808847
 31
0.0
  0
LINE
  5
A3
100
AcDbEntity
  8
STRUCTURE
100
AcDbLine
 10
64.100814
 20
-2.006462
 30
0.0
 11
64.100814
 21
-1.808847
 31
0.0
  0
LINE
  5
A4
100
AcDbEntity
  8
STRUCTURE
100
AcDbLine
 10
64.069003
 20
-1.732051
 30
0.0
 11
64.100814
 21
-1.808847
 31
0.0
  0
LINE
  5
A5
100
AcDbEntity
  8
STRUCTURE
100
AcDbLine
 10
67.503383
 20
-2.006462
 30
0.0
 11
67.503383
 21
-1.808847
 31
0.0
  0
LINE
  5
A6
100
AcDbEntity
  8
STRUCTURE
100
AcDbLine
 10
68.100814
 20
-2.006462
 30
0.0
 11
68.100814
 21
-1.808847
 31
0.0
  0
LINE
  5
A7
100
AcDbEntity
  8
STRUCTURE
100
AcDbLine
 10
68.100814
 20
-1.808847
 30
0.0
 11
67.503383
 21
-1.808847
 31
0.0
  0
LINE
  5
A8
100
AcDbEntity
  8
STRUCTURE
100
AcDbLine
 10
68.100814
 20
-2.006462
 30
0.0
 11
67.503383
 21
-2.006462
 31
0.0
  0
LINE
  5
A9
100
AcDbEntity
  8
STRUCTURE
100
AcDbLine
 10
68.100814
 20
-1.808847
 30
0.0
 11
68.069003
 21
-1.732051
 31
0.0
  0
LINE
  5
AA
100
AcDbEntity
  8
VIEW
100
AcDbLine
 10
68.069003
 20
-1.732051
 30
0.0
 11
67.535193
 21
-1.732051
 31
0.0
  0
LINE
  5
AB
100
AcDbEntity
  8
STRUCTURE
100
AcDbLine
 10
67.535193
 20
-1.732051
 30
0.0
 11
67.503383
 21
-1.808847
 31
0.0
  0
LINE
  5
AC
100
AcDbEntity
  8
VIEW
100
AcDbLine
 10
67.426586
 20
-1.732051
 30
0.0
 11
64.17761
 21
-1.732051
 31
0.0
  0
LINE
  5
AD
100
AcDbEntity
  8
STRUCTURE
100
AcDbLine
 10
67.503383
 20
-1.808847
 30
0.0
 11
66.560561
 21
-0.866025
 31
0.0
  0
LINE
  5
AE
100
AcDbEntity
  8
STRUCTURE
100
AcDbLine
 10
67.535193
 20
-1.732051
 30
0.0
 11
66.669168
 21
-0.866025
 31
0.0
  0
LINE
  5
AF
100
AcDbEntity
  8
STRUCTURE
100
AcDbLine
 10
64.100814
 20
-1.808847
 30
0.0
 11
65.043636
 21
-0.866025
 31
0.0
  0
LINE
  5
B0
100
AcDbEntity
  8
STRUCTURE
100
AcDbLine
 10
64.069003
 20
-1.732051
 30
0.0
 11
64.935029
 21
-0.866025
 31
0.0
  0
LINE
  5
B1
100
AcDbEntity
  8
STRUCTURE
100
AcDbLine
 10
63.503383
 20
-2.006462
 30
0.0
 11
63.503383
 21
-1.808847
 31
0.0
  0
LINE
  5
B2
100
AcDbEntity
  8
STRUCTURE
100
AcDbLine
 10
63.535193
 20
-1.732051
 30
0.0
 11
63.503383
 21
-1.808847
 31
0.0
  0
LINE
  5
B3
100
AcDbEntity
  8
STRUCTURE
100
AcDbLine
 10
64.069003
 20
1.732051
 30
0.0
 11
65.802098
 21
-0.001044
 31
0.0
  0
LINE
  5
B4
100
AcDbEntity
  8
STRUCTURE
100
AcDbLine
 10
64.100814
 20
1.808847
 30
0.0
 11
65.802098
 21
0.107563
 31
0.0
  0
LINE
  5
B5
100
AcDbEntity
  8
STRUCTURE
100
AcDbLine
 10
67.535193
 20
1.732051
 30
0.0
 11
65.802098
 21
-0.001044
 31
0.0
  0
LINE
  5
B6
100
AcDbEntity
  8
STRUCTURE
100
AcDbLine
 10
67.503383
 20
1.808847
 30
0.0
 11
65.802098
 21
0.107563
 31
0.0
  0
LINE
  5
B7
100
AcDbEntity
  8
STRUCTURE
100
AcDbLine
 10
65.802098
 20
0.107563
 30
0.0
 11
65.802098
 21
0.053259
 31
0.0
  0
LINE
  5
B8
100
AcDbEntity
  8
STRUCTURE
100
AcDbLine
 10
63.503383
 20
1.808847
 30
0.0
 11
64.100814
 21
1.808847
 31
0.0
  0
LINE
  5
B9
100
AcDbEntity
  8
VIEW
100
AcDbLine
 10
64.069003
 20
1.732051
 30
0.0
 11
63.535193
 21
1.732051
 31
0.0
  0
LINE
  5
BA
100
AcDbEntity
  8
STRUCTURE
100
AcDbLine
 10
68.100814
 20
1.808847
 30
0.0
 11
63.503383
 21
1.808847
 31
0.0
  0
LINE
  5
BB
100
AcDbEntity
  8
STRUCTURE
100
AcDbLine
 10
64.100814
 20
1.808847
 30
0.0
 11
64.069003
 21
1.732051
 31
0.0
  0
LINE
  5
BC
100
AcDbEntity
  8
STRUCTURE
100
AcDbLine
 10
64.069003
 20
1.732051
 30
0.0
 11
63.802098
 21
1.732051
 31
0.0
  0
LINE
  5
BD
100
AcDbEntity
  8
STRUCTURE
100
AcDbLine
 10
68.100814
 20
1.808847
 30
0.0
 11
67.503383
 21
1.808847
 31
0.0
  0
LINE
  5
BE
100
AcDbEntity
  8
STRUCTURE
100
AcDbLine
 10
68.069003
 20
1.732051
 30
0.0
 11
68.100814
 21
1.808847
 31
0.0
  0
LINE
  5
BF
100
AcDbEntity
  8
STRUCTURE
100
AcDbLine
 10
67.503383
 20
1.808847
 30
0.0
 11
67.535193
 21
1.732051
 31
0.0
  0
LINE
  5
C0
100
AcDbEntity
  8
VIEW
100
AcDbLine
 10
68.069003
 20
1.732051
 30
0.0
 11
67.535193
 21
1.732051
 31
0.0
  0
LINE
  5
C1
100
AcDbEntity
  8
STRUCTURE
100
AcDbLine
 10
67.802098
 20
1.732051
 30
0.0
 11
67.535193
 21
1.732051
 31
0.0
  0
LINE
  5
C2
100
AcDbEntity
  8
STRUCTURE
100
AcDbLine
 10
67.426586
 20
1.732051
 30
0.0
 11
64.17761
 21
1.732051
 31
0.0
  0
LINE
  5
C3
100
AcDbEntity
  8
VIEW
100
AcDbLine
 10
67.426586
 20
1.732051
 30
0.0
 11
64.17761
 21
1.732051
 31
0.0
  0
LINE
  5
C4
100
AcDbEntity
  8
STRUCTURE
100
AcDbLine
 10
63.535193
 20
1.732051
 30
0.0
 11
63.503383
 21
1.808847
 31
0.0
  0
LINE
  5
C5
100
AcDbEntity
  8
STRUCTURE
100
AcDbLine
 10
63.704667
 20
-2.006462
 30
0.0
 11
63.406483
 21
-2.522669
 31
0.0
  0
LINE
  5
C6
100
AcDbEntity
  8
STRUCTURE
100
AcDbLine
 10
63.406483
 20
-2.522669
 30
0.0
 11
64.197713
 21
-2.522669
 31
0.0
  0
LINE
  5
C7
100
AcDbEntity
  8
STRUCTURE
100
AcDbLine
 10
63.899529
 20
-2.006462
 30
0.0
 11
64.197713
 21
-2.522669
 31
0.0
  0
LINE
  5
C8
100
AcDbEntity
  8
STRUCTURE
100
AcDbLine
 10
67.704667
 20
-2.006462
 30
0.0
 11
67.406483
 21
-2.522669
 31
0.0
  0
LINE
  5
C9
100
AcDbEntity
  8
STRUCTURE
100
AcDbLine
 10
68.197713
 20
-2.522669
 30
0.0
 11
67.406483
 21
-2.522669
 31
0.0
  0
LINE
  5
CA
100
AcDbEntity
  8
STRUCTURE
100
AcDbLine
 10
67.899529
 20
-2.006462
 30
0.0
 11
68.197713
 21
-2.522669
 31
0.0
  0
LINE
  5
CB
100
AcDbEntity
  8
STRUCTURE
100
AcDbLine
 10
68.100814
 20
-1.808847
 30
0.0
 11
69.043636
 21
-0.866025
 31
0.0
  0
LINE
  5
CC
100
AcDbEntity
  8
STRUCTURE
100
AcDbLine
 10
68.069003
 20
-1.732051
 30
0.0
 11
68.935029
 21
-0.866025
 31
0.0
  0
LINE
  5
CD
100
AcDbEntity
  8
STRUCTURE
100
AcDbLine
 10
68.100814
 20
-1.808847
 30
0.0
 11
69.043636
 21
-0.866025
 31
0.0
  0
LINE
  5
CE
100
AcDbEntity
  8
STRUCTURE
100
AcDbLine
 10
68.069003
 20
-1.732051
 30
0.0
 11
68.935029
 21
-0.866025
 31
0.0
  0
LINE
  5
CF
100
AcDbEntity
  8
STRUCTURE
100
AcDbLine
 10
68.100814
 20
1.808847
 30
0.0
 11
69.909661
 21
0.0
 31
0.0
  0
LINE
  5
D0
100
AcDbEntity
  8
STRUCTURE
100
AcDbLine
 10
68.069003
 20
1.732051
 30
0.0
 11
69.801054
 21
0.0
 31
0.0
  0
LINE
  5
D1
100
AcDbEntity
  8
STRUCTURE
100
AcDbLine
 10
68.069003
 20
1.732051
 30
0.0
 11
69.801054
 21
0.0
 31
0.0
  0
LINE
  5
D2
100
AcDbEntity
  8
STRUCTURE
100
AcDbLine
 10
68.100814
 20
1.808847
 30
0.0
 11
69.909661
 21
0.0
 31
0.0
  0
LINE
  5
D3
100
AcDbEntity
  8
STRUCTURE
100
AcDbLine
 10
64.100814
 20
2.006462
 30
0.0
 11
64.100814
 21
1.808847
 31
0.0
  0
LINE
  5
D4
100
AcDbEntity
  8
STRUCTURE
100
AcDbLine
 10
68.100814
 20
2.006462
 30
0.0
 11
68.100814
 21
1.808847
 31
0.0
  0
LINE
  5
D5
100
AcDbEntity
  8
STRUCTURE
100
AcDbLine
 10
67.503383
 20
2.006462
 30
0.0
 11
67.503383
 21
1.808847
 31
0.0
  0
LINE
  5
D6
100
AcDbEntity
  8
STRUCTURE
100
AcDbLine
 10
63.503383
 20
2.006462
 30
0.0
 11
63.503383
 21
1.808847
 31
0.0
  0
CIRCLE
  5
D7
100
AcDbEntity
  8
TANKS
100
AcDbCircle
 10
80.051556
 20
-7.366025
 30
0.0
 40
6.0
  0
LINE
  5
D9
100
AcDbEntity
  8
SHIELDING
100
AcDbLine
 10
86.355924
 20
-18.9987
 30
0.0
 11
85.951556
 21
-18.704614
 31
0.0
  0
TEXT
  5
DA
100
AcDbEntity
  8
STA
100
AcDbText
 10
99.217529
 20
-37.677666
 30
0.0
 40
2.0
  1
AFT UNIT 97.9
 50
90.0
100
AcDbText
  0
TEXT
  5
DB
100
AcDbEntity
  8
STA
100
AcDbText
 10
66.004717
 20
-38.461312
 30
0.0
 40
2.0
  1
MID UNIT 65.0
 50
90.0
100
AcDbText
  0
LINE
  5
DC
100
AcDbEntity
  8
STA
100
AcDbLine
 10
97.9
 20
0.0
 30
0.0
 11
97.9
 21
-17.130053
 31
0.0
  0
LINE
  5
DD
100
AcDbEntity
  8
STA
100
AcDbLine
 10
65.0
 20
0.0
 30
0.0
 11
65.0
 21
-17.947839
 31
0.0
  0
LINE
  5
DE
100
AcDbEntity
  8
STRUCTURE
100
AcDbLine
 10
54.55264
 20
2.0
 30
0.0
 11
56.55264
 21
2.0
 31
0.0
  0
LINE
  5
DF
100
AcDbEntity
  8
STRUCTURE
100
AcDbLine
 10
61.803142
 20
0.0
 30
0.0
 11
61.694535
 21
0.0
 31
0.0
  0
LINE
  5
E0
100
AcDbEntity
  8
STRUCTURE
100
AcDbLine
 10
54.55264
 20
-2.0
 30
0.0
 11
56.55264
 21
-2.0
 31
0.0
  0
LINE
  5
E1
100
AcDbEntity
  8
STRUCTURE
100
AcDbLine
 10
54.55264
 20
0.0
 30
0.0
 11
56.55264
 21
0.0
 31
0.0
  0
LINE
  5
E2
100
AcDbEntity
  8
STRUCTURE
100
AcDbLine
 10
54.55264
 20
2.0
 30
0.0
 11
54.55264
 21
-2.0
 31
0.0
  0
LINE
  5
E3
100
AcDbEntity
  8
STRUCTURE
100
AcDbLine
 10
56.55264
 20
2.0
 30
0.0
 11
56.55264
 21
-2.0
 31
0.0
  0
LINE
  5
E4
100
AcDbEntity
  8
STA
100
AcDbLine
 10
61.996762
 20
-9.347272
 30
0.0
 11
57.397584
 21
-13.11972
 31
0.0
  0
LINE
  5
E5
100
AcDbEntity
  8
STA
100
AcDbLine
 10
61.996762
 20
0.0
 30
0.0
 11
61.996762
 21
-9.347272
 31
0.0
  0
LINE
  5
E6
100
AcDbEntity
  8
STRUCTURE
100
AcDbLine
 10
35.87591
 20
2.309401
 30
0.0
 11
36.87591
 21
2.309401
 31
0.0
  0
LINE
  5
E7
100
AcDbEntity
  8
STRUCTURE
100
AcDbLine
 10
35.87591
 20
1.154701
 30
0.0
 11
36.87591
 21
1.154701
 31
0.0
  0
LINE
  5
E8
100
AcDbEntity
  8
STRUCTURE
100
AcDbLine
 10
35.87591
 20
-2.309401
 30
0.0
 11
36.87591
 21
-2.309401
 31
0.0
  0
LINE
  5
E9
100
AcDbEntity
  8
STRUCTURE
100
AcDbLine
 10
35.87591
 20
-1.154701
 30
0.0
 11
36.87591
 21
-1.154701
 31
0.0
  0
LINE
  5
EA
100
AcDbEntity
  8
STRUCTURE
100
AcDbLine
 10
35.87591
 20
-2.309401
 30
0.0
 11
35.87591
 21
2.309401
 31
0.0
  0
LINE
  5
EB
100
AcDbEntity
  8
STRUCTURE
100
AcDbLine
 10
36.87591
 20
-2.309401
 30
0.0
 11
36.87591
 21
2.309401
 31
0.0
  0
LINE
  5
EC
100
AcDbEntity
  8
BAT
100
AcDbLine
 10
30.75
 20
2.12132
 30
0.0
 11
31.35
 21
2.12132
 31
0.0
  0
LINE
  5
EE
100
AcDbEntity
  8
GEN
100
AcDbLine
 10
30.75
 20
2.65165
 30
0.0
 11
32.25
 21
2.65165
 31
0.0
  0
LINE
  5
F0
100
AcDbEntity
  8
HATCH
100
AcDbLine
 10
31.598871
 20
1.0
 30
0.0
 11
31.598871
 21
-1.0
 31
0.0
  0
LINE
  5
F2
100
AcDbEntity
  8
GEN
100
AcDbLine
 10
30.75
 20
-0.883883
 30
0.0
 11
30.75
 21
-2.65165
 31
0.0
  0
LINE
  5
F3
100
AcDbEntity
  8
GEN
100
AcDbLine
 10
30.75
 20
-2.65165
 30
0.0
 11
32.25
 21
-2.65165
 31
0.0
  0
LINE
  5
F4
100
AcDbEntity
  8
GEN
100
AcDbLine
 10
30.75
 20
-1.59099
 30
0.0
 11
32.25
 21
-1.59099
 31
0.0
  0
LINE
  5
F5
100
AcDbEntity
  8
GEN
100
AcDbLine
 10
32.25
 20
-0.883883
 30
0.0
 11
32.25
 21
-2.65165
 31
0.0
  0
LINE
  5
F6
100
AcDbEntity
  8
GEN
100
AcDbLine
 10
30.75
 20
-0.883883
 30
0.0
 11
32.25
 21
-0.883883
 31
0.0
  0
LINE
  5
F7
100
AcDbEntity
  8
BAT
100
AcDbLine
 10
30.75
 20
-1.555635
 30
0.0
 11
31.35
 21
-1.555635
 31
0.0
  0
LINE
  5
F8
100
AcDbEntity
  8
BAT
100
AcDbLine
 10
30.75
 20
-2.12132
 30
0.0
 11
30.75
 21
-1.131371
 31
0.0
  0
LINE
  5
F9
100
AcDbEntity
  8
BAT
100
AcDbLine
 10
31.35
 20
-2.12132
 30
0.0
 11
31.35
 21
-1.131371
 31
0.0
  0
LINE
  5
FA
100
AcDbEntity
  8
BAT
100
AcDbLine
 10
30.75
 20
-2.12132
 30
0.0
 11
31.35
 21
-2.12132
 31
0.0
  0
LINE
  5
FB
100
AcDbEntity
  8
BAT
100
AcDbLine
 10
30.75
 20
-1.131371
 30
0.0
 11
31.35
 21
-1.131371
 31
0.0
  0
LINE
  5
FC
100
AcDbEntity
  8
BAT
100
AcDbLine
 10
30.75
 20
1.131371
 30
0.0
 11
31.35
 21
1.131371
 31
0.0
  0
LINE
  5
FD
100
AcDbEntity
  8
BAT
100
AcDbLine
 10
30.75
 20
1.555635
 30
0.0
 11
31.35
 21
1.555635
 31
0.0
  0
LINE
  5
FE
100
AcDbEntity
  8
GEN
100
AcDbLine
 10
30.75
 20
0.883883
 30
0.0
 11
32.25
 21
0.883883
 31
0.0
  0
LINE
  5
FF
100
AcDbEntity
  8
GEN
100
AcDbLine
 10
30.75
 20
1.59099
 30
0.0
 11
32.25
 21
1.59099
 31
0.0
  0
LINE
  5
100
100
AcDbEntity
  8
SHELTER
100
AcDbLine
 10
30.46663
 20
1.0
 30
0.0
 11
31.598871
 21
1.0
 31
0.0
  0
LINE
  5
101
100
AcDbEntity
  8
SHELTER
100
AcDbLine
 10
30.46663
 20
-1.0
 30
0.0
 11
31.598871
 21
-1.0
 31
0.0
  0
LINE
  5
102
100
AcDbEntity
  8
BAT
100
AcDbLine
 10
30.75
 20
2.12132
 30
0.0
 11
30.75
 21
1.131371
 31
0.0
  0
LINE
  5
103
100
AcDbEntity
  8
BAT
100
AcDbLine
 10
31.35
 20
2.12132
 30
0.0
 11
31.35
 21
1.131371
 31
0.0
  0
LINE
  5
104
100
AcDbEntity
  8
GEN
100
AcDbLine
 10
32.25
 20
0.883883
 30
0.0
 11
32.25
 21
2.65165
 31
0.0
  0
LINE
  5
105
100
AcDbEntity
  8
GEN
100
AcDbLine
 10
30.75
 20
0.883883
 30
0.0
 11
30.75
 21
2.65165
 31
0.0
  0
LWPOLYLINE
  5
106
100
AcDbEntity
  8
STRUCTURE
100
AcDbPolyline
 90
        5
 70
     0
 43
0.0
 10
35.87591
 20
0.5
 10
35.87591
 20
1.982051
 10
30.053005
 20
3.634564
 10
30.34462
 20
2.153431
 10
35.87591
 20
0.551819
  0
LINE
  5
107
100
AcDbEntity
  8
STRUCTURE
100
AcDbLine
 10
30.168828
 20
-3.134564
 30
0.0
 11
35.87591
 21
-1.482051
 31
0.0
  0
LWPOLYLINE
  5
108
100
AcDbEntity
  8
STRUCTURE
100
AcDbPolyline
 90
        5
 70
     0
 43
0.0
 10
35.87591
 20
-0.5
 10
35.87591
 20
-1.982051
 10
30.053005
 20
-3.634564
 10
30.34462
 20
-2.153431
 10
35.87591
 20
-0.551819
  0
LINE
  5
109
100
AcDbEntity
  8
STRUCTURE
100
AcDbLine
 10
30.168828
 20
3.134564
 30
0.0
 11
35.87591
 21
1.482051
 31
0.0
  0
LINE
  5
10A
100
AcDbEntity
  8
STRUCTURE
100
AcDbLine
 10
35.87591
 20
-0.5
 30
0.0
 11
31.598871
 21
-0.5
 31
0.0
  0
LINE
  5
10B
100
AcDbEntity
  8
STRUCTURE
100
AcDbLine
 10
35.87591
 20
0.5
 30
0.0
 11
31.598871
 21
0.5
 31
0.0
  0
LINE
  5
10C
100
AcDbEntity
  8
STA
100
AcDbLine
 10
31.5
 20
-9.347272
 30
0.0
 11
36.099179
 21
-13.11972
 31
0.0
  0
LINE
  5
10D
100
AcDbEntity
  8
STA
100
AcDbLine
 10
31.5
 20
-1.767767
 30
0.0
 11
31.5
 21
-9.347272
 31
0.0
  0
LINE
  5
10E
100
AcDbEntity
  8
STRUCTURE
100
AcDbLine
 10
54.55264
 20
-0.866025
 30
0.0
 11
36.87591
 21
-0.866025
 31
0.0
  0
LINE
  5
10F
100
AcDbEntity
  8
STRUCTURE
100
AcDbLine
 10
54.55264
 20
1.732051
 30
0.0
 11
36.87591
 21
1.732051
 31
0.0
  0
LINE
  5
110
100
AcDbEntity
  8
STRUCTURE
100
AcDbLine
 10
54.55264
 20
1.732051
 30
0.0
 11
36.87591
 21
1.732051
 31
0.0
  0
TEXT
  5
111
100
AcDbEntity
  8
STA
100
AcDbText
 10
58.333112
 20
-34.508769
 30
0.0
 40
2.0
  1
SPINE 62.0
 50
90.0
100
AcDbText
  0
LINE
  5
112
100
AcDbEntity
  8
STA
100
AcDbLine
 10
57.397584
 20
-13.11972
 30
0.0
 11
57.397584
 21
-17.9782
 31
0.0
  0
LINE
  5
113
100
AcDbEntity
  8
STA
100
AcDbLine
 10
36.099179
 20
-13.11972
 30
0.0
 11
36.099179
 21
-18.95945
 31
0.0
  0
LINE
  5
114
100
AcDbEntity
  8
STA
100
AcDbLine
 10
31.05
 20
1.626346
 30
0.0
 11
31.05
 21
-18.597181
 31
0.0
  0
LWPOLYLINE
  5
115
100
AcDbEntity
  8
RCS
100
AcDbPolyline
 90
        4
 70
     1
 43
0.0
 10
68.136804
 20
1.0
 42
-1.0
 10
68.136804
 20
-1.0
 10
63.467392
 20
-1.0
 42
-1.0
 10
63.467392
 20
1.0
  0
LINE
  5
117
100
AcDbEntity
  8
STRUCTURE
100
AcDbLine
 10
63.503383
 20
-1.808847
 30
0.0
 11
62.560561
 21
-0.866025
 31
0.0
  0
LINE
  5
118
100
AcDbEntity
  8
STRUCTURE
100
AcDbLine
 10
63.535193
 20
-1.732051
 30
0.0
 11
62.669168
 21
-0.866025
 31
0.0
  0
LWPOLYLINE
  5
119
100
AcDbEntity
  8
RCS
100
AcDbPolyline
 90
        4
 70
     1
 43
0.0
 10
68.136804
 20
1.0
 42
-1.0
 10
68.136804
 20
-1.0
 10
63.467392
 20
-1.0
 42
-1.0
 10
63.467392
 20
1.0
  0
LINE
  5
11A
100
AcDbEntity
  8
STRUCTURE
100
AcDbLine
 10
63.503383
 20
1.808847
 30
0.0
 11
61.694535
 21
0.0
 31
0.0
  0
LINE
  5
11B
100
AcDbEntity
  8
STRUCTURE
100
AcDbLine
 10
63.535193
 20
1.732051
 30
0.0
 11
61.803142
 21
0.0
 31
0.0
  0
LINE
  5
11C
100
AcDbEntity
  8
STRUCTURE
100
AcDbLine
 10
86.285962
 20
1.732051
 30
0.0
 11
56.55264
 21
1.732051
 31
0.0
  0
LINE
  5
11D
100
AcDbEntity
  8
STRUCTURE
100
AcDbLine
 10
86.285962
 20
-0.866025
 30
0.0
 11
56.55264
 21
-0.866025
 31
0.0
  0
TEXT
  5
11E
100
AcDbEntity
  8
STA
100
AcDbText
 10
37.268611
 20
-42.156014
 30
0.0
 40
2.0
  1
FUEL CELLS 31.5
 50
90.0
100
AcDbText
  0
TEXT
  5
11F
100
AcDbEntity
  8
STA
100
AcDbText
 10
32.054561
 20
-40.761536
 30
0.0
 40
2.0
  1
BATTERIES 31.1
 50
90.0
100
AcDbText
  0
LINE
  5
120
100
AcDbEntity
  8
RING
100
AcDbLine
 10
15.875
 20
0.0
 30
0.0
 11
15.125
 21
0.0
 31
0.0
  0
LINE
  5
122
100
AcDbEntity
  8
UTILITIES
100
AcDbLine
 10
18.357292
 20
0.0
 30
0.0
 11
16.125
 21
0.0
 31
0.0
  0
TEXT
  5
124
100
AcDbEntity
  8
STA
100
AcDbText
 10
1.110498
 20
-33.573328
 30
0.0
 40
2.0
  1
STA 0.0
 50
90.0
100
AcDbText
  0
LINE
  5
125
100
AcDbEntity
  8
STA
100
AcDbLine
 10
17.33
 20
0.0
 30
0.0
 11
17.33
 21
-18.055323
 31
0.0
  0
LINE
  5
126
100
AcDbEntity
  8
STA
100
AcDbLine
 10
0.0
 20
-3.126032
 30
0.0
 11
0.0
 21
-22.563794
 31
0.0
  0
TEXT
  5
127
100
AcDbEntity
  8
STA
100
AcDbText
 10
18.493584
 20
-39.012768
 30
0.0
 40
2.0
  1
FWD UNIT 17.3
 50
90.0
100
AcDbText
  0
CIRCLE
  5
128
100
AcDbEntity
  8
TANKS
100
AcDbCircle
 10
80.051556
 20
3.683013
 30
0.0
 40
6.0
  0
LINE
  5
129
100
AcDbEntity
  8
STRUCTURE
100
AcDbLine
 10
93.593524
 20
4.904284
 30
0.0
 11
102.621804
 21
7.892297
 31
0.0
  0
LINE
  5
12A
100
AcDbEntity
  8
STA
100
AcDbLine
 10
90.7
 20
0.0
 30
0.0
 11
90.7
 21
21.535541
 31
0.0
  0
LINE
  5
12B
100
AcDbEntity
  8
STA
100
AcDbLine
 10
3.82
 20
0.0
 30
0.0
 11
3.82
 21
22.793054
 31
0.0
  0
LINE
  5
12C
100
AcDbEntity
  8
STA
100
AcDbLine
 10
65.802098
 20
0.0
 30
0.0
 11
65.802098
 21
21.535541
 31
0.0
  0
LINE
  5
12D
100
AcDbEntity
  8
STA
100
AcDbLine
 10
80.051556
 20
0.0
 30
0.0
 11
80.051556
 21
13.903031
 31
0.0
  0
ARC
  5
12E
100
AcDbEntity
  8
SHIELDING
100
AcDbCircle
 10
15.5
 20
0.0
 30
0.0
 40
15.0
100
AcDbArc
 50
3.822554
 51
0.0
  0
LINE
  5
12F
100
AcDbEntity
  8
STA
100
AcDbLine
 10
0.0
 20
3.126032
 30
0.0
 11
0.0
 21
22.563794
 31
0.0
  0
LINE
  5
130
100
AcDbEntity
  8
STA
100
AcDbLine
 10
30.5
 20
0.0
 30
0.0
 11
30.5
 21
11.736151
 31
0.0
  0
LINE
  5
131
100
AcDbEntity
  8
STA
100
AcDbLine
 10
102.602098
 20
0.0
 30
0.0
 11
102.602098
 21
22.599126
 31
0.0
  0
ARC
  5
132
100
AcDbEntity
  8
WHIPPLE
100
AcDbCircle
 10
15.5
 20
0.0
 30
0.0
 40
15.5
100
AcDbArc
 50
120.0
 51
240.0
  0
ARC
  5
134
100
AcDbEntity
  8
WHIPPLE
100
AcDbCircle
 10
15.5
 20
0.0
 30
0.0
 40
15.35
100
AcDbArc
 50
120.323785
 51
239.676215
  0
LINE
  5
135
100
AcDbEntity
  8
SHIELDING
100
AcDbLine
 10
85.951556
 20
18.704614
 30
0.0
 11
85.951556
 21
-18.704614
 31
0.0
  0
LWPOLYLINE
  5
136
100
AcDbEntity
  8
SHIELDING
100
AcDbPolyline
 90
        4
 70
     0
 43
0.0
 10
85.951556
 20
18.704614
 10
93.093524
 20
8.884408
 10
93.093524
 20
-8.884408
 10
85.951556
 20
-18.704614
  0
LWPOLYLINE
  5
137
100
AcDbEntity
  8
SHIELDING
100
AcDbPolyline
 90
        4
 70
     0
 43
0.0
 10
86.355924
 20
18.9987
 10
93.593524
 20
9.047
 10
93.593524
 20
-9.047
 10
86.355924
 20
-18.9987
  0
LINE
  5
138
100
AcDbEntity
  8
STRUCTURE
100
AcDbLine
 10
102.602098
 20
7.5
 30
0.0
 11
102.621804
 21
7.892297
 31
0.0
  0
LINE
  5
139
100
AcDbEntity
  8
STA
100
AcDbLine
 10
24.514508
 20
0.0
 30
0.0
 11
24.514508
 21
22.902468
 31
0.0
  0
LINE
  5
13A
100
AcDbEntity
  8
STA
100
AcDbLine
 10
15.5
 20
21.535541
 30
0.0
 11
15.5
 21
0.0
 31
0.0
  0
LINE
  5
13B
100
AcDbEntity
  8
WHIPPLE
100
AcDbLine
 10
7.75
 20
13.423394
 30
0.0
 11
7.75
 21
-13.423394
 31
0.0
  0
LINE
  5
13C
100
AcDbEntity
  8
STA
100
AcDbLine
 10
78.3
 20
0.0
 30
0.0
 11
78.3
 21
21.535541
 31
0.0
  0
LINE
  5
13D
100
AcDbEntity
  8
STA
100
AcDbLine
 10
76.8
 20
0.0
 30
0.0
 11
76.8
 21
13.903031
 31
0.0
  0
LINE
  5
13E
100
AcDbEntity
  8
STA
100
AcDbLine
 10
55.55264
 20
0.0
 30
0.0
 11
55.55264
 21
22.902468
 31
0.0
  0
LINE
  5
13F
100
AcDbEntity
  8
STRUCTURE
100
AcDbLine
 10
125.0
 20
-7.892297
 30
0.0
 11
102.621804
 21
-7.892297
 31
0.0
  0
LINE
  5
140
100
AcDbEntity
  8
STRUCTURE
100
AcDbLine
 10
125.0
 20
7.892297
 30
0.0
 11
102.621804
 21
7.892297
 31
0.0
  0
TEXT
  5
141
100
AcDbEntity
  8
STA
100
AcDbText
 10
103.951641
 20
24.519883
 30
0.0
 40
2.0
  1
REACTOR 102.6
 50
90.0
100
AcDbText
  0
CIRCLE
  5
142
100
AcDbEntity
  8
REACTOR
100
AcDbCircle
 10
102.602098
 20
0.0
 30
0.0
 40
7.5
  0
MTEXT
  5
144
100
AcDbEntity
  8
CALLOUTS2
100
AcDbMText
 10
-216.023692
 20
199.432519
 30
0.0
 40
1.8
 41
0.0
 71
     4
 72
     1
  1
\A1;
  0
LINE
  5
146
100
AcDbEntity
  8
CENTERLINE
100
AcDbLine
 10
155.024405
 20
0.0
 30
0.0
 11
-4.087986
 21
0.0
 31
0.0
  0
MTEXT
  5
149
100
AcDbEntity
  8
DIM
100
AcDbMText
 10
-435.67636
 20
420.370658
 30
0.0
 40
1.0
 41
31.45
 71
     5
 72
     5
  1

  0
MTEXT
  5
14A
100
AcDbEntity
  8
DIM
100
AcDbMText
 10
-143.089252
 20
473.809372
 30
0.0
 40
4.32
 41
0.0
 71
     6
 72
     1
  1
\A1;
  0
MTEXT
  5
14B
100
AcDbEntity
  8
DIM
100
AcDbMText
 10
-149.632
 20
468.348123
 30
0.0
 40
4.32
 41
0.0
 71
     6
 72
     1
  1
\A1;
  0
MTEXT
  5
14C
100
AcDbEntity
  8
DIM
100
AcDbMText
 10
-115.874401
 20
78.87393
 30
0.0
 40
1.8
 41
0.0
 71
     6
 72
     1
  1
\A1;
  0
HATCH
  5
14D
100
AcDbEntity
  8
PROFILE
100
AcDbHatch
 10
0.0
 20
0.0
 30
0.0
210
0.0
220
0.0
230
1.0
  2
SOLID
 70
     1
 71
     0
 91
      137
 92
       48
 93
        1
 72
     2
 10
-211.881293
 20
228.845995
 40
0.4
 50
214.649489
 51
475.722368
 73
     1
 97
        0
 92
       48
 93
        1
 72
     1
 10
-211.983567
 20
228.459291
 11
-212.481141
 21
228.435217
 97
        0
 92
       48
 93
        1
 72
     2
 10
-211.881293
 20
228.845995
 40
0.4
 50
154.404555
 51
175.967301
 73
     1
 97
        0
 92
       48
 93
        1
 72
     2
 10
-212.475444
 20
228.505158
 40
0.070172
 50
85.343003
 51
265.343003
 73
     1
 97
        0
 92
       48
 93
        1
 72
     1
 10
-212.469747
 20
228.575098
 11
-212.210352
 21
228.618574
 97
        0
 92
       48
 93
        1
 72
     1
 10
-212.258884
 20
229.372387
 11
-212.054898
 21
229.206359
 97
        0
 92
       48
 93
        1
 72
     1
 10
-212.280303
 20
228.874126
 11
-212.995867
 21
228.933895
 97
        0
 92
       48
 93
        1
 72
     1
 10
-212.210352
 20
228.618574
 11
-213.060936
 21
228.687862
 97
        0
 92
       48
 93
        1
 72
     1
 10
-212.24204
 20
229.018801
 11
-212.893593
 21
229.320599
 97
        0
 92
       48
 93
        1
 72
     1
 10
-212.054898
 20
229.206359
 11
-212.828524
 21
229.566632
 97
        0
 92
       48
 93
        1
 72
     1
 10
-211.77902
 20
229.2327
 11
-212.199637
 21
229.499611
 97
        0
 92
       32
 93
        1
 72
     2
 10
-212.229261
 20
229.435999
 40
0.070172
 50
65.028854
 51
245.028854
 73
     1
 97
        0
 92
       16
 93
        1
 72
     2
 10
-211.252899
 20
228.679801
 40
0.25
 50
0.0
 51
360.0
 73
     1
 97
        0
 92
       48
 93
        1
 72
     1
 10
-212.893593
 20
229.320599
 11
-212.828524
 21
229.566632
 97
        0
 92
       48
 93
        1
 72
     1
 10
-213.060936
 20
228.687862
 11
-212.995867
 21
228.933895
 97
        0
 92
       16
 93
        1
 72
     2
 10
-278.975726
 20
228.988342
 40
7.5
 50
0.0
 51
360.0
 73
     1
 97
        0
 92
       32
 93
        1
 72
     2
 10
-239.175726
 20
240.73229
 40
2.25
 50
310.813198
 51
437.160412
 73
     1
 97
        0
 92
       48
 93
        1
 72
     2
 10
-239.175726
 20
240.73229
 40
2.25
 50
102.839588
 51
229.186802
 73
     1
 97
        0
 92
       32
 93
        1
 72
     1
 10
-234.675726
 20
233.079389
 11
-234.675726
 21
235.079389
 97
        0
 92
       32
 93
        1
 72
     1
 10
-234.675726
 20
233.079389
 11
-233.979439
 21
234.719578
 97
        0
 92
       48
 93
        1
 72
     1
 10
-232.558609
 20
231.359399
 11
-233.979439
 21
234.719578
 97
        0
 92
       32
 93
        1
 72
     1
 10
-243.675726
 20
233.079389
 11
-244.372013
 21
234.719578
 97
        0
 92
       32
 93
        1
 72
     1
 10
-243.675726
 20
233.079389
 11
-243.675726
 21
235.079389
 97
        0
 92
       48
 93
        1
 72
     1
 10
-245.792842
 20
231.359399
 11
-244.372013
 21
234.719578
 97
        0
 92
       32
 93
        1
 72
     1
 10
-243.675726
 20
233.079389
 11
-234.675726
 21
233.079389
 97
        0
 92
       48
 93
        1
 72
     1
 10
-246.146396
 20
231.359399
 11
-245.450532
 21
231.359399
 97
        0
 92
       48
 93
        1
 72
     1
 10
-246.146396
 20
231.359399
 11
-246.146396
 21
231.220393
 97
        0
 92
       48
 93
        1
 72
     1
 10
-245.450532
 20
231.359399
 11
-245.450532
 21
231.220393
 97
        0
 92
       48
 93
        1
 72
     1
 10
-245.792842
 20
231.359399
 11
-245.792842
 21
231.220393
 97
        0
 92
       48
 93
        1
 72
     1
 10
-244.352964
 20
232.825998
 11
-243.766038
 21
233.000593
 97
        0
 92
       32
 93
        1
 72
     1
 10
-244.382683
 20
232.920996
 11
-244.352964
 21
232.825998
 97
        0
 92
       32
 93
        1
 72
     1
 10
-243.675726
 20
233.079389
 11
-243.780898
 21
233.048091
 97
        0
 92
       32
 93
        1
 72
     1
 10
-244.382683
 20
232.920996
 11
-243.795757
 21
233.09559
 97
        0
 92
       32
 93
        1
 72
     1
 10
-243.795757
 20
233.09559
 11
-243.766038
 21
233.000593
 97
        0
 92
       48
 93
        1
 72
     1
 10
-244.367804
 20
232.873433
 11
-245.265619
 21
232.606251
 97
        0
 92
       48
 93
        1
 72
     1
 10
-232.558609
 20
231.359399
 11
-232.558609
 21
231.220393
 97
        0
 92
       48
 93
        1
 72
     1
 10
-232.205055
 20
231.359399
 11
-232.205055
 21
231.220393
 97
        0
 92
       48
 93
        1
 72
     1
 10
-232.90092
 20
231.359399
 11
-232.90092
 21
231.220393
 97
        0
 92
       48
 93
        1
 72
     1
 10
-232.205055
 20
231.359399
 11
-232.90092
 21
231.359399
 97
        0
 92
       32
 93
        1
 72
     1
 10
-234.555694
 20
233.09559
 11
-234.585413
 21
233.000593
 97
        0
 92
       32
 93
        1
 72
     1
 10
-233.968768
 20
232.920996
 11
-234.555694
 21
233.09559
 97
        0
 92
       32
 93
        1
 72
     1
 10
-234.675726
 20
233.079389
 11
-234.570554
 21
233.048091
 97
        0
 92
       48
 93
        1
 72
     1
 10
-233.983648
 20
232.873433
 11
-233.085832
 21
232.606251
 97
        0
 92
       32
 93
        1
 72
     1
 10
-233.968768
 20
232.920996
 11
-233.998487
 21
232.825998
 97
        0
 92
       48
 93
        1
 72
     1
 10
-233.998487
 20
232.825998
 11
-234.585413
 21
233.000593
 97
        0
 92
        0
 93
        4
 72
     1
 10
-241.175726
 20
239.029389
 11
-241.175726
 21
237.029389
 72
     1
 10
-241.175726
 20
237.029389
 11
-237.175726
 21
237.029389
 72
     1
 10
-237.175726
 20
237.029389
 11
-237.175726
 21
239.029389
 72
     1
 10
-237.175726
 20
239.029389
 11
-241.175726
 21
239.029389
 97
        0
 92
        0
 93
        4
 72
     2
 10
-242.425726
 20
236.004389
 40
0.8
 50
89.999995
 51
270.000005
 73
     0
 72
     1
 10
-242.425726
 20
236.804389
 11
-235.925726
 21
236.804389
 72
     2
 10
-235.925726
 20
236.004389
 40
0.8
 50
270.000005
 51
449.999995
 73
     0
 72
     1
 10
-235.925726
 20
235.204389
 11
-242.425726
 21
235.204389
 97
        0
 92
       48
 93
        1
 72
     1
 10
-243.675726
 20
235.079389
 11
-234.675726
 21
235.079389
 97
        0
 92
       48
 93
        1
 72
     1
 10
-243.675726
 20
234.979389
 11
-234.675726
 21
234.979389
 97
        0
 92
        0
 93
        1
 72
     2
 10
-244.372013
 20
234.719578
 40
0.1
 50
0.0
 51
360.0
 73
     1
 97
        0
 92
       48
 93
        1
 72
     1
 10
-243.675726
 20
235.079389
 11
-244.372013
 21
234.719578
 97
        0
 92
        0
 93
        4
 72
     2
 10
-236.585726
 20
236.004389
 40
0.8
 50
269.999995
 51
450.000005
 73
     1
 72
     1
 10
-236.585726
 20
236.804389
 11
-241.765726
 21
236.804389
 72
     2
 10
-241.765726
 20
236.004389
 40
0.8
 50
90.000005
 51
269.999995
 73
     1
 72
     1
 10
-241.765726
 20
235.204389
 11
-236.585726
 21
235.204389
 97
        0
 92
       32
 93
        1
 72
     1
 10
-239.925726
 20
235.204389
 11
-239.925726
 21
235.079389
 97
        0
 92
       32
 93
        1
 72
     1
 10
-241.675726
 20
235.204389
 11
-241.675726
 21
235.079389
 97
        0
 92
       32
 93
        1
 72
     1
 10
-236.675726
 20
235.204389
 11
-236.675726
 21
235.079389
 97
        0
 92
       32
 93
        1
 72
     1
 10
-238.425726
 20
235.204389
 11
-238.425726
 21
235.079389
 97
        0
 92
        0
 93
        1
 72
     2
 10
-233.979439
 20
234.719578
 40
0.1
 50
0.0
 51
360.0
 73
     1
 97
        0
 92
       48
 93
        1
 72
     1
 10
-234.675726
 20
235.079389
 11
-233.979439
 21
234.719578
 97
        0
 92
       32
 93
        1
 72
     1
 10
-236.675726
 20
237.029389
 11
-236.675726
 21
236.804389
 97
        0
 92
       32
 93
        1
 72
     1
 10
-238.425726
 20
237.029389
 11
-238.425726
 21
236.804389
 97
        0
 92
       32
 93
        1
 72
     1
 10
-239.925726
 20
237.029389
 11
-239.925726
 21
236.804389
 97
        0
 92
       32
 93
        1
 72
     1
 10
-241.675726
 20
237.029389
 11
-241.675726
 21
236.804389
 97
        0
 92
       32
 93
        1
 72
     1
 10
-239.925726
 20
236.929389
 11
-241.675726
 21
236.929389
 97
        0
 92
       32
 93
        1
 72
     1
 10
-239.925726
 20
237.029389
 11
-241.675726
 21
237.029389
 97
        0
 92
       32
 93
        1
 72
     1
 10
-238.425726
 20
237.029389
 11
-236.675726
 21
237.029389
 97
        0
 92
       32
 93
        1
 72
     1
 10
-238.425726
 20
236.929389
 11
-236.675726
 21
236.929389
 97
        0
 92
       48
 93
        1
 72
     1
 10
-239.675726
 20
243.176031
 11
-238.675726
 21
243.176031
 97
        0
 92
       48
 93
        1
 72
     1
 10
-239.675726
 20
242.926031
 11
-238.675726
 21
242.926031
 97
        0
 92
       32
 93
        1
 72
     1
 10
-239.675726
 20
242.926031
 11
-239.675726
 21
243.176031
 97
        0
 92
       32
 93
        1
 72
     1
 10
-238.675726
 20
243.176031
 11
-238.675726
 21
242.926031
 97
        0
 92
       48
 93
        1
 72
     2
 10
-239.175726
 20
217.244395
 40
2.25
 50
282.839588
 51
409.186802
 73
     1
 97
        0
 92
       32
 93
        1
 72
     2
 10
-239.175726
 20
217.244395
 40
2.25
 50
130.813198
 51
257.160412
 73
     1
 97
        0
 92
       32
 93
        1
 72
     1
 10
-234.675726
 20
224.897295
 11
-234.675726
 21
222.897295
 97
        0
 92
       32
 93
        1
 72
     1
 10
-234.675726
 20
224.897295
 11
-233.979439
 21
223.257107
 97
        0
 92
       48
 93
        1
 72
     1
 10
-232.558609
 20
226.617285
 11
-233.979439
 21
223.257107
 97
        0
 92
       32
 93
        1
 72
     1
 10
-243.675726
 20
224.897295
 11
-244.372013
 21
223.257107
 97
        0
 92
       32
 93
        1
 72
     1
 10
-243.675726
 20
224.897295
 11
-243.675726
 21
222.897295
 97
        0
 92
       48
 93
        1
 72
     1
 10
-245.792842
 20
226.617285
 11
-244.372013
 21
223.257107
 97
        0
 92
       32
 93
        1
 72
     1
 10
-243.675726
 20
224.897295
 11
-234.675726
 21
224.897295
 97
        0
 92
       48
 93
        1
 72
     1
 10
-246.146396
 20
226.617285
 11
-245.450532
 21
226.617285
 97
        0
 92
       48
 93
        1
 72
     1
 10
-246.146396
 20
226.617285
 11
-246.146396
 21
226.756291
 97
        0
 92
       48
 93
        1
 72
     1
 10
-245.450532
 20
226.617285
 11
-245.450532
 21
226.756291
 97
        0
 92
       48
 93
        1
 72
     1
 10
-245.792842
 20
226.617285
 11
-245.792842
 21
226.756291
 97
        0
 92
       48
 93
        1
 72
     1
 10
-244.352964
 20
225.150686
 11
-243.766038
 21
224.976092
 97
        0
 92
       32
 93
        1
 72
     1
 10
-244.382683
 20
225.055689
 11
-244.352964
 21
225.150686
 97
        0
 92
       32
 93
        1
 72
     1
 10
-243.675726
 20
224.897295
 11
-243.780898
 21
224.928593
 97
        0
 92
       32
 93
        1
 72
     1
 10
-244.382683
 20
225.055689
 11
-243.795757
 21
224.881095
 97
        0
 92
       32
 93
        1
 72
     1
 10
-243.795757
 20
224.881095
 11
-243.766038
 21
224.976092
 97
        0
 92
       48
 93
        1
 72
     1
 10
-244.367804
 20
225.103252
 11
-245.265619
 21
225.370434
 97
        0
 92
       48
 93
        1
 72
     1
 10
-232.558609
 20
226.617285
 11
-232.558609
 21
226.756291
 97
        0
 92
       48
 93
        1
 72
     1
 10
-232.205055
 20
226.617285
 11
-232.205055
 21
226.756291
 97
        0
 92
       48
 93
        1
 72
     1
 10
-232.90092
 20
226.617285
 11
-232.90092
 21
226.756291
 97
        0
 92
       48
 93
        1
 72
     1
 10
-232.205055
 20
226.617285
 11
-232.90092
 21
226.617285
 97
        0
 92
       32
 93
        1
 72
     1
 10
-234.555694
 20
224.881095
 11
-234.585413
 21
224.976092
 97
        0
 92
       32
 93
        1
 72
     1
 10
-233.968768
 20
225.055689
 11
-234.555694
 21
224.881095
 97
        0
 92
       32
 93
        1
 72
     1
 10
-234.675726
 20
224.897295
 11
-234.570554
 21
224.928593
 97
        0
 92
       48
 93
        1
 72
     1
 10
-233.983648
 20
225.103252
 11
-233.085832
 21
225.370434
 97
        0
 92
       32
 93
        1
 72
     1
 10
-233.968768
 20
225.055689
 11
-233.998487
 21
225.150686
 97
        0
 92
       48
 93
        1
 72
     1
 10
-233.998487
 20
225.150686
 11
-234.585413
 21
224.976092
 97
        0
 92
        0
 93
        4
 72
     1
 10
-241.175726
 20
218.947295
 11
-241.175726
 21
220.947295
 72
     1
 10
-241.175726
 20
220.947295
 11
-237.175726
 21
220.947295
 72
     1
 10
-237.175726
 20
220.947295
 11
-237.175726
 21
218.947295
 72
     1
 10
-237.175726
 20
218.947295
 11
-241.175726
 21
218.947295
 97
        0
 92
        0
 93
        4
 72
     2
 10
-242.425726
 20
221.972295
 40
0.8
 50
89.999995
 51
270.000005
 73
     1
 72
     1
 10
-242.425726
 20
221.172295
 11
-235.925726
 21
221.172295
 72
     2
 10
-235.925726
 20
221.972295
 40
0.8
 50
270.000005
 51
449.999995
 73
     1
 72
     1
 10
-235.925726
 20
222.772295
 11
-242.425726
 21
222.772295
 97
        0
 92
       32
 93
        1
 72
     1
 10
-243.675726
 20
222.897295
 11
-234.675726
 21
222.897295
 97
        0
 92
       32
 93
        1
 72
     1
 10
-243.675726
 20
222.997295
 11
-234.675726
 21
222.997295
 97
        0
 92
        0
 93
        1
 72
     2
 10
-244.372013
 20
223.257107
 40
0.1
 50
0.0
 51
360.0
 73
     1
 97
        0
 92
       32
 93
        1
 72
     1
 10
-243.675726
 20
222.897295
 11
-244.372013
 21
223.257107
 97
        0
 92
        0
 93
        4
 72
     2
 10
-236.585726
 20
221.972295
 40
0.8
 50
269.999995
 51
450.000005
 73
     0
 72
     1
 10
-236.585726
 20
221.172295
 11
-241.765726
 21
221.172295
 72
     2
 10
-241.765726
 20
221.972295
 40
0.8
 50
90.000005
 51
269.999995
 73
     0
 72
     1
 10
-241.765726
 20
222.772295
 11
-236.585726
 21
222.772295
 97
        0
 92
       32
 93
        1
 72
     1
 10
-239.925726
 20
222.772295
 11
-239.925726
 21
222.897295
 97
        0
 92
       32
 93
        1
 72
     1
 10
-241.675726
 20
222.772295
 11
-241.675726
 21
222.897295
 97
        0
 92
       32
 93
        1
 72
     1
 10
-236.675726
 20
222.772295
 11
-236.675726
 21
222.897295
 97
        0
 92
       32
 93
        1
 72
     1
 10
-238.425726
 20
222.772295
 11
-238.425726
 21
222.897295
 97
        0
 92
        0
 93
        1
 72
     2
 10
-233.979439
 20
223.257107
 40
0.1
 50
0.0
 51
360.0
 73
     1
 97
        0
 92
       32
 93
        1
 72
     1
 10
-234.675726
 20
222.897295
 11
-233.979439
 21
223.257107
 97
        0
 92
       32
 93
        1
 72
     1
 10
-236.675726
 20
220.947295
 11
-236.675726
 21
221.172295
 97
        0
 92
       32
 93
        1
 72
     1
 10
-238.425726
 20
220.947295
 11
-238.425726
 21
221.172295
 97
        0
 92
       32
 93
        1
 72
     1
 10
-239.925726
 20
220.947295
 11
-239.925726
 21
221.172295
 97
        0
 92
       32
 93
        1
 72
     1
 10
-241.675726
 20
220.947295
 11
-241.675726
 21
221.172295
 97
        0
 92
       32
 93
        1
 72
     1
 10
-239.925726
 20
221.047295
 11
-241.675726
 21
221.047295
 97
        0
 92
       32
 93
        1
 72
     1
 10
-239.925726
 20
220.947295
 11
-241.675726
 21
220.947295
 97
        0
 92
       32
 93
        1
 72
     1
 10
-238.425726
 20
220.947295
 11
-236.675726
 21
220.947295
 97
        0
 92
       32
 93
        1
 72
     1
 10
-238.425726
 20
221.047295
 11
-236.675726
 21
221.047295
 97
        0
 92
       48
 93
        1
 72
     1
 10
-239.675726
 20
214.800654
 11
-238.675726
 21
214.800654
 97
        0
 92
       48
 93
        1
 72
     1
 10
-239.675726
 20
215.050654
 11
-238.675726
 21
215.050654
 97
        0
 92
       32
 93
        1
 72
     1
 10
-239.675726
 20
215.050654
 11
-239.675726
 21
214.800654
 97
        0
 92
       32
 93
        1
 72
     1
 10
-238.675726
 20
214.800654
 11
-238.675726
 21
215.050654
 97
        0
 92
        1
 93
        4
 72
     1
 10
-330.796016
 20
266.750476
 11
-171.290119
 21
266.750476
 72
     1
 10
-171.290119
 20
266.750476
 11
-171.290119
 21
190.29982
 72
     1
 10
-171.290119
 20
190.29982
 11
-330.796016
 21
190.29982
 72
     1
 10
-330.796016
 20
190.29982
 11
-330.796016
 21
266.750476
 97
        0
 92
       16
 93
        2
 72
     1
 10
-184.123627
 20
242.411736
 11
-184.123627
 21
215.564949
 72
     2
 10
-191.873627
 20
228.988342
 40
15.5
 50
300.0
 51
420.0
 73
     1
 97
        0
 92
        0
 93
        4
 72
     1
 10
-207.123627
 20
231.109663
 11
-207.723627
 21
231.109663
 72
     1
 10
-207.723627
 20
231.109663
 11
-207.723627
 21
230.119713
 72
     1
 10
-207.723627
 20
230.119713
 11
-207.123627
 21
230.119713
 72
     1
 10
-207.123627
 20
230.119713
 11
-207.123627
 21
231.109663
 97
        0
 92
        0
 93
        4
 72
     1
 10
-207.123627
 20
228.104459
 11
-208.623627
 21
228.104459
 72
     1
 10
-208.623627
 20
228.104459
 11
-208.623627
 21
226.336692
 72
     1
 10
-208.623627
 20
226.336692
 11
-207.123627
 21
226.336692
 72
     1
 10
-207.123627
 20
226.336692
 11
-207.123627
 21
228.104459
 97
        0
 92
        0
 93
        4
 72
     1
 10
-221.373627
 20
232.988342
 11
-225.373627
 21
232.988342
 72
     1
 10
-225.373627
 20
232.988342
 11
-225.373627
 21
224.988342
 72
     1
 10
-225.373627
 20
224.988342
 11
-221.373627
 21
224.988342
 72
     1
 10
-221.373627
 20
224.988342
 11
-221.373627
 21
232.988342
 97
        0
 92
       16
 93
        6
 72
     1
 10
-258.829552
 20
247.987042
 11
-258.425184
 21
247.692956
 72
     1
 10
-258.425184
 20
247.692956
 11
-258.425184
 21
210.283728
 72
     1
 10
-258.425184
 20
210.283728
 11
-258.829552
 21
209.989642
 72
     1
 10
-258.829552
 20
209.989642
 11
-266.067152
 21
219.941342
 72
     1
 10
-266.067152
 20
219.941342
 11
-266.067152
 21
238.035342
 72
     1
 10
-266.067152
 20
238.035342
 11
-258.829552
 21
247.987042
 97
        0
 92
        0
 93
        4
 72
     1
 10
-289.475726
 20
235.318469
 11
-295.673627
 21
235.318469
 72
     1
 10
-295.673627
 20
235.318469
 11
-295.673627
 21
231.318469
 72
     1
 10
-295.673627
 20
231.318469
 11
-289.475726
 21
231.318469
 72
     1
 10
-289.475726
 20
231.318469
 11
-289.475726
 21
235.318469
 97
        0
 92
        0
 93
        4
 72
     1
 10
-289.475726
 20
222.658215
 11
-289.475726
 21
226.658215
 72
     1
 10
-289.475726
 20
226.658215
 11
-295.673627
 21
226.658215
 72
     1
 10
-295.673627
 20
226.658215
 11
-295.673627
 21
222.658215
 72
     1
 10
-295.673627
 20
222.658215
 11
-289.475726
 21
222.658215
 97
        0
 92
       16
 93
        4
 72
     1
 10
-289.475726
 20
230.988342
 11
-289.475726
 21
226.988342
 72
     1
 10
-289.475726
 20
226.988342
 11
-295.673627
 21
226.988342
 72
     1
 10
-295.673627
 20
226.988342
 11
-295.673627
 21
230.988342
 72
     1
 10
-295.673627
 20
230.988342
 11
-289.475726
 21
230.988342
 97
        0
 92
       16
 93
        6
 72
     1
 10
-295.366682
 20
236.880639
 11
-278.995432
 21
236.880639
 72
     1
 10
-278.995432
 20
236.880639
 11
-287.506458
 21
249.008212
 72
     1
 10
-287.506458
 20
249.008212
 11
-309.770332
 21
263.43806
 72
     1
 10
-309.770332
 20
263.43806
 11
-326.141581
 21
263.43806
 72
     1
 10
-326.141581
 20
263.43806
 11
-317.630555
 21
251.310488
 72
     1
 10
-317.630555
 20
251.310488
 11
-295.366682
 21
236.880639
 97
        0
 92
       16
 93
        6
 72
     1
 10
-295.366682
 20
221.096045
 11
-278.995432
 21
221.096045
 72
     1
 10
-278.995432
 20
221.096045
 11
-287.506458
 21
208.968473
 72
     1
 10
-287.506458
 20
208.968473
 11
-309.770332
 21
194.538625
 72
     1
 10
-309.770332
 20
194.538625
 11
-326.141581
 21
194.538625
 72
     1
 10
-326.141581
 20
194.538625
 11
-317.630555
 21
206.666197
 72
     1
 10
-317.630555
 20
206.666197
 11
-295.366682
 21
221.096045
 97
        0
 92
        0
 93
        6
 72
     1
 10
-295.366682
 20
221.096045
 11
-278.995432
 21
221.096045
 72
     1
 10
-278.995432
 20
221.096045
 11
-287.506458
 21
208.968473
 72
     1
 10
-287.506458
 20
208.968473
 11
-309.770332
 21
194.538625
 72
     1
 10
-309.770332
 20
194.538625
 11
-326.141581
 21
194.538625
 72
     1
 10
-326.141581
 20
194.538625
 11
-317.630555
 21
206.666197
 72
     1
 10
-317.630555
 20
206.666197
 11
-295.366682
 21
221.096045
 97
        0
 92
       48
 93
       68
 72
     2
 10
-191.873627
 20
228.988342
 40
15.0
 50
58.891077
 51
156.839259
 73
     1
 72
     1
 10
-206.840257
 20
229.988342
 11
-206.840257
 21
227.988342
 72
     1
 10
-221.373627
 20
228.122317
 11
-213.254019
 21
228.122317
 72
     1
 10
-221.373627
 20
230.720393
 11
-213.154019
 21
230.720393
 72
     1
 10
-278.975726
 20
236.488342
 11
-278.995432
 21
236.880639
 72
     1
 10
-278.975726
 20
221.488342
 11
-278.995432
 21
221.096045
 72
     1
 10
-295.366682
 20
221.096045
 11
-295.366682
 21
222.658215
 72
     1
 10
-295.366682
 20
236.880639
 11
-295.366682
 21
235.318469
 72
     1
 10
-205.916479
 20
235.139798
 11
-206.623586
 21
234.432692
 72
     1
 10
-208.037799
 20
237.261119
 11
-208.744906
 21
236.554012
 72
     1
 10
-208.037799
 20
237.261119
 11
-205.664703
 21
234.888023
 72
     1
 10
-207.123627
 20
229.988342
 11
-207.123627
 21
231.600671
 72
     1
 10
-207.123627
 20
230.543977
 11
-207.723627
 21
230.543977
 72
     1
 10
-206.840257
 20
227.988342
 11
-207.123627
 21
227.988342
 72
     1
 10
-206.840257
 20
229.988342
 11
-207.972498
 21
229.988342
 72
     1
 10
-207.972498
 20
229.988342
 11
-207.972498
 21
228.104459
 72
     1
 10
-208.623627
 20
229.872226
 11
-208.623627
 21
231.120539
 72
     1
 10
-207.723627
 20
230.579333
 11
-208.623627
 21
230.579333
 72
     1
 10
-207.972498
 20
229.872226
 11
-208.623627
 21
229.872226
 72
     1
 10
-207.123627
 20
227.397352
 11
-208.623627
 21
227.397352
 72
     1
 10
-208.744906
 20
236.554012
 11
-206.058033
 21
233.867139
 72
     2
 10
-191.873627
 20
228.988342
 40
15.0
 50
156.839259
 51
176.177446
 73
     1
 72
     1
 10
-213.254019
 20
227.256291
 11
-213.154019
 21
227.256291
 72
     1
 10
-213.154019
 20
230.720393
 11
-213.154019
 21
227.256291
 72
     1
 10
-213.254019
 20
230.720393
 11
-213.254019
 21
227.256291
 72
     1
 10
-221.373627
 20
227.854368
 11
-225.373627
 21
227.854368
 72
     1
 10
-221.373627
 20
228.854368
 11
-225.373627
 21
228.854368
 72
     1
 10
-221.373627
 20
230.122317
 11
-225.373627
 21
230.122317
 72
     1
 10
-221.373627
 20
229.122317
 11
-225.373627
 21
229.122317
 72
     1
 10
-221.373627
 20
231.854368
 11
-225.373627
 21
231.854368
 72
     1
 10
-221.373627
 20
226.122317
 11
-225.373627
 21
226.122317
 72
     1
 10
-234.271304
 20
230.720393
 11
-233.693954
 21
231.220393
 72
     1
 10
-231.423264
 20
231.220393
 11
-233.693954
 21
231.220393
 72
     1
 10
-230.845913
 20
230.720393
 11
-231.423264
 21
231.220393
 72
     1
 10
-231.423264
 20
226.756291
 11
-233.693954
 21
226.756291
 72
     1
 10
-229.845913
 20
228.122317
 11
-231.423264
 21
226.756291
 72
     1
 10
-235.271304
 20
228.122317
 11
-233.693954
 21
226.756291
 72
     1
 10
-206.355558
 20
232.896501
 11
-213.154019
 21
230.720393
 72
     1
 10
-206.355558
 20
225.080184
 11
-213.154019
 21
227.256291
 72
     1
 10
-206.614659
 20
231.763586
 11
-213.154019
 21
229.670414
 72
     1
 10
-208.623627
 20
226.856146
 11
-213.154019
 21
228.306271
 72
     2
 10
-191.873627
 20
228.988342
 40
15.0
 50
183.822554
 51
301.108923
 73
     1
 72
     1
 10
-244.080147
 20
230.720393
 11
-244.657497
 21
231.220393
 72
     1
 10
-247.505538
 20
230.720393
 11
-246.928188
 21
231.220393
 72
     1
 10
-246.928188
 20
231.220393
 11
-244.657497
 21
231.220393
 72
     1
 10
-246.928188
 20
226.756291
 11
-244.657497
 21
226.756291
 72
     1
 10
-248.505538
 20
228.122317
 11
-246.928188
 21
226.756291
 72
     1
 10
-243.080147
 20
228.122317
 11
-244.657497
 21
226.756291
 72
     1
 10
-266.067152
 20
230.720393
 11
-266.067152
 21
227.256291
 72
     2
 10
-259.403201
 20
232.236355
 40
5.13
 50
280.990527
 51
439.009473
 73
     1
 72
     2
 10
-259.403201
 20
222.492317
 40
5.13
 50
280.990527
 51
431.75223
 73
     1
 72
     1
 10
-298.173627
 20
235.318469
 11
-295.673627
 21
234.282935
 72
     1
 10
-298.173627
 20
231.318469
 11
-295.673627
 21
232.354003
 72
     1
 10
-298.173627
 20
230.988342
 11
-295.673627
 21
229.952808
 72
     1
 10
-298.173627
 20
226.658215
 11
-298.173627
 21
222.658215
 72
     1
 10
-298.173627
 20
226.658215
 11
-295.673627
 21
225.622681
 72
     1
 10
-298.173627
 20
222.658215
 11
-295.673627
 21
223.693749
 72
     1
 10
-298.173627
 20
226.988342
 11
-295.673627
 21
228.023876
 72
     1
 10
-298.173627
 20
226.988342
 11
-298.173627
 21
230.988342
 72
     1
 10
-298.173627
 20
231.318469
 11
-298.173627
 21
235.318469
 72
     1
 10
-289.475726
 20
235.318469
 11
-285.398778
 21
232.860603
 72
     1
 10
-289.475726
 20
222.658215
 11
-285.398778
 21
225.116082
 72
     1
 10
-272.012433
 20
226.202207
 11
-266.067152
 21
228.256291
 72
     1
 10
-272.631437
 20
224.988342
 11
-266.067152
 21
227.256291
 72
     1
 10
-272.012433
 20
231.774477
 11
-266.067152
 21
229.720393
 72
     1
 10
-272.631437
 20
232.988342
 11
-266.067152
 21
230.720393
 72
     1
 10
-254.502308
 20
230.720393
 11
-225.373627
 21
230.720393
 72
     1
 10
-256.338631
 20
228.122317
 11
-225.373627
 21
228.122317
 97
        0
 75
     0
 76
     1
 98
        0
  0
MTEXT
  5
14F
100
AcDbEntity
  8
DIM
100
AcDbMText
 10
-403.85115
 20
165.176654
 30
0.0
 40
1.0
 41
31.45
 71
     5
 72
     5
  1

  0
MTEXT
  5
150
100
AcDbEntity
  8
DIM
100
AcDbMText
 10
-111.264041
 20
218.615368
 30
0.0
 40
4.32
 41
0.0
 71
     6
 72
     1
  1
\A1;
  0
MTEXT
  5
151
100
AcDbEntity
  8
DIM
100
AcDbMText
 10
-117.80679
 20
213.154119
 30
0.0
 40
4.32
 41
0.0
 71
     6
 72
     1
  1
\A1;
  0
MTEXT
  5
152
100
AcDbEntity
  8
DIM
100
AcDbMText
 10
-139.622219
 20
219.300816
 30
0.0
 40
1.0
 41
31.45
 71
     5
 72
     5
  1

  0
MTEXT
  5
153
100
AcDbEntity
  8
DIM
100
AcDbMText
 10
152.964889
 20
272.739531
 30
0.0
 40
4.32
 41
0.0
 71
     6
 72
     1
  1
\A1;
  0
MTEXT
  5
154
100
AcDbEntity
  8
DIM
100
AcDbMText
 10
146.422141
 20
267.278281
 30
0.0
 40
4.32
 41
0.0
 71
     6
 72
     1
  1
\A1;
  0
MTEXT
  5
155
100
AcDbEntity
  8
DIM
100
AcDbMText
 10
-134.029982
 20
232.130785
 30
0.0
 40
1.0
 41
31.45
 71
     5
 72
     5
  1

  0
MTEXT
  5
156
100
AcDbEntity
  8
DIM
100
AcDbMText
 10
158.557127
 20
285.5695
 30
0.0
 40
4.32
 41
0.0
 71
     6
 72
     1
  1
\A1;
  0
MTEXT
  5
157
100
AcDbEntity
  8
DIM
100
AcDbMText
 10
152.014378
 20
280.10825
 30
0.0
 40
4.32
 41
0.0
 71
     6
 72
     1
  1
\A1;
  0
MTEXT
  5
158
100
AcDbEntity
  8
DIM
100
AcDbMText
 10
-74.187034
 20
219.300816
 30
0.0
 40
1.0
 41
31.45
 71
     5
 72
     5
  1

  0
MTEXT
  5
159
100
AcDbEntity
  8
DIM
100
AcDbMText
 10
218.400075
 20
272.739531
 30
0.0
 40
4.32
 41
0.0
 71
     6
 72
     1
  1
\A1;
  0
MTEXT
  5
15A
100
AcDbEntity
  8
DIM
100
AcDbMText
 10
211.857326
 20
267.278281
 30
0.0
 40
4.32
 41
0.0
 71
     6
 72
     1
  1
\A1;
  0
MTEXT
  5
15B
100
AcDbEntity
  8
DIM
100
AcDbMText
 10
-46.371691
 20
238.348633
 30
0.0
 40
1.0
 41
31.45
 71
     5
 72
     5
  1

  0
MTEXT
  5
15C
100
AcDbEntity
  8
DIM
100
AcDbMText
 10
246.215418
 20
291.787347
 30
0.0
 40
4.32
 41
0.0
 71
     6
 72
     1
  1
\A1;
  0
MTEXT
  5
15D
100
AcDbEntity
  8
DIM
100
AcDbMText
 10
239.672669
 20
286.326098
 30
0.0
 40
4.32
 41
0.0
 71
     6
 72
     1
  1
\A1;
  0
MTEXT
  5
15E
100
AcDbEntity
  8
DIM
100
AcDbMText
 10
-132.355474
 20
172.84209
 30
0.0
 40
1.0
 41
31.45
 71
     5
 72
     5
  1

  0
MTEXT
  5
15F
100
AcDbEntity
  8
DIM
100
AcDbMText
 10
160.231635
 20
226.280804
 30
0.0
 40
4.32
 41
0.0
 71
     6
 72
     1
  1
\A1;
  0
MTEXT
  5
160
100
AcDbEntity
  8
DIM
100
AcDbMText
 10
153.688886
 20
220.819555
 30
0.0
 40
4.32
 41
0.0
 71
     6
 72
     1
  1
\A1;
  0
MTEXT
  5
161
100
AcDbEntity
  8
DIM
100
AcDbMText
 10
-126.763236
 20
185.672059
 30
0.0
 40
1.0
 41
31.45
 71
     5
 72
     5
  1

  0
MTEXT
  5
162
100
AcDbEntity
  8
DIM
100
AcDbMText
 10
165.823873
 20
239.110773
 30
0.0
 40
4.32
 41
0.0
 71
     6
 72
     1
  1
\A1;
  0
MTEXT
  5
163
100
AcDbEntity
  8
DIM
100
AcDbMText
 10
159.281124
 20
233.649524
 30
0.0
 40
4.32
 41
0.0
 71
     6
 72
     1
  1
\A1;
  0
MTEXT
  5
164
100
AcDbEntity
  8
DIM
100
AcDbMText
 10
-66.920288
 20
172.84209
 30
0.0
 40
1.0
 41
31.45
 71
     5
 72
     5
  1

  0
MTEXT
  5
165
100
AcDbEntity
  8
DIM
100
AcDbMText
 10
225.66682
 20
226.280804
 30
0.0
 40
4.32
 41
0.0
 71
     6
 72
     1
  1
\A1;
  0
MTEXT
  5
166
100
AcDbEntity
  8
DIM
100
AcDbMText
 10
219.124072
 20
220.819555
 30
0.0
 40
4.32
 41
0.0
 71
     6
 72
     1
  1
\A1;
  0
MTEXT
  5
167
100
AcDbEntity
  8
DIM
100
AcDbMText
 10
-39.104945
 20
191.889906
 30
0.0
 40
1.0
 41
31.45
 71
     5
 72
     5
  1

  0
MTEXT
  5
168
100
AcDbEntity
  8
DIM
100
AcDbMText
 10
253.482164
 20
245.328621
 30
0.0
 40
4.32
 41
0.0
 71
     6
 72
     1
  1
\A1;
  0
MTEXT
  5
169
100
AcDbEntity
  8
DIM
100
AcDbMText
 10
246.939415
 20
239.867372
 30
0.0
 40
4.32
 41
0.0
 71
     6
 72
     1
  1
\A1;
  0
MTEXT
  5
16A
100
AcDbEntity
  8
DIM
100
AcDbMText
 10
-80.314162
 20
89.200367
 30
0.0
 40
1.0
 41
31.45
 71
     5
 72
     5
  1

  0
MTEXT
  5
16B
100
AcDbEntity
  8
DIM
100
AcDbMText
 10
212.272946
 20
142.639082
 30
0.0
 40
4.32
 41
0.0
 71
     6
 72
     1
  1
\A1;
  0
MTEXT
  5
16C
100
AcDbEntity
  8
DIM
100
AcDbMText
 10
205.730198
 20
137.177832
 30
0.0
 40
4.32
 41
0.0
 71
     6
 72
     1
  1
\A1;
  0
MTEXT
  5
16D
100
AcDbEntity
  8
DIM
100
AcDbMText
 10
-20.471214
 20
76.370398
 30
0.0
 40
1.0
 41
31.45
 71
     5
 72
     5
  1

  0
MTEXT
  5
16E
100
AcDbEntity
  8
DIM
100
AcDbMText
 10
272.115894
 20
129.809113
 30
0.0
 40
4.32
 41
0.0
 71
     6
 72
     1
  1
\A1;
  0
MTEXT
  5
16F
100
AcDbEntity
  8
DIM
100
AcDbMText
 10
265.573146
 20
124.347863
 30
0.0
 40
4.32
 41
0.0
 71
     6
 72
     1
  1
\A1;
  0
MTEXT
  5
170
100
AcDbEntity
  8
DIM
100
AcDbMText
 10
7.344129
 20
95.418215
 30
0.0
 40
1.0
 41
31.45
 71
     5
 72
     5
  1

  0
MTEXT
  5
171
100
AcDbEntity
  8
DIM
100
AcDbMText
 10
299.931237
 20
148.856929
 30
0.0
 40
4.32
 41
0.0
 71
     6
 72
     1
  1
\A1;
  0
MTEXT
  5
172
100
AcDbEntity
  8
DIM
100
AcDbMText
 10
293.388489
 20
143.39568
 30
0.0
 40
4.32
 41
0.0
 71
     6
 72
     1
  1
\A1;
  0
MTEXT
  5
173
100
AcDbEntity
  8
DIM
100
AcDbMText
 10
29.616116
 20
215.1179
 30
0.0
 40
1.0
 41
31.45
 71
     5
 72
     5
  1

 11
0.0
 21
-1.0
 31
0.0
  0
MTEXT
  5
174
100
AcDbEntity
  8
DIM
100
AcDbMText
 10
83.054831
 20
-77.469209
 30
0.0
 40
4.32
 41
0.0
 71
     6
 72
     1
  1
\A1;
 11
0.0
 21
-1.0
 31
0.0
  0
MTEXT
  5
175
100
AcDbEntity
  8
DIM
100
AcDbMText
 10
77.593582
 20
-70.92646
 30
0.0
 40
4.32
 41
0.0
 71
     6
 72
     1
  1
\A1;
 11
0.0
 21
-1.0
 31
0.0
  0
MTEXT
  5
176
100
AcDbEntity
  8
DIM
100
AcDbMText
 10
-259.302733
 20
319.058753
 30
0.0
 40
1.0
 41
31.45
 71
     5
 72
     5
  1

  0
MTEXT
  5
177
100
AcDbEntity
  8
DIM
100
AcDbMText
 10
33.284376
 20
372.497467
 30
0.0
 40
4.32
 41
0.0
 71
     6
 72
     1
  1
\A1;
  0
MTEXT
  5
178
100
AcDbEntity
  8
DIM
100
AcDbMText
 10
26.741627
 20
367.036218
 30
0.0
 40
4.32
 41
0.0
 71
     6
 72
     1
  1
\A1;
  0
MTEXT
  5
179
100
AcDbEntity
  8
DIM
100
AcDbMText
 10
60.499226
 20
-22.437975
 30
0.0
 40
1.8
 41
0.0
 71
     6
 72
     1
  1
\A1;
  0
HATCH
  5
17A
100
AcDbEntity
  8
PROFILE
100
AcDbHatch
 10
0.0
 20
0.0
 30
0.0
210
0.0
220
0.0
230
1.0
  2
SOLID
 70
     1
 71
     0
 91
      137
 92
       48
 93
        1
 72
     2
 10
-35.507666
 20
127.53409
 40
0.4
 50
214.649489
 51
475.722368
 73
     1
 97
        0
 92
       48
 93
        1
 72
     1
 10
-35.609939
 20
127.147386
 11
-36.107514
 21
127.123312
 97
        0
 92
       48
 93
        1
 72
     2
 10
-35.507666
 20
127.53409
 40
0.4
 50
154.404555
 51
175.967301
 73
     1
 97
        0
 92
       48
 93
        1
 72
     2
 10
-36.101817
 20
127.193253
 40
0.070172
 50
85.343003
 51
265.343003
 73
     1
 97
        0
 92
       48
 93
        1
 72
     1
 10
-36.096119
 20
127.263193
 11
-35.836724
 21
127.306669
 97
        0
 92
       48
 93
        1
 72
     1
 10
-35.885257
 20
128.060482
 11
-35.68127
 21
127.894454
 97
        0
 92
       48
 93
        1
 72
     1
 10
-35.906676
 20
127.562221
 11
-36.622239
 21
127.62199
 97
        0
 92
       48
 93
        1
 72
     1
 10
-35.836724
 20
127.306669
 11
-36.687309
 21
127.375957
 97
        0
 92
       48
 93
        1
 72
     1
 10
-35.868413
 20
127.706896
 11
-36.519966
 21
128.008694
 97
        0
 92
       48
 93
        1
 72
     1
 10
-35.68127
 20
127.894454
 11
-36.454897
 21
128.254727
 97
        0
 92
       48
 93
        1
 72
     1
 10
-35.405393
 20
127.920795
 11
-35.826009
 21
128.187706
 97
        0
 92
       32
 93
        1
 72
     2
 10
-35.855633
 20
128.124094
 40
0.070172
 50
65.028854
 51
245.028854
 73
     1
 97
        0
 92
       16
 93
        1
 72
     2
 10
-34.879272
 20
127.367896
 40
0.25
 50
0.0
 51
360.0
 73
     1
 97
        0
 92
       48
 93
        1
 72
     1
 10
-36.519966
 20
128.008694
 11
-36.454897
 21
128.254727
 97
        0
 92
       48
 93
        1
 72
     1
 10
-36.687309
 20
127.375957
 11
-36.622239
 21
127.62199
 97
        0
 92
       16
 93
        1
 72
     2
 10
-102.602098
 20
127.676437
 40
7.5
 50
0.0
 51
360.0
 73
     1
 97
        0
 92
       32
 93
        1
 72
     2
 10
-62.802098
 20
139.420385
 40
2.25
 50
310.813198
 51
437.160412
 73
     1
 97
        0
 92
       48
 93
        1
 72
     2
 10
-62.802098
 20
139.420385
 40
2.25
 50
102.839588
 51
229.186802
 73
     1
 97
        0
 92
       32
 93
        1
 72
     1
 10
-58.302098
 20
131.767484
 11
-58.302098
 21
133.767484
 97
        0
 92
       32
 93
        1
 72
     1
 10
-58.302098
 20
131.767484
 11
-57.605811
 21
133.407673
 97
        0
 92
       48
 93
        1
 72
     1
 10
-56.184981
 20
130.047494
 11
-57.605811
 21
133.407673
 97
        0
 92
       32
 93
        1
 72
     1
 10
-67.302098
 20
131.767484
 11
-67.998385
 21
133.407673
 97
        0
 92
       32
 93
        1
 72
     1
 10
-67.302098
 20
131.767484
 11
-67.302098
 21
133.767484
 97
        0
 92
       48
 93
        1
 72
     1
 10
-69.419215
 20
130.047494
 11
-67.998385
 21
133.407673
 97
        0
 92
       32
 93
        1
 72
     1
 10
-67.302098
 20
131.767484
 11
-58.302098
 21
131.767484
 97
        0
 92
       48
 93
        1
 72
     1
 10
-69.772768
 20
130.047494
 11
-69.076904
 21
130.047494
 97
        0
 92
       48
 93
        1
 72
     1
 10
-69.772768
 20
130.047494
 11
-69.772768
 21
129.908488
 97
        0
 92
       48
 93
        1
 72
     1
 10
-69.076904
 20
130.047494
 11
-69.076904
 21
129.908488
 97
        0
 92
       48
 93
        1
 72
     1
 10
-69.419215
 20
130.047494
 11
-69.419215
 21
129.908488
 97
        0
 92
       48
 93
        1
 72
     1
 10
-67.979337
 20
131.514093
 11
-67.392411
 21
131.688688
 97
        0
 92
       32
 93
        1
 72
     1
 10
-68.009056
 20
131.609091
 11
-67.979337
 21
131.514093
 97
        0
 92
       32
 93
        1
 72
     1
 10
-67.302098
 20
131.767484
 11
-67.40727
 21
131.736186
 97
        0
 92
       32
 93
        1
 72
     1
 10
-68.009056
 20
131.609091
 11
-67.422129
 21
131.783685
 97
        0
 92
       32
 93
        1
 72
     1
 10
-67.422129
 20
131.783685
 11
-67.392411
 21
131.688688
 97
        0
 92
       48
 93
        1
 72
     1
 10
-67.994176
 20
131.561528
 11
-68.891992
 21
131.294346
 97
        0
 92
       48
 93
        1
 72
     1
 10
-56.184981
 20
130.047494
 11
-56.184981
 21
129.908488
 97
        0
 92
       48
 93
        1
 72
     1
 10
-55.831428
 20
130.047494
 11
-55.831428
 21
129.908488
 97
        0
 92
       48
 93
        1
 72
     1
 10
-56.527292
 20
130.047494
 11
-56.527292
 21
129.908488
 97
        0
 92
       48
 93
        1
 72
     1
 10
-55.831428
 20
130.047494
 11
-56.527292
 21
130.047494
 97
        0
 92
       32
 93
        1
 72
     1
 10
-58.182067
 20
131.783685
 11
-58.211786
 21
131.688688
 97
        0
 92
       32
 93
        1
 72
     1
 10
-57.595141
 20
131.609091
 11
-58.182067
 21
131.783685
 97
        0
 92
       32
 93
        1
 72
     1
 10
-58.302098
 20
131.767484
 11
-58.196926
 21
131.736186
 97
        0
 92
       48
 93
        1
 72
     1
 10
-57.61002
 20
131.561528
 11
-56.712205
 21
131.294346
 97
        0
 92
       32
 93
        1
 72
     1
 10
-57.595141
 20
131.609091
 11
-57.62486
 21
131.514093
 97
        0
 92
       48
 93
        1
 72
     1
 10
-57.62486
 20
131.514093
 11
-58.211786
 21
131.688688
 97
        0
 92
        0
 93
        4
 72
     1
 10
-64.802098
 20
137.717484
 11
-64.802098
 21
135.717484
 72
     1
 10
-64.802098
 20
135.717484
 11
-60.802098
 21
135.717484
 72
     1
 10
-60.802098
 20
135.717484
 11
-60.802098
 21
137.717484
 72
     1
 10
-60.802098
 20
137.717484
 11
-64.802098
 21
137.717484
 97
        0
 92
        0
 93
        4
 72
     2
 10
-66.052098
 20
134.692484
 40
0.8
 50
89.999995
 51
270.000005
 73
     0
 72
     1
 10
-66.052098
 20
135.492484
 11
-59.552098
 21
135.492484
 72
     2
 10
-59.552098
 20
134.692484
 40
0.8
 50
270.000005
 51
449.999995
 73
     0
 72
     1
 10
-59.552098
 20
133.892484
 11
-66.052098
 21
133.892484
 97
        0
 92
       48
 93
        1
 72
     1
 10
-67.302098
 20
133.767484
 11
-58.302098
 21
133.767484
 97
        0
 92
       48
 93
        1
 72
     1
 10
-67.302098
 20
133.667484
 11
-58.302098
 21
133.667484
 97
        0
 92
        0
 93
        1
 72
     2
 10
-67.998385
 20
133.407673
 40
0.1
 50
0.0
 51
360.0
 73
     1
 97
        0
 92
       48
 93
        1
 72
     1
 10
-67.302098
 20
133.767484
 11
-67.998385
 21
133.407673
 97
        0
 92
        0
 93
        4
 72
     2
 10
-60.212098
 20
134.692484
 40
0.8
 50
269.999995
 51
450.000005
 73
     1
 72
     1
 10
-60.212098
 20
135.492484
 11
-65.392098
 21
135.492484
 72
     2
 10
-65.392098
 20
134.692484
 40
0.8
 50
90.000005
 51
269.999995
 73
     1
 72
     1
 10
-65.392098
 20
133.892484
 11
-60.212098
 21
133.892484
 97
        0
 92
       32
 93
        1
 72
     1
 10
-63.552098
 20
133.892484
 11
-63.552098
 21
133.767484
 97
        0
 92
       32
 93
        1
 72
     1
 10
-65.302098
 20
133.892484
 11
-65.302098
 21
133.767484
 97
        0
 92
       32
 93
        1
 72
     1
 10
-60.302098
 20
133.892484
 11
-60.302098
 21
133.767484
 97
        0
 92
       32
 93
        1
 72
     1
 10
-62.052098
 20
133.892484
 11
-62.052098
 21
133.767484
 97
        0
 92
        0
 93
        1
 72
     2
 10
-57.605811
 20
133.407673
 40
0.1
 50
0.0
 51
360.0
 73
     1
 97
        0
 92
       48
 93
        1
 72
     1
 10
-58.302098
 20
133.767484
 11
-57.605811
 21
133.407673
 97
        0
 92
       32
 93
        1
 72
     1
 10
-60.302098
 20
135.717484
 11
-60.302098
 21
135.492484
 97
        0
 92
       32
 93
        1
 72
     1
 10
-62.052098
 20
135.717484
 11
-62.052098
 21
135.492484
 97
        0
 92
       32
 93
        1
 72
     1
 10
-63.552098
 20
135.717484
 11
-63.552098
 21
135.492484
 97
        0
 92
       32
 93
        1
 72
     1
 10
-65.302098
 20
135.717484
 11
-65.302098
 21
135.492484
 97
        0
 92
       32
 93
        1
 72
     1
 10
-63.552098
 20
135.617484
 11
-65.302098
 21
135.617484
 97
        0
 92
       32
 93
        1
 72
     1
 10
-63.552098
 20
135.717484
 11
-65.302098
 21
135.717484
 97
        0
 92
       32
 93
        1
 72
     1
 10
-62.052098
 20
135.717484
 11
-60.302098
 21
135.717484
 97
        0
 92
       32
 93
        1
 72
     1
 10
-62.052098
 20
135.617484
 11
-60.302098
 21
135.617484
 97
        0
 92
       48
 93
        1
 72
     1
 10
-63.302098
 20
141.864126
 11
-62.302098
 21
141.864126
 97
        0
 92
       48
 93
        1
 72
     1
 10
-63.302098
 20
141.614126
 11
-62.302098
 21
141.614126
 97
        0
 92
       32
 93
        1
 72
     1
 10
-63.302098
 20
141.614126
 11
-63.302098
 21
141.864126
 97
        0
 92
       32
 93
        1
 72
     1
 10
-62.302098
 20
141.864126
 11
-62.302098
 21
141.614126
 97
        0
 92
       48
 93
        1
 72
     2
 10
-62.802098
 20
115.93249
 40
2.25
 50
282.839588
 51
409.186802
 73
     1
 97
        0
 92
       32
 93
        1
 72
     2
 10
-62.802098
 20
115.93249
 40
2.25
 50
130.813198
 51
257.160412
 73
     1
 97
        0
 92
       32
 93
        1
 72
     1
 10
-58.302098
 20
123.58539
 11
-58.302098
 21
121.58539
 97
        0
 92
       32
 93
        1
 72
     1
 10
-58.302098
 20
123.58539
 11
-57.605811
 21
121.945202
 97
        0
 92
       48
 93
        1
 72
     1
 10
-56.184981
 20
125.30538
 11
-57.605811
 21
121.945202
 97
        0
 92
       32
 93
        1
 72
     1
 10
-67.302098
 20
123.58539
 11
-67.998385
 21
121.945202
 97
        0
 92
       32
 93
        1
 72
     1
 10
-67.302098
 20
123.58539
 11
-67.302098
 21
121.58539
 97
        0
 92
       48
 93
        1
 72
     1
 10
-69.419215
 20
125.30538
 11
-67.998385
 21
121.945202
 97
        0
 92
       32
 93
        1
 72
     1
 10
-67.302098
 20
123.58539
 11
-58.302098
 21
123.58539
 97
        0
 92
       48
 93
        1
 72
     1
 10
-69.772768
 20
125.30538
 11
-69.076904
 21
125.30538
 97
        0
 92
       48
 93
        1
 72
     1
 10
-69.772768
 20
125.30538
 11
-69.772768
 21
125.444387
 97
        0
 92
       48
 93
        1
 72
     1
 10
-69.076904
 20
125.30538
 11
-69.076904
 21
125.444387
 97
        0
 92
       48
 93
        1
 72
     1
 10
-69.419215
 20
125.30538
 11
-69.419215
 21
125.444387
 97
        0
 92
       48
 93
        1
 72
     1
 10
-67.979337
 20
123.838781
 11
-67.392411
 21
123.664187
 97
        0
 92
       32
 93
        1
 72
     1
 10
-68.009056
 20
123.743784
 11
-67.979337
 21
123.838781
 97
        0
 92
       32
 93
        1
 72
     1
 10
-67.302098
 20
123.58539
 11
-67.40727
 21
123.616688
 97
        0
 92
       32
 93
        1
 72
     1
 10
-68.009056
 20
123.743784
 11
-67.422129
 21
123.56919
 97
        0
 92
       32
 93
        1
 72
     1
 10
-67.422129
 20
123.56919
 11
-67.392411
 21
123.664187
 97
        0
 92
       48
 93
        1
 72
     1
 10
-67.994176
 20
123.791347
 11
-68.891992
 21
124.058529
 97
        0
 92
       48
 93
        1
 72
     1
 10
-56.184981
 20
125.30538
 11
-56.184981
 21
125.444387
 97
        0
 92
       48
 93
        1
 72
     1
 10
-55.831428
 20
125.30538
 11
-55.831428
 21
125.444387
 97
        0
 92
       48
 93
        1
 72
     1
 10
-56.527292
 20
125.30538
 11
-56.527292
 21
125.444387
 97
        0
 92
       48
 93
        1
 72
     1
 10
-55.831428
 20
125.30538
 11
-56.527292
 21
125.30538
 97
        0
 92
       32
 93
        1
 72
     1
 10
-58.182067
 20
123.56919
 11
-58.211786
 21
123.664187
 97
        0
 92
       32
 93
        1
 72
     1
 10
-57.595141
 20
123.743784
 11
-58.182067
 21
123.56919
 97
        0
 92
       32
 93
        1
 72
     1
 10
-58.302098
 20
123.58539
 11
-58.196926
 21
123.616688
 97
        0
 92
       48
 93
        1
 72
     1
 10
-57.61002
 20
123.791347
 11
-56.712205
 21
124.058529
 97
        0
 92
       32
 93
        1
 72
     1
 10
-57.595141
 20
123.743784
 11
-57.62486
 21
123.838781
 97
        0
 92
       48
 93
        1
 72
     1
 10
-57.62486
 20
123.838781
 11
-58.211786
 21
123.664187
 97
        0
 92
        0
 93
        4
 72
     1
 10
-64.802098
 20
117.63539
 11
-64.802098
 21
119.63539
 72
     1
 10
-64.802098
 20
119.63539
 11
-60.802098
 21
119.63539
 72
     1
 10
-60.802098
 20
119.63539
 11
-60.802098
 21
117.63539
 72
     1
 10
-60.802098
 20
117.63539
 11
-64.802098
 21
117.63539
 97
        0
 92
        0
 93
        4
 72
     2
 10
-66.052098
 20
120.66039
 40
0.8
 50
89.999995
 51
270.000005
 73
     1
 72
     1
 10
-66.052098
 20
119.86039
 11
-59.552098
 21
119.86039
 72
     2
 10
-59.552098
 20
120.66039
 40
0.8
 50
270.000005
 51
449.999995
 73
     1
 72
     1
 10
-59.552098
 20
121.46039
 11
-66.052098
 21
121.46039
 97
        0
 92
       32
 93
        1
 72
     1
 10
-67.302098
 20
121.58539
 11
-58.302098
 21
121.58539
 97
        0
 92
       32
 93
        1
 72
     1
 10
-67.302098
 20
121.68539
 11
-58.302098
 21
121.68539
 97
        0
 92
        0
 93
        1
 72
     2
 10
-67.998385
 20
121.945202
 40
0.1
 50
0.0
 51
360.0
 73
     1
 97
        0
 92
       32
 93
        1
 72
     1
 10
-67.302098
 20
121.58539
 11
-67.998385
 21
121.945202
 97
        0
 92
        0
 93
        4
 72
     2
 10
-60.212098
 20
120.66039
 40
0.8
 50
269.999995
 51
450.000005
 73
     0
 72
     1
 10
-60.212098
 20
119.86039
 11
-65.392098
 21
119.86039
 72
     2
 10
-65.392098
 20
120.66039
 40
0.8
 50
90.000005
 51
269.999995
 73
     0
 72
     1
 10
-65.392098
 20
121.46039
 11
-60.212098
 21
121.46039
 97
        0
 92
       32
 93
        1
 72
     1
 10
-63.552098
 20
121.46039
 11
-63.552098
 21
121.58539
 97
        0
 92
       32
 93
        1
 72
     1
 10
-65.302098
 20
121.46039
 11
-65.302098
 21
121.58539
 97
        0
 92
       32
 93
        1
 72
     1
 10
-60.302098
 20
121.46039
 11
-60.302098
 21
121.58539
 97
        0
 92
       32
 93
        1
 72
     1
 10
-62.052098
 20
121.46039
 11
-62.052098
 21
121.58539
 97
        0
 92
        0
 93
        1
 72
     2
 10
-57.605811
 20
121.945202
 40
0.1
 50
0.0
 51
360.0
 73
     1
 97
        0
 92
       32
 93
        1
 72
     1
 10
-58.302098
 20
121.58539
 11
-57.605811
 21
121.945202
 97
        0
 92
       32
 93
        1
 72
     1
 10
-60.302098
 20
119.63539
 11
-60.302098
 21
119.86039
 97
        0
 92
       32
 93
        1
 72
     1
 10
-62.052098
 20
119.63539
 11
-62.052098
 21
119.86039
 97
        0
 92
       32
 93
        1
 72
     1
 10
-63.552098
 20
119.63539
 11
-63.552098
 21
119.86039
 97
        0
 92
       32
 93
        1
 72
     1
 10
-65.302098
 20
119.63539
 11
-65.302098
 21
119.86039
 97
        0
 92
       32
 93
        1
 72
     1
 10
-63.552098
 20
119.73539
 11
-65.302098
 21
119.73539
 97
        0
 92
       32
 93
        1
 72
     1
 10
-63.552098
 20
119.63539
 11
-65.302098
 21
119.63539
 97
        0
 92
       32
 93
        1
 72
     1
 10
-62.052098
 20
119.63539
 11
-60.302098
 21
119.63539
 97
        0
 92
       32
 93
        1
 72
     1
 10
-62.052098
 20
119.73539
 11
-60.302098
 21
119.73539
 97
        0
 92
       48
 93
        1
 72
     1
 10
-63.302098
 20
113.488749
 11
-62.302098
 21
113.488749
 97
        0
 92
       48
 93
        1
 72
     1
 10
-63.302098
 20
113.738749
 11
-62.302098
 21
113.738749
 97
        0
 92
       32
 93
        1
 72
     1
 10
-63.302098
 20
113.738749
 11
-63.302098
 21
113.488749
 97
        0
 92
       32
 93
        1
 72
     1
 10
-62.302098
 20
113.488749
 11
-62.302098
 21
113.738749
 97
        0
 92
        1
 93
        4
 72
     1
 10
-154.422388
 20
165.438571
 11
5.083508
 21
165.438571
 72
     1
 10
5.083508
 20
165.438571
 11
5.083508
 21
88.987915
 72
     1
 10
5.083508
 20
88.987915
 11
-154.422388
 21
88.987915
 72
     1
 10
-154.422388
 20
88.987915
 11
-154.422388
 21
165.438571
 97
        0
 92
       16
 93
        2
 72
     1
 10
-7.75
 20
141.099831
 11
-7.75
 21
114.253044
 72
     2
 10
-15.5
 20
127.676437
 40
15.5
 50
300.0
 51
420.0
 73
     1
 97
        0
 92
        0
 93
        4
 72
     1
 10
-30.75
 20
129.797758
 11
-31.35
 21
129.797758
 72
     1
 10
-31.35
 20
129.797758
 11
-31.35
 21
128.807808
 72
     1
 10
-31.35
 20
128.807808
 11
-30.75
 21
128.807808
 72
     1
 10
-30.75
 20
128.807808
 11
-30.75
 21
129.797758
 97
        0
 92
        0
 93
        4
 72
     1
 10
-30.75
 20
126.792554
 11
-32.25
 21
126.792554
 72
     1
 10
-32.25
 20
126.792554
 11
-32.25
 21
125.024787
 72
     1
 10
-32.25
 20
125.024787
 11
-30.75
 21
125.024787
 72
     1
 10
-30.75
 20
125.024787
 11
-30.75
 21
126.792554
 97
        0
 92
        0
 93
        4
 72
     1
 10
-45.0
 20
131.676437
 11
-49.0
 21
131.676437
 72
     1
 10
-49.0
 20
131.676437
 11
-49.0
 21
123.676437
 72
     1
 10
-49.0
 20
123.676437
 11
-45.0
 21
123.676437
 72
     1
 10
-45.0
 20
123.676437
 11
-45.0
 21
131.676437
 97
        0
 92
       16
 93
        6
 72
     1
 10
-82.455924
 20
146.675137
 11
-82.051556
 21
146.381051
 72
     1
 10
-82.051556
 20
146.381051
 11
-82.051556
 21
108.971823
 72
     1
 10
-82.051556
 20
108.971823
 11
-82.455924
 21
108.677737
 72
     1
 10
-82.455924
 20
108.677737
 11
-89.693524
 21
118.629437
 72
     1
 10
-89.693524
 20
118.629437
 11
-89.693524
 21
136.723437
 72
     1
 10
-89.693524
 20
136.723437
 11
-82.455924
 21
146.675137
 97
        0
 92
        0
 93
        4
 72
     1
 10
-113.102098
 20
134.006564
 11
-119.3
 21
134.006564
 72
     1
 10
-119.3
 20
134.006564
 11
-119.3
 21
130.006564
 72
     1
 10
-119.3
 20
130.006564
 11
-113.102098
 21
130.006564
 72
     1
 10
-113.102098
 20
130.006564
 11
-113.102098
 21
134.006564
 97
        0
 92
        0
 93
        4
 72
     1
 10
-113.102098
 20
121.34631
 11
-113.102098
 21
125.34631
 72
     1
 10
-113.102098
 20
125.34631
 11
-119.3
 21
125.34631
 72
     1
 10
-119.3
 20
125.34631
 11
-119.3
 21
121.34631
 72
     1
 10
-119.3
 20
121.34631
 11
-113.102098
 21
121.34631
 97
        0
 92
       16
 93
        4
 72
     1
 10
-113.102098
 20
129.676437
 11
-113.102098
 21
125.676437
 72
     1
 10
-113.102098
 20
125.676437
 11
-119.3
 21
125.676437
 72
     1
 10
-119.3
 20
125.676437
 11
-119.3
 21
129.676437
 72
     1
 10
-119.3
 20
129.676437
 11
-113.102098
 21
129.676437
 97
        0
 92
       16
 93
        6
 72
     1
 10
-118.993054
 20
135.568735
 11
-102.621804
 21
135.568735
 72
     1
 10
-102.621804
 20
135.568735
 11
-111.132831
 21
147.696307
 72
     1
 10
-111.132831
 20
147.696307
 11
-133.396704
 21
162.126155
 72
     1
 10
-133.396704
 20
162.126155
 11
-149.767954
 21
162.126155
 72
     1
 10
-149.767954
 20
162.126155
 11
-141.256928
 21
149.998583
 72
     1
 10
-141.256928
 20
149.998583
 11
-118.993054
 21
135.568735
 97
        0
 92
       16
 93
        6
 72
     1
 10
-118.993054
 20
119.78414
 11
-102.621804
 21
119.78414
 72
     1
 10
-102.621804
 20
119.78414
 11
-111.132831
 21
107.656568
 72
     1
 10
-111.132831
 20
107.656568
 11
-133.396704
 21
93.22672
 72
     1
 10
-133.396704
 20
93.22672
 11
-149.767954
 21
93.22672
 72
     1
 10
-149.767954
 20
93.22672
 11
-141.256928
 21
105.354292
 72
     1
 10
-141.256928
 20
105.354292
 11
-118.993054
 21
119.78414
 97
        0
 92
        0
 93
        6
 72
     1
 10
-118.993054
 20
119.78414
 11
-102.621804
 21
119.78414
 72
     1
 10
-102.621804
 20
119.78414
 11
-111.132831
 21
107.656568
 72
     1
 10
-111.132831
 20
107.656568
 11
-133.396704
 21
93.22672
 72
     1
 10
-133.396704
 20
93.22672
 11
-149.767954
 21
93.22672
 72
     1
 10
-149.767954
 20
93.22672
 11
-141.256928
 21
105.354292
 72
     1
 10
-141.256928
 20
105.354292
 11
-118.993054
 21
119.78414
 97
        0
 92
       48
 93
       68
 72
     2
 10
-15.5
 20
127.676437
 40
15.0
 50
58.891077
 51
156.839259
 73
     1
 72
     1
 10
-30.46663
 20
128.676437
 11
-30.46663
 21
126.676437
 72
     1
 10
-45.0
 20
126.810412
 11
-36.880391
 21
126.810412
 72
     1
 10
-45.0
 20
129.408488
 11
-36.780391
 21
129.408488
 72
     1
 10
-102.602098
 20
135.176437
 11
-102.621804
 21
135.568735
 72
     1
 10
-102.602098
 20
120.176437
 11
-102.621804
 21
119.78414
 72
     1
 10
-118.993054
 20
119.78414
 11
-118.993054
 21
121.34631
 72
     1
 10
-118.993054
 20
135.568735
 11
-118.993054
 21
134.006564
 72
     1
 10
-29.542851
 20
133.827893
 11
-30.249958
 21
133.120787
 72
     1
 10
-31.664172
 20
135.949214
 11
-32.371278
 21
135.242107
 72
     1
 10
-31.664172
 20
135.949214
 11
-29.291076
 21
133.576118
 72
     1
 10
-30.75
 20
128.676437
 11
-30.75
 21
130.288766
 72
     1
 10
-30.75
 20
129.232072
 11
-31.35
 21
129.232072
 72
     1
 10
-30.46663
 20
126.676437
 11
-30.75
 21
126.676437
 72
     1
 10
-30.46663
 20
128.676437
 11
-31.598871
 21
128.676437
 72
     1
 10
-31.598871
 20
128.676437
 11
-31.598871
 21
126.792554
 72
     1
 10
-32.25
 20
128.560321
 11
-32.25
 21
129.808634
 72
     1
 10
-31.35
 20
129.267428
 11
-32.25
 21
129.267428
 72
     1
 10
-31.598871
 20
128.560321
 11
-32.25
 21
128.560321
 72
     1
 10
-30.75
 20
126.085447
 11
-32.25
 21
126.085447
 72
     1
 10
-32.371278
 20
135.242107
 11
-29.684405
 21
132.555234
 72
     2
 10
-15.5
 20
127.676437
 40
15.0
 50
156.839259
 51
176.177446
 73
     1
 72
     1
 10
-36.880391
 20
125.944387
 11
-36.780391
 21
125.944387
 72
     1
 10
-36.780391
 20
129.408488
 11
-36.780391
 21
125.944387
 72
     1
 10
-36.880391
 20
129.408488
 11
-36.880391
 21
125.944387
 72
     1
 10
-45.0
 20
126.542463
 11
-49.0
 21
126.542463
 72
     1
 10
-45.0
 20
127.542463
 11
-49.0
 21
127.542463
 72
     1
 10
-45.0
 20
128.810412
 11
-49.0
 21
128.810412
 72
     1
 10
-45.0
 20
127.810412
 11
-49.0
 21
127.810412
 72
     1
 10
-45.0
 20
130.542463
 11
-49.0
 21
130.542463
 72
     1
 10
-45.0
 20
124.810412
 11
-49.0
 21
124.810412
 72
     1
 10
-57.897677
 20
129.408488
 11
-57.320327
 21
129.908488
 72
     1
 10
-55.049636
 20
129.908488
 11
-57.320327
 21
129.908488
 72
     1
 10
-54.472286
 20
129.408488
 11
-55.049636
 21
129.908488
 72
     1
 10
-55.049636
 20
125.444387
 11
-57.320327
 21
125.444387
 72
     1
 10
-53.472286
 20
126.810412
 11
-55.049636
 21
125.444387
 72
     1
 10
-58.897677
 20
126.810412
 11
-57.320327
 21
125.444387
 72
     1
 10
-29.98193
 20
131.584596
 11
-36.780391
 21
129.408488
 72
     1
 10
-29.98193
 20
123.768279
 11
-36.780391
 21
125.944387
 72
     1
 10
-30.241032
 20
130.451681
 11
-36.780391
 21
128.358509
 72
     1
 10
-32.25
 20
125.544241
 11
-36.780391
 21
126.994366
 72
     2
 10
-15.5
 20
127.676437
 40
15.0
 50
183.822554
 51
301.108923
 73
     1
 72
     1
 10
-67.70652
 20
129.408488
 11
-68.28387
 21
129.908488
 72
     1
 10
-71.13191
 20
129.408488
 11
-70.55456
 21
129.908488
 72
     1
 10
-70.55456
 20
129.908488
 11
-68.28387
 21
129.908488
 72
     1
 10
-70.55456
 20
125.444387
 11
-68.28387
 21
125.444387
 72
     1
 10
-72.13191
 20
126.810412
 11
-70.55456
 21
125.444387
 72
     1
 10
-66.70652
 20
126.810412
 11
-68.28387
 21
125.444387
 72
     1
 10
-89.693524
 20
129.408488
 11
-89.693524
 21
125.944387
 72
     2
 10
-83.029574
 20
130.92445
 40
5.13
 50
280.990527
 51
439.009473
 73
     1
 72
     2
 10
-83.029574
 20
121.180412
 40
5.13
 50
280.990527
 51
431.75223
 73
     1
 72
     1
 10
-121.8
 20
134.006564
 11
-119.3
 21
132.97103
 72
     1
 10
-121.8
 20
130.006564
 11
-119.3
 21
131.042098
 72
     1
 10
-121.8
 20
129.676437
 11
-119.3
 21
128.640903
 72
     1
 10
-121.8
 20
125.34631
 11
-121.8
 21
121.34631
 72
     1
 10
-121.8
 20
125.34631
 11
-119.3
 21
124.310776
 72
     1
 10
-121.8
 20
121.34631
 11
-119.3
 21
122.381844
 72
     1
 10
-121.8
 20
125.676437
 11
-119.3
 21
126.711971
 72
     1
 10
-121.8
 20
125.676437
 11
-121.8
 21
129.676437
 72
     1
 10
-121.8
 20
130.006564
 11
-121.8
 21
134.006564
 72
     1
 10
-113.102098
 20
134.006564
 11
-109.02515
 21
131.548698
 72
     1
 10
-113.102098
 20
121.34631
 11
-109.02515
 21
123.804177
 72
     1
 10
-95.638805
 20
124.890302
 11
-89.693524
 21
126.944387
 72
     1
 10
-96.257809
 20
123.676437
 11
-89.693524
 21
125.944387
 72
     1
 10
-95.638805
 20
130.462572
 11
-89.693524
 21
128.408488
 72
     1
 10
-96.257809
 20
131.676437
 11
-89.693524
 21
129.408488
 72
     1
 10
-78.12868
 20
129.408488
 11
-49.0
 21
129.408488
 72
     1
 10
-79.965004
 20
126.810412
 11
-49.0
 21
126.810412
 97
        0
 75
     0
 76
     1
 98
        0
  0
MTEXT
  5
17B
100
AcDbEntity
  8
DIM
100
AcDbMText
 10
-227.477522
 20
63.864749
 30
0.0
 40
1.0
 41
31.45
 71
     5
 72
     5
  1

  0
MTEXT
  5
17C
100
AcDbEntity
  8
DIM
100
AcDbMText
 10
65.109586
 20
117.303463
 30
0.0
 40
4.32
 41
0.0
 71
     6
 72
     1
  1
\A1;
  0
MTEXT
  5
17D
100
AcDbEntity
  8
DIM
100
AcDbMText
 10
58.566838
 20
111.842214
 30
0.0
 40
4.32
 41
0.0
 71
     6
 72
     1
  1
\A1;
  0
ENDSEC
  0
SECTION
  2
OBJECTS
  0
DICTIONARY
  5
1A
100
AcDbDictionary
  3
ACAD_GROUP
350
18
  3
ACAD_MLINESTYLE
350
19
  0
DICTIONARY
  5
18
102
{ACAD_REACTORS
330
1A
102
}
100
AcDbDictionary
  0
DICTIONARY
  5
19
102
{ACAD_REACTORS
330
1A
102
}
100
AcDbDictionary
  3
STANDARD
350
1C
  0
MLINESTYLE
  5
1C
102
{ACAD_REACTORS
330
19
102
}
100
AcDbMlineStyle
  2
STANDARD
 70
     0
  3

 62
     0
 51
90.0
 52
90.0
 71
     2
 49
0.5
 62
   256
  6
BYLAYER
 49
-0.5
 62
   256
  6
BYLAYER
  0
ENDSEC
  0
EOF
