  0
SECTION
  2
HEADER
  9
$ACADVER
  1
AC1014
  9
$ACADMAINTVER
 70
     0
  9
$DWGCODEPAGE
  3
ANSI_1252
  9
$INSBASE
 10
0.0
 20
0.0
 30
0.0
  9
$EXTMIN
 10
-0.044524
 20
-34.578266
 30
0.0
  9
$EXTMAX
 10
140.87614
 20
34.583925
 30
0.0
  9
$LIMMIN
 10
0.0
 20
0.0
  9
$LIMMAX
 10
12.0
 20
9.0
  9
$ORTHOMODE
 70
     1
  9
$REGENMODE
 70
     1
  9
$FILLMODE
 70
     1
  9
$QTEXTMODE
 70
     0
  9
$MIRRTEXT
 70
     1
  9
$DRAGMODE
 70
     2
  9
$LTSCALE
 40
2.0
  9
$OSMODE
 70
    59
  9
$ATTMODE
 70
     1
  9
$TEXTSIZE
 40
2.0
  9
$TRACEWID
 40
0.05
  9
$TEXTSTYLE
  7
STANDARD
  9
$CLAYER
  8
0
  9
$CELTYPE
  6
BYLAYER
  9
$CECOLOR
 62
   256
  9
$CELTSCALE
 40
1.0
  9
$DELOBJ
 70
     1
  9
$DISPSILH
 70
     0
  9
$DIMSCALE
 40
10.0
  9
$DIMASZ
 40
0.1875
  9
$DIMEXO
 40
0.0625
  9
$DIMDLI
 40
0.375
  9
$DIMRND
 40
0.0
  9
$DIMDLE
 40
0.0
  9
$DIMEXE
 40
0.1875
  9
$DIMTP
 40
0.0
  9
$DIMTM
 40
0.0
  9
$DIMTXT
 40
0.18
  9
$DIMCEN
 40
0.09375
  9
$DIMTSZ
 40
0.0
  9
$DIMTOL
 70
     0
  9
$DIMLIM
 70
     0
  9
$DIMTIH
 70
     1
  9
$DIMTOH
 70
     1
  9
$DIMSE1
 70
     0
  9
$DIMSE2
 70
     0
  9
$DIMTAD
 70
     0
  9
$DIMZIN
 70
     0
  9
$DIMBLK
  1

  9
$DIMASO
 70
     1
  9
$DIMSHO
 70
     1
  9
$DIMPOST
  1

  9
$DIMAPOST
  1

  9
$DIMALT
 70
     0
  9
$DIMALTD
 70
     2
  9
$DIMALTF
 40
25.4
  9
$DIMLFAC
 40
1.0
  9
$DIMTOFL
 70
     0
  9
$DIMTVP
 40
0.0
  9
$DIMTIX
 70
     0
  9
$DIMSOXD
 70
     0
  9
$DIMSAH
 70
     0
  9
$DIMBLK1
  1

  9
$DIMBLK2
  1

  9
$DIMSTYLE
  2
STANDARD
  9
$DIMCLRD
 70
     0
  9
$DIMCLRE
 70
     0
  9
$DIMCLRT
 70
     0
  9
$DIMTFAC
 40
1.0
  9
$DIMGAP
 40
0.09375
  9
$DIMJUST
 70
     0
  9
$DIMSD1
 70
     0
  9
$DIMSD2
 70
     0
  9
$DIMTOLJ
 70
     1
  9
$DIMTZIN
 70
     0
  9
$DIMALTZ
 70
     0
  9
$DIMALTTZ
 70
     0
  9
$DIMFIT
 70
     3
  9
$DIMUPT
 70
     0
  9
$DIMUNIT
 70
     2
  9
$DIMDEC
 70
     2
  9
$DIMTDEC
 70
     4
  9
$DIMALTU
 70
     2
  9
$DIMALTTD
 70
     2
  9
$DIMTXSTY
  7
STANDARD
  9
$DIMAUNIT
 70
     0
  9
$LUNITS
 70
     2
  9
$LUPREC
 70
     2
  9
$SKETCHINC
 40
0.1
  9
$FILLETRAD
 40
10.0
  9
$AUNITS
 70
     0
  9
$AUPREC
 70
     0
  9
$MENU
  1
.
  9
$ELEVATION
 40
0.0
  9
$PELEVATION
 40
0.0
  9
$THICKNESS
 40
0.0
  9
$LIMCHECK
 70
     0
  9
$BLIPMODE
 70
     0
  9
$CHAMFERA
 40
1.0
  9
$CHAMFERB
 40
1.0
  9
$CHAMFERC
 40
1.0
  9
$CHAMFERD
 40
0.0
  9
$SKPOLY
 70
     1
  9
$TDCREATE
 40
2452103.801942013
  9
$TDUPDATE
 40
2460999.008424803
  9
$TDINDWG
 40
8.2014217477
  9
$TDUSRTIMER
 40
8.2014217477
  9
$USRTIMER
 70
     1
  9
$ANGBASE
 50
0.0
  9
$ANGDIR
 70
     0
  9
$PDMODE
 70
    35
  9
$PDSIZE
 40
0.0
  9
$PLINEWID
 40
0.0
  9
$COORDS
 70
     2
  9
$SPLFRAME
 70
     0
  9
$SPLINETYPE
 70
     6
  9
$SPLINESEGS
 70
     8
  9
$ATTDIA
 70
     0
  9
$ATTREQ
 70
     1
  9
$HANDLING
 70
     1
  9
$HANDSEED
  5
189
  9
$SURFTAB1
 70
     6
  9
$SURFTAB2
 70
     6
  9
$SURFTYPE
 70
     6
  9
$SURFU
 70
     6
  9
$SURFV
 70
     6
  9
$UCSNAME
  2

  9
$UCSORG
 10
0.0
 20
0.0
 30
0.0
  9
$UCSXDIR
 10
1.0
 20
0.0
 30
0.0
  9
$UCSYDIR
 10
0.0
 20
1.0
 30
0.0
  9
$PUCSNAME
  2

  9
$PUCSORG
 10
0.0
 20
0.0
 30
0.0
  9
$PUCSXDIR
 10
1.0
 20
0.0
 30
0.0
  9
$PUCSYDIR
 10
0.0
 20
1.0
 30
0.0
  9
$USERI1
 70
     0
  9
$USERI2
 70
     0
  9
$USERI3
 70
     0
  9
$USERI4
 70
     0
  9
$USERI5
 70
     0
  9
$USERR1
 40
0.0
  9
$USERR2
 40
0.0
  9
$USERR3
 40
0.0
  9
$USERR4
 40
0.0
  9
$USERR5
 40
0.0
  9
$WORLDVIEW
 70
     1
  9
$SHADEDGE
 70
     3
  9
$SHADEDIF
 70
    70
  9
$TILEMODE
 70
     1
  9
$MAXACTVP
 70
    48
  9
$PINSBASE
 10
0.0
 20
0.0
 30
0.0
  9
$PLIMCHECK
 70
     0
  9
$PEXTMIN
 10
1.000000E+20
 20
1.000000E+20
 30
1.000000E+20
  9
$PEXTMAX
 10
-1.000000E+20
 20
-1.000000E+20
 30
-1.000000E+20
  9
$PLIMMIN
 10
0.0
 20
0.0
  9
$PLIMMAX
 10
12.0
 20
9.0
  9
$UNITMODE
 70
     0
  9
$VISRETAIN
 70
     0
  9
$PLINEGEN
 70
     0
  9
$PSLTSCALE
 70
     1
  9
$TREEDEPTH
 70
  3020
  9
$PICKSTYLE
 70
     0
  9
$CMLSTYLE
  2
STANDARD
  9
$CMLJUST
 70
     0
  9
$CMLSCALE
 40
1.0
  9
$PROXYGRAPHICS
 70
     1
  9
$MEASUREMENT
 70
     0
  0
ENDSEC
  0
SECTION
  2
CLASSES
  0
CLASS
  1
DICTIONARYVAR
  2
AcDbDictionaryVar
  3
"AutoCAD"
 90
        0
280
     0
281
     0
  0
CLASS
  1
HATCH
  2
AcDbHatch
  3
"ACAD_SEDONA"
 90
        0
280
     0
281
     1
  0
CLASS
  1
LWPOLYLINE
  2
AcDbPolyline
  3
"AutoCAD"
 90
        0
280
     0
281
     1
  0
ENDSEC
  0
SECTION
  2
TABLES
  0
TABLE
  2
VPORT
  5
13
100
AcDbSymbolTable
 70
     2
  0
VPORT
  5
188
100
AcDbSymbolTableRecord
100
AcDbViewportTableRecord
  2
*ACTIVE
 70
     0
 10
0.0
 20
0.0
 11
1.0
 21
1.0
 12
70.415808
 22
0.002829
 13
0.0
 23
0.0
 14
0.5
 24
0.5
 15
0.5
 25
0.5
 16
0.0
 26
0.0
 36
1.0
 17
0.0
 27
0.0
 37
0.0
 40
70.028523
 41
2.33682
 42
50.0
 43
0.0
 44
0.0
 50
0.0
 51
0.0
 71
     0
 72
   100
 73
     1
 74
     0
 75
     0
 76
     0
 77
     0
 78
     1
  0
ENDTAB
  0
TABLE
  2
LTYPE
  5
E
100
AcDbSymbolTable
 70
     2
  0
LTYPE
  5
F
100
AcDbSymbolTableRecord
100
AcDbLinetypeTableRecord
  2
BYBLOCK
 70
     0
  3

 72
    65
 73
     0
 40
0.0
  0
LTYPE
  5
10
100
AcDbSymbolTableRecord
100
AcDbLinetypeTableRecord
  2
BYLAYER
 70
     0
  3

 72
    65
 73
     0
 40
0.0
  0
LTYPE
  5
5
100
AcDbSymbolTableRecord
100
AcDbLinetypeTableRecord
  2
CONTINUOUS
 70
     0
  3
Solid line
 72
    65
 73
     0
 40
0.0
  0
LTYPE
  5
81
100
AcDbSymbolTableRecord
100
AcDbLinetypeTableRecord
  2
DASHED
 70
     0
  3
Dashed __ __ __ __ __ __ __ __ __ __ __ __ __ _
 72
    65
 73
     2
 40
0.75
 49
0.5
 74
     0
 49
-0.25
 74
     0
  0
ENDTAB
  0
TABLE
  2
LAYER
  5
A
100
AcDbSymbolTable
 70
     4
  0
LAYER
  5
4
100
AcDbSymbolTableRecord
100
AcDbLayerTableRecord
  2
0
 70
     0
 62
     2
  6
CONTINUOUS
  0
LAYER
  5
36
100
AcDbSymbolTableRecord
100
AcDbLayerTableRecord
  2
DIM
 70
     0
 62
     5
  6
CONTINUOUS
  0
LAYER
  5
D1
100
AcDbSymbolTableRecord
100
AcDbLayerTableRecord
  2
CREW
 70
     0
 62
     7
  6
CONTINUOUS
  0
LAYER
  5
1E
100
AcDbSymbolTableRecord
100
AcDbLayerTableRecord
  2
VIEW
 70
     0
 62
     7
  6
CONTINUOUS
  0
ENDTAB
  0
TABLE
  2
STYLE
  5
B
100
AcDbSymbolTable
 70
     1
  0
STYLE
  5
C
100
AcDbSymbolTableRecord
100
AcDbTextStyleTableRecord
  2
STANDARD
 70
     0
 40
0.0
 41
1.0
 50
0.0
 71
     0
 42
2.0
  3
arial.ttf
  4

1001
ACAD
1000
Arial
1071
       34
  0
ENDTAB
  0
TABLE
  2
VIEW
  5
11
100
AcDbSymbolTable
 70
     0
  0
ENDTAB
  0
TABLE
  2
UCS
  5
12
100
AcDbSymbolTable
 70
     0
  0
ENDTAB
  0
TABLE
  2
APPID
  5
15
100
AcDbSymbolTable
 70
     1
  0
APPID
  5
D
100
AcDbSymbolTableRecord
100
AcDbRegAppTableRecord
  2
ACAD
 70
     0
  0
ENDTAB
  0
TABLE
  2
DIMSTYLE
  5
16
100
AcDbSymbolTable
 70
     1
  0
DIMSTYLE
105
1C
100
AcDbSymbolTableRecord
100
AcDbDimStyleTableRecord
  2
STANDARD
 70
     0
  3

  4

  5

  6

  7

 40
10.0
 41
0.1875
 42
0.0625
 43
0.375
 44
0.1875
 45
0.0
 46
0.0
 47
0.0
 48
0.0
140
0.18
141
0.09375
142
0.0
143
25.4
144
1.0
145
0.0
146
1.0
147
0.09375
 71
     0
 72
     0
 73
     1
 74
     1
 75
     0
 76
     0
 77
     0
 78
     0
170
     0
171
     2
172
     0
173
     0
174
     0
175
     0
176
     0
177
     0
178
     0
270
     2
271
     2
272
     4
273
     2
274
     2
340
C
275
     0
280
     0
281
     0
282
     0
283
     1
284
     0
285
     0
286
     0
287
     3
288
     0
  0
ENDTAB
  0
TABLE
  2
BLOCK_RECORD
  5
1
100
AcDbSymbolTable
 70
     3
  0
BLOCK_RECORD
  5
2
100
AcDbSymbolTableRecord
100
AcDbBlockTableRecord
  2
*MODEL_SPACE
  0
BLOCK_RECORD
  5
7
100
AcDbSymbolTableRecord
100
AcDbBlockTableRecord
  2
*PAPER_SPACE
  0
BLOCK_RECORD
  5
3A
100
AcDbSymbolTableRecord
100
AcDbBlockTableRecord
  2
CG
  0
BLOCK_RECORD
  5
CF
100
AcDbSymbolTableRecord
100
AcDbBlockTableRecord
  2
CREW
  0
BLOCK_RECORD
  5
34
100
AcDbSymbolTableRecord
100
AcDbBlockTableRecord
  2
LANDER-FRONT-DOCK
  0
ENDTAB
  0
ENDSEC
  0
SECTION
  2
BLOCKS
  0
BLOCK
  5
3
100
AcDbEntity
  8
0
100
AcDbBlockBegin
  2
*MODEL_SPACE
 70
     0
 10
0.0
 20
0.0
 30
0.0
  3
*MODEL_SPACE
  1

  0
ENDBLK
  5
6
100
AcDbEntity
  8
0
100
AcDbBlockEnd
  0
BLOCK
  5
8
100
AcDbEntity
 67
     1
  8
0
100
AcDbBlockBegin
  2
*PAPER_SPACE
 70
     0
 10
0.0
 20
0.0
 30
0.0
  3
*PAPER_SPACE
  1

  0
ENDBLK
  5
9
100
AcDbEntity
 67
     1
  8
0
100
AcDbBlockEnd
  0
BLOCK
  5
3B
100
AcDbEntity
  8
0
100
AcDbBlockBegin
  2
CG
 70
     0
 10
0.0
 20
0.0
 30
0.0
  3
CG
  1

  0
ENDBLK
  5
3C
100
AcDbEntity
  8
0
100
AcDbBlockEnd
  0
BLOCK
  5
E0
100
AcDbEntity
  8
0
100
AcDbBlockBegin
  2
CREW
 70
     0
 10
0.0
 20
0.0
 30
0.0
  3
CREW
  1

  0
ARC
  5
D0
100
AcDbEntity
  8
CREW
100
AcDbCircle
 10
0.0
 20
1.1
 30
0.0
 40
0.4
100
AcDbArc
 50
319.46356
 51
220.53644
  0
LINE
  5
D2
100
AcDbEntity
  8
CREW
100
AcDbLine
 10
0.4
 20
1.1
 30
0.0
 11
0.550495
 21
0.62512
 31
0.0
  0
ARC
  5
D3
100
AcDbEntity
  8
CREW
100
AcDbCircle
 10
0.0
 20
1.1
 30
0.0
 40
0.4
100
AcDbArc
 50
259.218627
 51
280.781373
  0
ARC
  5
D4
100
AcDbEntity
  8
CREW
100
AcDbCircle
 10
0.481423
 20
0.612745
 30
0.0
 40
0.070172
100
AcDbArc
 50
190.157075
 51
10.157075
  0
LINE
  5
D5
100
AcDbEntity
  8
CREW
100
AcDbLine
 10
0.412351
 20
0.60037
 30
0.0
 11
0.303997
 21
0.840027
 31
0.0
  0
LINE
  5
D6
100
AcDbEntity
  8
CREW
100
AcDbLine
 10
-0.412351
 20
0.60037
 30
0.0
 11
-0.303997
 21
0.840027
 31
0.0
  0
LINE
  5
D7
100
AcDbEntity
  8
CREW
100
AcDbLine
 10
0.074825
 20
0.707061
 30
0.0
 11
0.2
 21
0.0
 31
0.0
  0
LINE
  5
D8
100
AcDbEntity
  8
CREW
100
AcDbLine
 10
0.303997
 20
0.840027
 30
0.0
 11
0.454492
 21
0.0
 31
0.0
  0
LINE
  5
D9
100
AcDbEntity
  8
CREW
100
AcDbLine
 10
-0.074825
 20
0.707061
 30
0.0
 11
-0.2
 21
0.0
 31
0.0
  0
LINE
  5
DA
100
AcDbEntity
  8
CREW
100
AcDbLine
 10
-0.303997
 20
0.840027
 30
0.0
 11
-0.454492
 21
0.0
 31
0.0
  0
LINE
  5
DB
100
AcDbEntity
  8
CREW
100
AcDbLine
 10
-0.4
 20
1.1
 30
0.0
 11
-0.550495
 21
0.62512
 31
0.0
  0
ARC
  5
DC
100
AcDbEntity
  8
CREW
100
AcDbCircle
 10
-0.481423
 20
0.612745
 30
0.0
 40
0.070172
100
AcDbArc
 50
169.842925
 51
349.842925
  0
CIRCLE
  5
DD
100
AcDbEntity
  8
CREW
100
AcDbCircle
 10
0.0
 20
1.75
 30
0.0
 40
0.25
  0
LINE
  5
DE
100
AcDbEntity
  8
CREW
100
AcDbLine
 10
-0.2
 20
0.0
 30
0.0
 11
-0.454492
 21
0.0
 31
0.0
  0
LINE
  5
DF
100
AcDbEntity
  8
CREW
100
AcDbLine
 10
0.454492
 20
0.0
 30
0.0
 11
0.2
 21
0.0
 31
0.0
  0
ENDBLK
  5
E1
100
AcDbEntity
  8
0
100
AcDbBlockEnd
  0
BLOCK
  5
92
100
AcDbEntity
  8
0
100
AcDbBlockBegin
  2
LANDER-FRONT-DOCK
 70
     0
 10
0.0
 20
0.0
 30
0.0
  3
LANDER-FRONT-DOCK
  1

  0
MTEXT
  5
35
100
AcDbEntity
  8
DIM
100
AcDbMText
 10
293.388489
 20
143.39568
 30
0.0
 40
4.32
 41
0.0
 71
     6
 72
     1
  1
\A1;
  0
MTEXT
  5
37
100
AcDbEntity
  8
DIM
100
AcDbMText
 10
299.931237
 20
148.856929
 30
0.0
 40
4.32
 41
0.0
 71
     6
 72
     1
  1
\A1;
  0
MTEXT
  5
38
100
AcDbEntity
  8
DIM
100
AcDbMText
 10
7.344129
 20
95.418215
 30
0.0
 40
1.0
 41
31.45
 71
     5
 72
     5
  1

  0
INSERT
  5
39
100
AcDbEntity
  8
DIM
100
AcDbBlockReference
  2
CG
 10
-100.626412
 20
45.462146
 30
0.0
  0
INSERT
  5
3D
100
AcDbEntity
  8
DIM
100
AcDbBlockReference
  2
CG
 10
-142.14958
 20
31.553466
 30
0.0
  0
INSERT
  5
3E
100
AcDbEntity
  8
DIM
100
AcDbBlockReference
  2
CG
 10
0.0
 20
0.0
 30
0.0
  0
MTEXT
  5
3F
100
AcDbEntity
  8
DIM
100
AcDbMText
 10
265.573146
 20
124.347863
 30
0.0
 40
4.32
 41
0.0
 71
     6
 72
     1
  1
\A1;
  0
MTEXT
  5
40
100
AcDbEntity
  8
DIM
100
AcDbMText
 10
272.115894
 20
129.809113
 30
0.0
 40
4.32
 41
0.0
 71
     6
 72
     1
  1
\A1;
  0
MTEXT
  5
41
100
AcDbEntity
  8
DIM
100
AcDbMText
 10
-20.471214
 20
76.370398
 30
0.0
 40
1.0
 41
31.45
 71
     5
 72
     5
  1

  0
INSERT
  5
42
100
AcDbEntity
  8
DIM
100
AcDbBlockReference
  2
CG
 10
-128.441755
 20
26.41433
 30
0.0
  0
INSERT
  5
43
100
AcDbEntity
  8
DIM
100
AcDbBlockReference
  2
CG
 10
-169.964924
 20
12.505649
 30
0.0
  0
INSERT
  5
44
100
AcDbEntity
  8
DIM
100
AcDbBlockReference
  2
CG
 10
-27.815343
 20
-19.047817
 30
0.0
  0
MTEXT
  5
45
100
AcDbEntity
  8
DIM
100
AcDbMText
 10
205.730198
 20
137.177832
 30
0.0
 40
4.32
 41
0.0
 71
     6
 72
     1
  1
\A1;
  0
MTEXT
  5
46
100
AcDbEntity
  8
DIM
100
AcDbMText
 10
212.272946
 20
142.639082
 30
0.0
 40
4.32
 41
0.0
 71
     6
 72
     1
  1
\A1;
  0
MTEXT
  5
47
100
AcDbEntity
  8
DIM
100
AcDbMText
 10
-80.314162
 20
89.200367
 30
0.0
 40
1.0
 41
31.45
 71
     5
 72
     5
  1

  0
INSERT
  5
48
100
AcDbEntity
  8
DIM
100
AcDbBlockReference
  2
CG
 10
-188.284703
 20
39.244299
 30
0.0
  0
INSERT
  5
49
100
AcDbEntity
  8
DIM
100
AcDbBlockReference
  2
CG
 10
-229.807871
 20
25.335618
 30
0.0
  0
INSERT
  5
4A
100
AcDbEntity
  8
DIM
100
AcDbBlockReference
  2
CG
 10
-87.658291
 20
-6.217848
 30
0.0
  0
MTEXT
  5
4B
100
AcDbEntity
  8
DIM
100
AcDbMText
 10
200.13796
 20
124.347863
 30
0.0
 40
4.32
 41
0.0
 71
     6
 72
     1
  1
\A1;
  0
MTEXT
  5
4C
100
AcDbEntity
  8
DIM
100
AcDbMText
 10
206.680709
 20
129.809113
 30
0.0
 40
4.32
 41
0.0
 71
     6
 72
     1
  1
\A1;
  0
MTEXT
  5
4D
100
AcDbEntity
  8
DIM
100
AcDbMText
 10
-85.9064
 20
76.370398
 30
0.0
 40
1.0
 41
31.45
 71
     5
 72
     5
  1

  0
INSERT
  5
4E
100
AcDbEntity
  8
DIM
100
AcDbBlockReference
  2
CG
 10
-193.87694
 20
26.41433
 30
0.0
  0
INSERT
  5
4F
100
AcDbEntity
  8
DIM
100
AcDbBlockReference
  2
CG
 10
-235.400109
 20
12.505649
 30
0.0
  0
INSERT
  5
50
100
AcDbEntity
  8
DIM
100
AcDbBlockReference
  2
CG
 10
-93.250529
 20
-19.047817
 30
0.0
  0
LINE
  5
51
100
AcDbEntity
  8
0
100
AcDbLine
 10
2.27059
 20
-6.5529
 30
0.0
 11
2.27059
 21
-6.8029
 31
0.0
  0
LINE
  5
52
100
AcDbEntity
  8
0
100
AcDbLine
 10
2.27059
 20
-6.5529
 30
0.0
 11
4.27059
 21
-6.8029
 31
0.0
  0
LINE
  5
53
100
AcDbEntity
  8
0
100
AcDbLine
 10
4.27059
 20
-6.5529
 30
0.0
 11
2.27059
 21
-6.8029
 31
0.0
  0
LINE
  5
54
100
AcDbEntity
  8
0
100
AcDbLine
 10
-2.27059
 20
-6.5529
 30
0.0
 11
-2.27059
 21
-6.8029
 31
0.0
  0
LINE
  5
55
100
AcDbEntity
  8
0
100
AcDbLine
 10
-2.27059
 20
-6.5529
 30
0.0
 11
-4.27059
 21
-6.8029
 31
0.0
  0
LINE
  5
56
100
AcDbEntity
  8
0
100
AcDbLine
 10
-4.27059
 20
-6.5529
 30
0.0
 11
-2.27059
 21
-6.8029
 31
0.0
  0
LINE
  5
57
100
AcDbEntity
  8
0
100
AcDbLine
 10
4.27059
 20
-6.5529
 30
0.0
 11
4.27059
 21
-6.8029
 31
0.0
  0
LINE
  5
58
100
AcDbEntity
  8
0
100
AcDbLine
 10
-4.27059
 20
-6.5529
 30
0.0
 11
-4.27059
 21
-6.8029
 31
0.0
  0
LINE
  5
59
100
AcDbEntity
  8
0
100
AcDbLine
 10
-3.775457
 20
-5.652533
 30
0.0
 11
-5.196287
 21
-9.012712
 31
0.0
  0
LINE
  5
5A
100
AcDbEntity
  8
0
100
AcDbLine
 10
3.775457
 20
-5.652533
 30
0.0
 11
5.196287
 21
-9.012712
 31
0.0
  0
ARC
  5
5B
100
AcDbEntity
  8
0
100
AcDbCircle
 10
0.0
 20
-6.9029
 30
0.0
 40
0.5
100
AcDbArc
 50
0.0
 51
180.0
  0
LINE
  5
5C
100
AcDbEntity
  8
0
100
AcDbLine
 10
-0.75
 20
-5.12132
 30
0.0
 11
-0.75
 21
-8.6529
 31
0.0
  0
LINE
  5
5D
100
AcDbEntity
  8
0
100
AcDbLine
 10
0.75
 20
-5.12132
 30
0.0
 11
0.75
 21
-8.6529
 31
0.0
  0
LINE
  5
5E
100
AcDbEntity
  8
0
100
AcDbLine
 10
-4.5
 20
-10.6529
 30
0.0
 11
4.5
 21
-10.6529
 31
0.0
  0
LINE
  5
5F
100
AcDbEntity
  8
0
100
AcDbLine
 10
-4.5
 20
-8.7529
 30
0.0
 11
4.5
 21
-8.7529
 31
0.0
  0
LINE
  5
60
100
AcDbEntity
  8
0
100
AcDbLine
 10
-4.5
 20
-8.6529
 30
0.0
 11
4.5
 21
-8.6529
 31
0.0
  0
CIRCLE
  5
61
100
AcDbEntity
  8
0
100
AcDbCircle
 10
-1.675
 20
-7.7279
 30
0.0
 40
0.8
  0
ARC
  5
62
100
AcDbEntity
  8
0
100
AcDbCircle
 10
-2.0
 20
-11.1529
 30
0.0
 40
0.1
100
AcDbArc
 50
128.682187
 51
51.317813
  0
LINE
  5
63
100
AcDbEntity
  8
0
100
AcDbLine
 10
-0.75
 20
-6.8029
 30
0.0
 11
-4.5
 21
-6.8029
 31
0.0
  0
LINE
  5
64
100
AcDbEntity
  8
0
100
AcDbLine
 10
-4.5
 20
-10.6529
 30
0.0
 11
-5.196287
 21
-9.012712
 31
0.0
  0
LINE
  5
65
100
AcDbEntity
  8
0
100
AcDbLine
 10
-4.5
 20
-10.6529
 30
0.0
 11
-4.5
 21
-8.6529
 31
0.0
  0
LINE
  5
66
100
AcDbEntity
  8
0
100
AcDbLine
 10
-2.0625
 20
-10.6529
 30
0.0
 11
-2.0625
 21
-11.074838
 31
0.0
  0
LINE
  5
67
100
AcDbEntity
  8
0
100
AcDbLine
 10
-4.27059
 20
-6.8029
 30
0.0
 11
-2.27059
 21
-6.8029
 31
0.0
  0
CIRCLE
  5
68
100
AcDbEntity
  8
0
100
AcDbCircle
 10
-3.525
 20
-7.7279
 30
0.0
 40
0.8
  0
LINE
  5
69
100
AcDbEntity
  8
0
100
AcDbLine
 10
-4.5
 20
-6.8029
 30
0.0
 11
-4.5
 21
-8.6529
 31
0.0
  0
LINE
  5
6A
100
AcDbEntity
  8
0
100
AcDbLine
 10
-4.5
 20
-8.6529
 30
0.0
 11
-5.196287
 21
-9.012712
 31
0.0
  0
CIRCLE
  5
6B
100
AcDbEntity
  8
0
100
AcDbCircle
 10
-5.196287
 20
-9.012712
 30
0.0
 40
0.1
  0
LINE
  5
6C
100
AcDbEntity
  8
0
100
AcDbLine
 10
-2.6
 20
-6.8029
 30
0.0
 11
-2.6
 21
-8.6529
 31
0.0
  0
ARC
  5
6D
100
AcDbEntity
  8
0
100
AcDbCircle
 10
2.0
 20
-11.1529
 30
0.0
 40
0.1
100
AcDbArc
 50
128.682187
 51
51.317813
  0
LINE
  5
6E
100
AcDbEntity
  8
0
100
AcDbLine
 10
0.75
 20
-6.8029
 30
0.0
 11
4.5
 21
-6.8029
 31
0.0
  0
CIRCLE
  5
6F
100
AcDbEntity
  8
0
100
AcDbCircle
 10
1.675
 20
-7.7279
 30
0.0
 40
0.8
  0
LINE
  5
70
100
AcDbEntity
  8
0
100
AcDbLine
 10
-1.9375
 20
-10.6529
 30
0.0
 11
-1.9375
 21
-11.074838
 31
0.0
  0
ARC
  5
71
100
AcDbEntity
  8
0
100
AcDbCircle
 10
0.0
 20
-8.1529
 30
0.0
 40
0.5
100
AcDbArc
 50
180.0
 51
0.0
  0
LINE
  5
72
100
AcDbEntity
  8
0
100
AcDbLine
 10
-0.5
 20
-6.9029
 30
0.0
 11
-0.5
 21
-8.1529
 31
0.0
  0
LINE
  5
73
100
AcDbEntity
  8
0
100
AcDbLine
 10
0.5
 20
-6.9029
 30
0.0
 11
0.5
 21
-8.1529
 31
0.0
  0
LINE
  5
74
100
AcDbEntity
  8
0
100
AcDbLine
 10
4.5
 20
-10.6529
 30
0.0
 11
5.196287
 21
-9.012712
 31
0.0
  0
LINE
  5
75
100
AcDbEntity
  8
0
100
AcDbLine
 10
4.5
 20
-10.6529
 30
0.0
 11
4.5
 21
-8.6529
 31
0.0
  0
LINE
  5
76
100
AcDbEntity
  8
0
100
AcDbLine
 10
2.0625
 20
-10.6529
 30
0.0
 11
2.0625
 21
-11.074838
 31
0.0
  0
LINE
  5
77
100
AcDbEntity
  8
0
100
AcDbLine
 10
1.9375
 20
-10.6529
 30
0.0
 11
1.9375
 21
-11.074838
 31
0.0
  0
LINE
  5
78
100
AcDbEntity
  8
0
100
AcDbLine
 10
2.27059
 20
-6.8029
 30
0.0
 11
4.27059
 21
-6.8029
 31
0.0
  0
CIRCLE
  5
79
100
AcDbEntity
  8
0
100
AcDbCircle
 10
3.525
 20
-7.7279
 30
0.0
 40
0.8
  0
LINE
  5
7A
100
AcDbEntity
  8
0
100
AcDbLine
 10
2.6
 20
-6.8029
 30
0.0
 11
2.6
 21
-8.6529
 31
0.0
  0
LINE
  5
7B
100
AcDbEntity
  8
0
100
AcDbLine
 10
4.5
 20
-6.8029
 30
0.0
 11
4.5
 21
-8.6529
 31
0.0
  0
LINE
  5
7C
100
AcDbEntity
  8
0
100
AcDbLine
 10
4.5
 20
-8.6529
 30
0.0
 11
5.196287
 21
-9.012712
 31
0.0
  0
CIRCLE
  5
7D
100
AcDbEntity
  8
0
100
AcDbCircle
 10
5.196287
 20
-9.012712
 30
0.0
 40
0.1
  0
ARC
  5
7E
100
AcDbEntity
  8
0
100
AcDbCircle
 10
0.0
 20
-3.0
 30
0.0
 40
2.25
100
AcDbArc
 50
102.839588
 51
250.528779
  0
LINE
  5
7F
100
AcDbEntity
  8
0
100
AcDbLine
 10
-2.27059
 20
-6.5529
 30
0.0
 11
-4.27059
 21
-6.5529
 31
0.0
  0
LWPOLYLINE
  5
80
100
AcDbEntity
  8
0
  6
DASHED
100
AcDbPolyline
 90
        4
 70
     1
 43
0.0
 10
-2.27059
 20
-6.5529
 10
-4.27059
 20
-6.5529
 10
-4.27059
 20
-4.5529
 10
-2.27059
 20
-4.5529
  0
LINE
  5
82
100
AcDbEntity
  8
0
100
AcDbLine
 10
-3.421904
 20
-5.652533
 30
0.0
 11
-4.117768
 21
-5.652533
 31
0.0
  0
LINE
  5
83
100
AcDbEntity
  8
0
100
AcDbLine
 10
-4.117768
 20
-5.652533
 30
0.0
 11
-4.117768
 21
-5.513527
 31
0.0
  0
LINE
  5
84
100
AcDbEntity
  8
0
100
AcDbLine
 10
-3.775457
 20
-5.652533
 30
0.0
 11
-3.775457
 21
-5.513527
 31
0.0
  0
LINE
  5
85
100
AcDbEntity
  8
0
100
AcDbLine
 10
-3.421904
 20
-5.652533
 30
0.0
 11
-3.421904
 21
-5.513527
 31
0.0
  0
ARC
  5
86
100
AcDbEntity
  8
0
100
AcDbCircle
 10
0.0
 20
-3.0
 30
0.0
 40
2.25
100
AcDbArc
 50
289.471221
 51
77.160412
  0
LINE
  5
87
100
AcDbEntity
  8
0
100
AcDbLine
 10
-0.75
 20
-5.12132
 30
0.0
 11
0.75
 21
-5.12132
 31
0.0
  0
LINE
  5
88
100
AcDbEntity
  8
0
100
AcDbLine
 10
4.27059
 20
-6.5529
 30
0.0
 11
2.27059
 21
-6.5529
 31
0.0
  0
LWPOLYLINE
  5
89
100
AcDbEntity
  8
0
  6
DASHED
100
AcDbPolyline
 90
        4
 70
     1
 43
0.0
 10
2.27059
 20
-6.5529
 10
4.27059
 20
-6.5529
 10
4.27059
 20
-4.5529
 10
2.27059
 20
-4.5529
  0
LINE
  5
8A
100
AcDbEntity
  8
0
100
AcDbLine
 10
3.421904
 20
-5.652533
 30
0.0
 11
4.117768
 21
-5.652533
 31
0.0
  0
LINE
  5
8B
100
AcDbEntity
  8
0
100
AcDbLine
 10
3.421904
 20
-5.652533
 30
0.0
 11
3.421904
 21
-5.513527
 31
0.0
  0
LINE
  5
8C
100
AcDbEntity
  8
0
100
AcDbLine
 10
3.775457
 20
-5.652533
 30
0.0
 11
3.775457
 21
-5.513527
 31
0.0
  0
LINE
  5
8D
100
AcDbEntity
  8
0
100
AcDbLine
 10
4.117768
 20
-5.652533
 30
0.0
 11
4.117768
 21
-5.513527
 31
0.0
  0
LINE
  5
8E
100
AcDbEntity
  8
0
100
AcDbLine
 10
-0.5
 20
-0.806259
 30
0.0
 11
0.5
 21
-0.806259
 31
0.0
  0
LINE
  5
8F
100
AcDbEntity
  8
0
100
AcDbLine
 10
-0.5
 20
-0.556259
 30
0.0
 11
0.5
 21
-0.556259
 31
0.0
  0
LINE
  5
90
100
AcDbEntity
  8
0
100
AcDbLine
 10
-0.5
 20
-0.806259
 30
0.0
 11
-0.5
 21
-0.556259
 31
0.0
  0
LINE
  5
91
100
AcDbEntity
  8
0
100
AcDbLine
 10
0.5
 20
-0.556259
 30
0.0
 11
0.5
 21
-0.806259
 31
0.0
  0
ENDBLK
  5
93
100
AcDbEntity
  8
0
100
AcDbBlockEnd
  0
ENDSEC
  0
SECTION
  2
ENTITIES
  0
LINE
  5
1D
100
AcDbEntity
  8
VIEW
100
AcDbLine
 10
130.598951
 20
7.0
 30
0.0
 11
128.098951
 21
5.964466
 31
0.0
  0
LWPOLYLINE
  5
1F
100
AcDbEntity
  8
VIEW
100
AcDbPolyline
 90
        5
 70
     1
 43
0.0
 10
110.12526
 20
26.828701
 10
102.621804
 20
7.892297
 10
118.993054
 20
7.892297
 10
140.832814
 20
33.144908
 10
119.422016
 20
33.144908
 42
0.307565
  0
LINE
  5
20
100
AcDbEntity
  8
VIEW
100
AcDbLine
 10
130.598951
 20
-0.5
 30
0.0
 11
128.098951
 21
-1.535534
 31
0.0
  0
LINE
  5
21
100
AcDbEntity
  8
VIEW
100
AcDbLine
 10
130.598951
 20
0.5
 30
0.0
 11
128.098951
 21
1.535534
 31
0.0
  0
LINE
  5
22
100
AcDbEntity
  8
VIEW
100
AcDbLine
 10
130.598951
 20
-7.0
 30
0.0
 11
128.098951
 21
-5.964466
 31
0.0
  0
LINE
  5
23
100
AcDbEntity
  8
VIEW
100
AcDbLine
 10
130.598951
 20
-4.5
 30
0.0
 11
128.098951
 21
-3.464466
 31
0.0
  0
LINE
  5
24
100
AcDbEntity
  8
VIEW
100
AcDbLine
 10
102.621804
 20
0.0
 30
0.0
 11
140.832814
 21
0.0
 31
0.0
  0
LWPOLYLINE
  5
25
100
AcDbEntity
  8
VIEW
100
AcDbPolyline
 90
        5
 70
     1
 43
0.0
 10
110.12526
 20
-26.828701
 10
102.621804
 20
-7.892297
 10
118.993054
 20
-7.892297
 10
140.832814
 20
-33.144908
 10
119.422016
 20
-33.144908
 42
-0.307565
  0
HATCH
  5
26
100
AcDbEntity
  8
VIEW
100
AcDbHatch
 10
0.0
 20
0.0
 30
0.0
210
0.0
220
0.0
230
1.0
  2
SOLID
 70
     1
 71
     0
 91
        2
 92
        1
 93
        5
 72
     1
 10
110.12526
 20
26.828701
 11
102.621804
 21
7.892297
 72
     1
 10
102.621804
 20
7.892297
 11
118.993054
 21
7.892297
 72
     1
 10
118.993054
 20
7.892297
 11
140.832814
 21
33.144908
 72
     1
 10
140.832814
 20
33.144908
 11
119.422016
 21
33.144908
 72
     2
 10
119.422016
 20
23.144908
 40
10.0
 50
90.0
 51
158.3843
 73
     1
 97
        0
 92
        1
 93
        5
 72
     1
 10
110.12526
 20
-26.828701
 11
102.621804
 21
-7.892297
 72
     1
 10
102.621804
 20
-7.892297
 11
118.993054
 21
-7.892297
 72
     1
 10
118.993054
 20
-7.892297
 11
140.832814
 21
-33.144908
 72
     1
 10
140.832814
 20
-33.144908
 11
119.422016
 21
-33.144908
 72
     2
 10
119.422016
 20
-23.144908
 40
10.0
 50
90.0
 51
158.3843
 73
     0
 97
        0
 75
     0
 76
     1
 98
        1
 10
503.660116
 20
-222.999161
  0
LINE
  5
27
100
AcDbEntity
  8
VIEW
100
AcDbLine
 10
130.598951
 20
4.5
 30
0.0
 11
128.098951
 21
3.464466
 31
0.0
  0
LINE
  5
28
100
AcDbEntity
  8
VIEW
100
AcDbLine
 10
128.098951
 20
0.5
 30
0.0
 11
128.098951
 21
7.0
 31
0.0
  0
LINE
  5
29
100
AcDbEntity
  8
VIEW
100
AcDbLine
 10
125.0
 20
7.892297
 30
0.0
 11
125.0
 21
-7.892297
 31
0.0
  0
LINE
  5
2A
100
AcDbEntity
  8
VIEW
100
AcDbLine
 10
102.621804
 20
7.892297
 30
0.0
 11
102.621804
 21
-7.892297
 31
0.0
  0
ARC
  5
2B
100
AcDbEntity
  8
VIEW
100
AcDbCircle
 10
80.051556
 20
3.683013
 30
0.0
 40
6.0
100
AcDbArc
 50
10.475314
 51
349.524686
  0
LINE
  5
2C
100
AcDbEntity
  8
VIEW
100
AcDbLine
 10
93.593524
 20
4.904284
 30
0.0
 11
93.593524
 21
-4.904284
 31
0.0
  0
LINE
  5
2D
100
AcDbEntity
  8
VIEW
100
AcDbLine
 10
128.788291
 20
3.75
 30
0.0
 11
128.098951
 21
4.035534
 31
0.0
  0
LINE
  5
2E
100
AcDbEntity
  8
VIEW
100
AcDbLine
 10
85.951556
 20
18.704614
 30
0.0
 11
85.951556
 21
-18.704614
 31
0.0
  0
LWPOLYLINE
  5
2F
100
AcDbEntity
  8
VIEW
100
AcDbPolyline
 90
        4
 70
     0
 43
0.0
 10
86.355924
 20
18.9987
 10
93.593524
 20
9.047
 10
93.593524
 20
-9.047
 10
86.355924
 20
-18.9987
  0
ARC
  5
30
102
{ACAD_REACTORS
330
94
102
}
100
AcDbEntity
  8
VIEW
100
AcDbCircle
 10
15.5
 20
0.0
 30
0.0
 40
15.5
100
AcDbArc
 50
120.0
 51
240.0
  0
LINE
  5
31
102
{ACAD_REACTORS
330
94
102
}
100
AcDbEntity
  8
VIEW
100
AcDbLine
 10
7.75
 20
13.423394
 30
0.0
 11
7.75
 21
-13.423394
 31
0.0
  0
ARC
  5
32
100
AcDbEntity
  8
VIEW
100
AcDbCircle
 10
15.5
 20
0.0
 30
0.0
 40
15.0
100
AcDbArc
 50
1.910213
 51
121.108923
  0
INSERT
  5
33
100
AcDbEntity
  8
VIEW
100
AcDbBlockReference
  2
LANDER-FRONT-DOCK
 10
65.802098
 20
13.061748
 30
0.0
 41
-1.0
 50
0.0
  0
HATCH
  5
94
100
AcDbEntity
  8
VIEW
100
AcDbHatch
 10
0.0
 20
0.0
 30
0.0
210
0.0
220
0.0
230
1.0
  2
NET3
 70
     0
 71
     1
 91
        1
 92
        1
 93
        2
 72
     1
 10
7.75
 20
13.423394
 11
7.75
 21
-13.423394
 72
     2
 10
15.5
 20
0.0
 40
15.5
 50
120.0
 51
240.0
 73
     0
 97
        2
330
31
330
30
 75
     0
 76
     1
 52
0.0
 41
10.0
 77
     0
 78
     3
 53
0.0
 43
503.660116
 44
-222.999161
 45
0.0
 46
1.25
 79
     0
 53
60.0
 43
503.660116
 44
-222.999161
 45
-1.082531754730548
 46
0.6250000000000001
 79
     0
 53
120.0
 43
503.660116
 44
-222.999161
 45
-1.082531754730548
 46
-0.6249999999999999
 79
     0
 98
        1
 10
503.660116
 20
-222.999161
  0
ARC
  5
95
100
AcDbEntity
  8
VIEW
100
AcDbCircle
 10
15.5
 20
0.0
 30
0.0
 40
15.0
100
AcDbArc
 50
238.891077
 51
358.089787
  0
ARC
  5
96
100
AcDbEntity
  8
VIEW
100
AcDbCircle
 10
80.051556
 20
-7.366025
 30
0.0
 40
6.0
100
AcDbArc
 50
112.963559
 51
349.524686
  0
LINE
  5
97
100
AcDbEntity
  8
VIEW
100
AcDbLine
 10
76.139236
 20
-0.866025
 30
0.0
 11
36.87591
 21
-0.866025
 31
0.0
  0
LINE
  5
98
100
AcDbEntity
  8
VIEW
100
AcDbLine
 10
45.266194
 20
-0.866025
 30
0.0
 11
49.461336
 21
1.732051
 31
0.0
  0
LINE
  5
99
100
AcDbEntity
  8
VIEW
100
AcDbLine
 10
49.461336
 20
-0.866025
 30
0.0
 11
45.266194
 21
1.732051
 31
0.0
  0
LINE
  5
9A
100
AcDbEntity
  8
VIEW
100
AcDbLine
 10
45.266194
 20
-0.866025
 30
0.0
 11
49.461336
 21
1.732051
 31
0.0
  0
LINE
  5
9B
100
AcDbEntity
  8
VIEW
100
AcDbLine
 10
74.377603
 20
1.732051
 30
0.0
 11
36.87591
 21
1.732051
 31
0.0
  0
LINE
  5
9C
100
AcDbEntity
  8
VIEW
100
AcDbLine
 10
35.87591
 20
-0.5
 30
0.0
 11
31.240122
 21
-0.5
 31
0.0
  0
LINE
  5
9D
100
AcDbEntity
  8
VIEW
100
AcDbLine
 10
35.87591
 20
0.5
 30
0.0
 11
31.240122
 21
0.5
 31
0.0
  0
LWPOLYLINE
  5
9E
100
AcDbEntity
  8
VIEW
100
AcDbPolyline
 90
        2
 70
     0
 43
0.0
 10
32.25
 20
-1.601719
 10
35.87591
 20
-0.551819
  0
LWPOLYLINE
  5
9F
100
AcDbEntity
  8
VIEW
100
AcDbPolyline
 90
        2
 70
     0
 43
0.0
 10
31.35
 20
1.862319
 10
35.87591
 20
0.551819
  0
LWPOLYLINE
  5
A0
100
AcDbEntity
  8
VIEW
100
AcDbPolyline
 90
        5
 70
     0
 43
0.0
 10
35.87591
 20
0.5
 10
35.87591
 20
1.982051
 10
30.053005
 20
3.634564
 10
30.34462
 20
2.153431
 10
30.75
 20
2.036052
  0
LINE
  5
A1
100
AcDbEntity
  8
VIEW
100
AcDbLine
 10
30.168828
 20
3.134564
 30
0.0
 11
35.87591
 21
1.482051
 31
0.0
  0
LWPOLYLINE
  5
A2
100
AcDbEntity
  8
VIEW
100
AcDbPolyline
 90
        5
 70
     0
 43
0.0
 10
35.87591
 20
-0.5
 10
35.87591
 20
-1.982051
 10
30.053005
 20
-3.634564
 10
30.34462
 20
-2.153431
 10
30.75
 20
-2.036052
  0
LINE
  5
A3
100
AcDbEntity
  8
VIEW
100
AcDbLine
 10
32.25
 20
-2.531951
 30
0.0
 11
35.87591
 21
-1.482051
 31
0.0
  0
LINE
  5
A4
100
AcDbEntity
  8
VIEW
100
AcDbLine
 10
30.75
 20
-0.883883
 30
0.0
 11
30.75
 21
-2.65165
 31
0.0
  0
LINE
  5
A5
100
AcDbEntity
  8
VIEW
100
AcDbLine
 10
32.25
 20
-0.883883
 30
0.0
 11
32.25
 21
-2.65165
 31
0.0
  0
LINE
  5
A6
100
AcDbEntity
  8
VIEW
100
AcDbLine
 10
30.168828
 20
-3.134564
 30
0.0
 11
31.836608
 21
-2.65165
 31
0.0
  0
LINE
  5
A7
100
AcDbEntity
  8
VIEW
100
AcDbLine
 10
30.75
 20
-2.65165
 30
0.0
 11
32.25
 21
-2.65165
 31
0.0
  0
LINE
  5
A8
100
AcDbEntity
  8
VIEW
100
AcDbLine
 10
31.598871
 20
1.0
 30
0.0
 11
31.598871
 21
0.5
 31
0.0
  0
LINE
  5
A9
100
AcDbEntity
  8
VIEW
100
AcDbLine
 10
31.35
 20
2.12132
 30
0.0
 11
31.35
 21
1.131371
 31
0.0
  0
LINE
  5
AA
100
AcDbEntity
  8
VIEW
100
AcDbLine
 10
32.25
 20
0.883883
 30
0.0
 11
32.25
 21
1.601719
 31
0.0
  0
LINE
  5
AB
100
AcDbEntity
  8
VIEW
100
AcDbLine
 10
31.598871
 20
0.883883
 30
0.0
 11
32.25
 21
0.883883
 31
0.0
  0
LINE
  5
AC
100
AcDbEntity
  8
VIEW
100
AcDbLine
 10
31.598871
 20
-0.5
 30
0.0
 11
31.598871
 21
-0.883883
 31
0.0
  0
LINE
  5
AD
100
AcDbEntity
  8
VIEW
100
AcDbLine
 10
30.46663
 20
-1.0
 30
0.0
 11
30.75
 21
-1.0
 31
0.0
  0
LINE
  5
AE
100
AcDbEntity
  8
VIEW
100
AcDbLine
 10
30.75
 20
2.12132
 30
0.0
 11
30.75
 21
1.131371
 31
0.0
  0
LINE
  5
AF
100
AcDbEntity
  8
VIEW
100
AcDbLine
 10
30.75
 20
1.0
 30
0.0
 11
30.75
 21
1.131371
 31
0.0
  0
ELLIPSE
  5
B0
100
AcDbEntity
  8
VIEW
100
AcDbEllipse
 10
29.48774
 20
0.0
 30
0.0
 11
0.0
 21
-0.4999999999999858
 31
0.0
210
0.0
220
0.0
230
1.0
 40
0.393329
 41
3.141592653589793
 42
6.283185307179586
  0
LINE
  5
B1
100
AcDbEntity
  8
VIEW
100
AcDbLine
 10
30.46663
 20
1.0
 30
0.0
 11
31.598871
 21
1.0
 31
0.0
  0
LINE
  5
B2
100
AcDbEntity
  8
VIEW
100
AcDbLine
 10
30.75
 20
-1.59099
 30
0.0
 11
32.25
 21
-1.59099
 31
0.0
  0
LINE
  5
B3
100
AcDbEntity
  8
VIEW
100
AcDbLine
 10
30.75
 20
-0.883883
 30
0.0
 11
32.25
 21
-0.883883
 31
0.0
  0
LINE
  5
B4
100
AcDbEntity
  8
VIEW
100
AcDbLine
 10
30.75
 20
1.131371
 30
0.0
 11
31.35
 21
1.131371
 31
0.0
  0
LINE
  5
B5
100
AcDbEntity
  8
VIEW
100
AcDbLine
 10
30.75
 20
1.555635
 30
0.0
 11
31.35
 21
1.555635
 31
0.0
  0
LINE
  5
B6
100
AcDbEntity
  8
VIEW
100
AcDbLine
 10
30.75
 20
2.12132
 30
0.0
 11
31.35
 21
2.12132
 31
0.0
  0
ELLIPSE
  5
B7
100
AcDbEntity
  8
VIEW
100
AcDbEllipse
 10
31.240122
 20
0.0
 30
0.0
 11
0.0
 21
0.4999999999999858
 31
0.0
210
0.0
220
0.0
230
1.0
 40
0.707107
 41
0.0
 42
6.283185307179586
  0
LINE
  5
B8
100
AcDbEntity
  8
VIEW
100
AcDbLine
 10
29.48774
 20
0.5
 30
0.0
 11
31.240122
 21
0.5
 31
0.0
  0
LINE
  5
B9
100
AcDbEntity
  8
VIEW
100
AcDbLine
 10
29.48774
 20
-0.5
 30
0.0
 11
31.240122
 21
-0.5
 31
0.0
  0
LINE
  5
BA
100
AcDbEntity
  8
VIEW
100
AcDbLine
 10
36.87591
 20
-2.309401
 30
0.0
 11
36.87591
 21
2.309401
 31
0.0
  0
LINE
  5
BB
100
AcDbEntity
  8
VIEW
100
AcDbLine
 10
35.87591
 20
-2.309401
 30
0.0
 11
35.87591
 21
2.309401
 31
0.0
  0
LINE
  5
BC
100
AcDbEntity
  8
VIEW
100
AcDbLine
 10
35.87591
 20
-2.309401
 30
0.0
 11
36.87591
 21
-2.309401
 31
0.0
  0
LINE
  5
BD
100
AcDbEntity
  8
VIEW
100
AcDbLine
 10
41.071052
 20
1.732051
 30
0.0
 11
45.266194
 21
-0.866025
 31
0.0
  0
LINE
  5
BE
100
AcDbEntity
  8
VIEW
100
AcDbLine
 10
45.266194
 20
1.732051
 30
0.0
 11
41.071052
 21
-0.866025
 31
0.0
  0
LINE
  5
BF
100
AcDbEntity
  8
VIEW
100
AcDbLine
 10
41.071052
 20
-0.866025
 30
0.0
 11
45.266194
 21
1.732051
 31
0.0
  0
LINE
  5
C0
100
AcDbEntity
  8
VIEW
100
AcDbLine
 10
41.071052
 20
1.732051
 30
0.0
 11
41.071052
 21
-0.866025
 31
0.0
  0
LINE
  5
C1
100
AcDbEntity
  8
VIEW
100
AcDbLine
 10
36.87591
 20
1.732051
 30
0.0
 11
36.87591
 21
-0.866025
 31
0.0
  0
LINE
  5
C2
100
AcDbEntity
  8
VIEW
100
AcDbLine
 10
35.87591
 20
2.309401
 30
0.0
 11
36.87591
 21
2.309401
 31
0.0
  0
LINE
  5
C3
100
AcDbEntity
  8
VIEW
100
AcDbLine
 10
35.87591
 20
1.154701
 30
0.0
 11
36.87591
 21
1.154701
 31
0.0
  0
LINE
  5
C4
100
AcDbEntity
  8
VIEW
100
AcDbLine
 10
35.87591
 20
-1.154701
 30
0.0
 11
36.87591
 21
-1.154701
 31
0.0
  0
LINE
  5
C5
100
AcDbEntity
  8
VIEW
100
AcDbLine
 10
36.87591
 20
-0.866025
 30
0.0
 11
41.071052
 21
1.732051
 31
0.0
  0
LINE
  5
C6
100
AcDbEntity
  8
VIEW
100
AcDbLine
 10
41.071052
 20
-0.866025
 30
0.0
 11
36.87591
 21
1.732051
 31
0.0
  0
LINE
  5
C7
100
AcDbEntity
  8
VIEW
100
AcDbLine
 10
45.266194
 20
1.732051
 30
0.0
 11
45.266194
 21
-0.866025
 31
0.0
  0
INSERT
  5
C8
100
AcDbEntity
  8
VIEW
100
AcDbBlockReference
  2
LANDER-FRONT-DOCK
 10
65.802098
 20
-13.061748
 30
0.0
 50
180.0
  0
LINE
  5
C9
100
AcDbEntity
  8
VIEW
100
AcDbLine
 10
63.503383
 20
1.808847
 30
0.0
 11
61.694535
 21
0.0
 31
0.0
  0
LINE
  5
CA
100
AcDbEntity
  8
VIEW
100
AcDbLine
 10
63.535193
 20
1.732051
 30
0.0
 11
61.803142
 21
0.0
 31
0.0
  0
LINE
  5
CB
100
AcDbEntity
  8
VIEW
100
AcDbLine
 10
62.046762
 20
-0.866025
 30
0.0
 11
66.241904
 21
1.732051
 31
0.0
  0
LINE
  5
CC
100
AcDbEntity
  8
VIEW
100
AcDbLine
 10
66.241904
 20
-0.866025
 30
0.0
 11
62.046762
 21
1.732051
 31
0.0
  0
LINE
  5
CD
100
AcDbEntity
  8
VIEW
100
AcDbLine
 10
62.046762
 20
-0.866025
 30
0.0
 11
66.241904
 21
1.732051
 31
0.0
  0
INSERT
  5
CE
100
AcDbEntity
  8
VIEW
100
AcDbBlockReference
  2
CREW
 10
58.078721
 20
-2.744118
 30
0.0
 50
200.533545
  0
LINE
  5
E2
100
AcDbEntity
  8
VIEW
100
AcDbLine
 10
54.55264
 20
-0.267949
 30
0.0
 11
56.55264
 21
-2.0
 31
0.0
  0
LINE
  5
E3
100
AcDbEntity
  8
VIEW
100
AcDbLine
 10
56.55264
 20
-0.267949
 30
0.0
 11
54.55264
 21
-2.0
 31
0.0
  0
LINE
  5
E4
100
AcDbEntity
  8
VIEW
100
AcDbLine
 10
54.55264
 20
-1.991025
 30
0.0
 11
56.55264
 21
-1.991025
 31
0.0
  0
LINE
  5
E5
100
AcDbEntity
  8
VIEW
100
AcDbLine
 10
56.55264
 20
-2.0
 30
0.0
 11
54.55264
 21
-2.0
 31
0.0
  0
LINE
  5
E6
100
AcDbEntity
  8
VIEW
100
AcDbLine
 10
53.656478
 20
-0.866025
 30
0.0
 11
57.85162
 21
1.732051
 31
0.0
  0
LINE
  5
E7
100
AcDbEntity
  8
VIEW
100
AcDbLine
 10
57.85162
 20
-0.866025
 30
0.0
 11
53.656478
 21
1.732051
 31
0.0
  0
LINE
  5
E8
100
AcDbEntity
  8
VIEW
100
AcDbLine
 10
53.656478
 20
-0.866025
 30
0.0
 11
57.85162
 21
1.732051
 31
0.0
  0
LINE
  5
E9
100
AcDbEntity
  8
VIEW
100
AcDbLine
 10
56.55264
 20
2.0
 30
0.0
 11
54.55264
 21
2.0
 31
0.0
  0
LINE
  5
EA
100
AcDbEntity
  8
VIEW
100
AcDbLine
 10
56.55264
 20
1.566987
 30
0.0
 11
54.55264
 21
1.566987
 31
0.0
  0
LINE
  5
EB
100
AcDbEntity
  8
VIEW
100
AcDbLine
 10
56.55264
 20
0.700962
 30
0.0
 11
54.55264
 21
0.700962
 31
0.0
  0
LINE
  5
EC
100
AcDbEntity
  8
VIEW
100
AcDbLine
 10
56.55264
 20
1.133975
 30
0.0
 11
54.55264
 21
1.133975
 31
0.0
  0
LINE
  5
ED
100
AcDbEntity
  8
VIEW
100
AcDbLine
 10
54.55264
 20
0.267949
 30
0.0
 11
56.55264
 21
2.0
 31
0.0
  0
LINE
  5
EE
100
AcDbEntity
  8
VIEW
100
AcDbLine
 10
56.55264
 20
0.267949
 30
0.0
 11
54.55264
 21
2.0
 31
0.0
  0
LINE
  5
EF
100
AcDbEntity
  8
VIEW
100
AcDbLine
 10
56.55264
 20
0.267949
 30
0.0
 11
54.55264
 21
0.267949
 31
0.0
  0
LINE
  5
F0
100
AcDbEntity
  8
VIEW
100
AcDbLine
 10
56.55264
 20
0.133975
 30
0.0
 11
54.55264
 21
0.133975
 31
0.0
  0
LINE
  5
F1
100
AcDbEntity
  8
VIEW
100
AcDbLine
 10
56.55264
 20
0.133975
 30
0.0
 11
54.55264
 21
0.267949
 31
0.0
  0
LINE
  5
F2
100
AcDbEntity
  8
VIEW
100
AcDbLine
 10
54.55264
 20
0.133975
 30
0.0
 11
56.55264
 21
0.267949
 31
0.0
  0
LINE
  5
F3
100
AcDbEntity
  8
VIEW
100
AcDbLine
 10
54.55264
 20
-0.133975
 30
0.0
 11
56.55264
 21
-0.267949
 31
0.0
  0
LINE
  5
F4
100
AcDbEntity
  8
VIEW
100
AcDbLine
 10
56.55264
 20
-0.133975
 30
0.0
 11
54.55264
 21
-0.267949
 31
0.0
  0
LINE
  5
F5
100
AcDbEntity
  8
VIEW
100
AcDbLine
 10
56.55264
 20
-0.133975
 30
0.0
 11
54.55264
 21
-0.133975
 31
0.0
  0
LINE
  5
F6
100
AcDbEntity
  8
VIEW
100
AcDbLine
 10
56.55264
 20
-0.267949
 30
0.0
 11
54.55264
 21
-0.267949
 31
0.0
  0
LINE
  5
F7
100
AcDbEntity
  8
VIEW
100
AcDbLine
 10
56.55264
 20
-1.566987
 30
0.0
 11
54.55264
 21
-1.566987
 31
0.0
  0
LINE
  5
F8
100
AcDbEntity
  8
VIEW
100
AcDbLine
 10
56.55264
 20
-0.700962
 30
0.0
 11
54.55264
 21
-0.700962
 31
0.0
  0
LINE
  5
F9
100
AcDbEntity
  8
VIEW
100
AcDbLine
 10
56.55264
 20
-1.133975
 30
0.0
 11
54.55264
 21
-1.133975
 31
0.0
  0
LINE
  5
FA
100
AcDbEntity
  8
VIEW
100
AcDbLine
 10
54.55264
 20
0.0
 30
0.0
 11
56.55264
 21
0.0
 31
0.0
  0
LINE
  5
FB
100
AcDbEntity
  8
VIEW
100
AcDbLine
 10
54.55264
 20
2.0
 30
0.0
 11
56.55264
 21
2.0
 31
0.0
  0
LINE
  5
FC
100
AcDbEntity
  8
VIEW
100
AcDbLine
 10
53.656478
 20
1.732051
 30
0.0
 11
53.656478
 21
-0.866025
 31
0.0
  0
LINE
  5
FD
100
AcDbEntity
  8
VIEW
100
AcDbLine
 10
54.55264
 20
2.0
 30
0.0
 11
54.55264
 21
0.267949
 31
0.0
  0
LINE
  5
FE
100
AcDbEntity
  8
VIEW
100
AcDbLine
 10
54.55264
 20
0.133975
 30
0.0
 11
54.55264
 21
0.267949
 31
0.0
  0
LINE
  5
FF
100
AcDbEntity
  8
VIEW
100
AcDbLine
 10
55.05264
 20
2.0
 30
0.0
 11
55.05264
 21
0.267949
 31
0.0
  0
LINE
  5
100
100
AcDbEntity
  8
VIEW
100
AcDbLine
 10
54.55264
 20
-0.133975
 30
0.0
 11
54.55264
 21
-0.267949
 31
0.0
  0
LINE
  5
101
100
AcDbEntity
  8
VIEW
100
AcDbLine
 10
55.05264
 20
-2.0
 30
0.0
 11
55.05264
 21
-0.267949
 31
0.0
  0
LINE
  5
102
100
AcDbEntity
  8
VIEW
100
AcDbLine
 10
54.55264
 20
-2.0
 30
0.0
 11
54.55264
 21
-0.267949
 31
0.0
  0
LINE
  5
103
100
AcDbEntity
  8
VIEW
100
AcDbLine
 10
54.55264
 20
2.0
 30
0.0
 11
54.55264
 21
-2.0
 31
0.0
  0
LINE
  5
104
100
AcDbEntity
  8
VIEW
100
AcDbLine
 10
49.461336
 20
1.732051
 30
0.0
 11
49.461336
 21
-0.866025
 31
0.0
  0
LINE
  5
105
100
AcDbEntity
  8
VIEW
100
AcDbLine
 10
49.461336
 20
1.732051
 30
0.0
 11
53.656478
 21
-0.866025
 31
0.0
  0
LINE
  5
106
100
AcDbEntity
  8
VIEW
100
AcDbLine
 10
53.656478
 20
1.732051
 30
0.0
 11
49.461336
 21
-0.866025
 31
0.0
  0
LINE
  5
107
100
AcDbEntity
  8
VIEW
100
AcDbLine
 10
49.461336
 20
-0.866025
 30
0.0
 11
53.656478
 21
1.732051
 31
0.0
  0
LINE
  5
108
100
AcDbEntity
  8
VIEW
100
AcDbLine
 10
62.046762
 20
1.732051
 30
0.0
 11
62.046762
 21
-0.866025
 31
0.0
  0
LINE
  5
109
100
AcDbEntity
  8
VIEW
100
AcDbLine
 10
61.803142
 20
0.0
 30
0.0
 11
61.694535
 21
0.0
 31
0.0
  0
LINE
  5
10A
100
AcDbEntity
  8
VIEW
100
AcDbLine
 10
57.85162
 20
1.732051
 30
0.0
 11
57.85162
 21
-0.866025
 31
0.0
  0
LINE
  5
10B
100
AcDbEntity
  8
VIEW
100
AcDbLine
 10
56.05264
 20
2.0
 30
0.0
 11
56.05264
 21
0.267949
 31
0.0
  0
LINE
  5
10C
100
AcDbEntity
  8
VIEW
100
AcDbLine
 10
56.55264
 20
2.0
 30
0.0
 11
56.55264
 21
0.267949
 31
0.0
  0
LINE
  5
10D
100
AcDbEntity
  8
VIEW
100
AcDbLine
 10
56.55264
 20
0.133975
 30
0.0
 11
56.55264
 21
0.267949
 31
0.0
  0
LINE
  5
10E
100
AcDbEntity
  8
VIEW
100
AcDbLine
 10
56.55264
 20
-0.133975
 30
0.0
 11
56.55264
 21
-0.267949
 31
0.0
  0
LINE
  5
10F
100
AcDbEntity
  8
VIEW
100
AcDbLine
 10
56.05264
 20
-2.0
 30
0.0
 11
56.05264
 21
-0.267949
 31
0.0
  0
LINE
  5
110
100
AcDbEntity
  8
VIEW
100
AcDbLine
 10
56.55264
 20
-2.0
 30
0.0
 11
56.55264
 21
-0.267949
 31
0.0
  0
LINE
  5
111
100
AcDbEntity
  8
VIEW
100
AcDbLine
 10
56.55264
 20
2.0
 30
0.0
 11
56.55264
 21
-2.0
 31
0.0
  0
LINE
  5
112
100
AcDbEntity
  8
VIEW
100
AcDbLine
 10
55.55264
 20
2.0
 30
0.0
 11
55.55264
 21
0.267949
 31
0.0
  0
LINE
  5
113
100
AcDbEntity
  8
VIEW
100
AcDbLine
 10
55.55264
 20
-2.0
 30
0.0
 11
55.55264
 21
-0.267949
 31
0.0
  0
LINE
  5
114
100
AcDbEntity
  8
VIEW
100
AcDbLine
 10
57.85162
 20
1.732051
 30
0.0
 11
62.046762
 21
-0.866025
 31
0.0
  0
LINE
  5
115
100
AcDbEntity
  8
VIEW
100
AcDbLine
 10
62.046762
 20
1.732051
 30
0.0
 11
57.85162
 21
-0.866025
 31
0.0
  0
LINE
  5
116
100
AcDbEntity
  8
VIEW
100
AcDbLine
 10
57.85162
 20
-0.866025
 30
0.0
 11
62.046762
 21
1.732051
 31
0.0
  0
LINE
  5
117
100
AcDbEntity
  8
VIEW
100
AcDbLine
 10
67.704667
 20
-2.006462
 30
0.0
 11
67.472232
 21
-2.408847
 31
0.0
  0
LINE
  5
118
100
AcDbEntity
  8
VIEW
100
AcDbLine
 10
67.899529
 20
-2.006462
 30
0.0
 11
68.131965
 21
-2.408847
 31
0.0
  0
LINE
  5
119
100
AcDbEntity
  8
VIEW
100
AcDbLine
 10
63.899529
 20
-2.006462
 30
0.0
 11
64.131965
 21
-2.408847
 31
0.0
  0
LINE
  5
11A
100
AcDbEntity
  8
VIEW
100
AcDbLine
 10
63.704667
 20
-2.006462
 30
0.0
 11
63.472232
 21
-2.408847
 31
0.0
  0
LINE
  5
11B
100
AcDbEntity
  8
VIEW
100
AcDbLine
 10
68.100814
 20
1.808847
 30
0.0
 11
69.909661
 21
0.0
 31
0.0
  0
LINE
  5
11C
100
AcDbEntity
  8
VIEW
100
AcDbLine
 10
68.069003
 20
1.732051
 30
0.0
 11
69.801054
 21
0.0
 31
0.0
  0
LINE
  5
11D
100
AcDbEntity
  8
VIEW
100
AcDbLine
 10
68.069003
 20
1.732051
 30
0.0
 11
69.801054
 21
0.0
 31
0.0
  0
LINE
  5
11E
100
AcDbEntity
  8
VIEW
100
AcDbLine
 10
68.100814
 20
1.808847
 30
0.0
 11
69.909661
 21
0.0
 31
0.0
  0
LINE
  5
11F
100
AcDbEntity
  8
VIEW
100
AcDbLine
 10
66.241904
 20
1.732051
 30
0.0
 11
70.437046
 21
-0.866025
 31
0.0
  0
LINE
  5
120
100
AcDbEntity
  8
VIEW
100
AcDbLine
 10
70.437046
 20
1.732051
 30
0.0
 11
66.241904
 21
-0.866025
 31
0.0
  0
LINE
  5
121
100
AcDbEntity
  8
VIEW
100
AcDbLine
 10
66.241904
 20
-0.866025
 30
0.0
 11
70.437046
 21
1.732051
 31
0.0
  0
LWPOLYLINE
  5
122
100
AcDbEntity
  8
VIEW
100
AcDbPolyline
 90
        4
 70
     1
 43
0.0
 10
68.136804
 20
1.0
 42
-1.0
 10
68.136804
 20
-1.0
 10
63.467392
 20
-1.0
 42
-1.0
 10
63.467392
 20
1.0
  0
LWPOLYLINE
  5
123
100
AcDbEntity
  8
VIEW
100
AcDbPolyline
 90
        4
 70
     1
 43
0.0
 10
68.136804
 20
1.0
 42
-1.0
 10
68.136804
 20
-1.0
 10
63.467392
 20
-1.0
 42
-1.0
 10
63.467392
 20
1.0
  0
LINE
  5
124
100
AcDbEntity
  8
VIEW
100
AcDbLine
 10
68.100814
 20
-1.808847
 30
0.0
 11
69.043636
 21
-0.866025
 31
0.0
  0
LINE
  5
125
100
AcDbEntity
  8
VIEW
100
AcDbLine
 10
68.069003
 20
-1.732051
 30
0.0
 11
68.935029
 21
-0.866025
 31
0.0
  0
LINE
  5
126
100
AcDbEntity
  8
VIEW
100
AcDbLine
 10
68.100814
 20
-1.808847
 30
0.0
 11
69.043636
 21
-0.866025
 31
0.0
  0
LINE
  5
127
100
AcDbEntity
  8
VIEW
100
AcDbLine
 10
68.069003
 20
-1.732051
 30
0.0
 11
68.935029
 21
-0.866025
 31
0.0
  0
LINE
  5
128
100
AcDbEntity
  8
VIEW
100
AcDbLine
 10
66.241904
 20
1.732051
 30
0.0
 11
66.241904
 21
-0.866025
 31
0.0
  0
LINE
  5
129
100
AcDbEntity
  8
VIEW
100
AcDbLine
 10
65.802098
 20
0.107563
 30
0.0
 11
65.802098
 21
0.053259
 31
0.0
  0
LINE
  5
12A
100
AcDbEntity
  8
VIEW
100
AcDbLine
 10
67.899529
 20
2.006462
 30
0.0
 11
68.197713
 21
2.522669
 31
0.0
  0
LINE
  5
12B
100
AcDbEntity
  8
VIEW
100
AcDbLine
 10
67.704667
 20
2.006462
 30
0.0
 11
67.406483
 21
2.522669
 31
0.0
  0
LINE
  5
12C
100
AcDbEntity
  8
VIEW
100
AcDbLine
 10
68.100814
 20
2.006462
 30
0.0
 11
67.503383
 21
2.006462
 31
0.0
  0
LINE
  5
12D
100
AcDbEntity
  8
VIEW
100
AcDbLine
 10
68.100814
 20
1.808847
 30
0.0
 11
67.503383
 21
1.808847
 31
0.0
  0
LINE
  5
12E
100
AcDbEntity
  8
VIEW
100
AcDbLine
 10
68.100814
 20
2.006462
 30
0.0
 11
68.100814
 21
1.808847
 31
0.0
  0
LINE
  5
12F
100
AcDbEntity
  8
VIEW
100
AcDbLine
 10
67.503383
 20
2.006462
 30
0.0
 11
67.503383
 21
1.808847
 31
0.0
  0
LINE
  5
130
100
AcDbEntity
  8
VIEW
100
AcDbLine
 10
68.069003
 20
1.732051
 30
0.0
 11
68.100814
 21
1.808847
 31
0.0
  0
LINE
  5
131
100
AcDbEntity
  8
VIEW
100
AcDbLine
 10
67.535193
 20
1.732051
 30
0.0
 11
66.803142
 21
1.0
 31
0.0
  0
LINE
  5
132
100
AcDbEntity
  8
VIEW
100
AcDbLine
 10
67.503383
 20
1.808847
 30
0.0
 11
66.694535
 21
1.0
 31
0.0
  0
LINE
  5
133
100
AcDbEntity
  8
VIEW
100
AcDbLine
 10
67.535193
 20
1.732051
 30
0.0
 11
65.802098
 21
-0.001044
 31
0.0
  0
LINE
  5
134
100
AcDbEntity
  8
VIEW
100
AcDbLine
 10
67.503383
 20
1.808847
 30
0.0
 11
65.802098
 21
0.107563
 31
0.0
  0
LINE
  5
135
100
AcDbEntity
  8
VIEW
100
AcDbLine
 10
67.503383
 20
1.808847
 30
0.0
 11
67.535193
 21
1.732051
 31
0.0
  0
LINE
  5
136
100
AcDbEntity
  8
VIEW
100
AcDbLine
 10
68.069003
 20
1.732051
 30
0.0
 11
67.535193
 21
1.732051
 31
0.0
  0
LINE
  5
137
100
AcDbEntity
  8
VIEW
100
AcDbLine
 10
67.802098
 20
1.732051
 30
0.0
 11
67.535193
 21
1.732051
 31
0.0
  0
LINE
  5
138
100
AcDbEntity
  8
VIEW
100
AcDbLine
 10
68.197713
 20
2.522669
 30
0.0
 11
67.406483
 21
2.522669
 31
0.0
  0
LINE
  5
139
100
AcDbEntity
  8
VIEW
100
AcDbLine
 10
68.100814
 20
-1.808847
 30
0.0
 11
67.503383
 21
-1.808847
 31
0.0
  0
LINE
  5
13A
100
AcDbEntity
  8
VIEW
100
AcDbLine
 10
68.100814
 20
-1.808847
 30
0.0
 11
68.069003
 21
-1.732051
 31
0.0
  0
LINE
  5
13B
100
AcDbEntity
  8
VIEW
100
AcDbLine
 10
68.069003
 20
-1.732051
 30
0.0
 11
67.535193
 21
-1.732051
 31
0.0
  0
LINE
  5
13C
100
AcDbEntity
  8
VIEW
100
AcDbLine
 10
67.535193
 20
-1.732051
 30
0.0
 11
67.503383
 21
-1.808847
 31
0.0
  0
LINE
  5
13D
100
AcDbEntity
  8
VIEW
100
AcDbLine
 10
67.503383
 20
-1.808847
 30
0.0
 11
66.560561
 21
-0.866025
 31
0.0
  0
LINE
  5
13E
100
AcDbEntity
  8
VIEW
100
AcDbLine
 10
67.535193
 20
-1.732051
 30
0.0
 11
66.669168
 21
-0.866025
 31
0.0
  0
LINE
  5
13F
100
AcDbEntity
  8
VIEW
100
AcDbLine
 10
68.100814
 20
-2.006462
 30
0.0
 11
67.503383
 21
-2.006462
 31
0.0
  0
LINE
  5
140
100
AcDbEntity
  8
VIEW
100
AcDbLine
 10
67.503383
 20
-2.006462
 30
0.0
 11
67.503383
 21
-1.808847
 31
0.0
  0
LINE
  5
141
100
AcDbEntity
  8
VIEW
100
AcDbLine
 10
68.100814
 20
-2.006462
 30
0.0
 11
68.100814
 21
-1.808847
 31
0.0
  0
LINE
  5
142
100
AcDbEntity
  8
VIEW
100
AcDbLine
 10
63.704667
 20
2.006462
 30
0.0
 11
63.406483
 21
2.522669
 31
0.0
  0
LINE
  5
143
100
AcDbEntity
  8
VIEW
100
AcDbLine
 10
63.899529
 20
2.006462
 30
0.0
 11
64.197713
 21
2.522669
 31
0.0
  0
LINE
  5
144
100
AcDbEntity
  8
VIEW
100
AcDbLine
 10
63.503383
 20
1.808847
 30
0.0
 11
64.100814
 21
1.808847
 31
0.0
  0
LINE
  5
145
100
AcDbEntity
  8
VIEW
100
AcDbLine
 10
63.503383
 20
2.006462
 30
0.0
 11
64.100814
 21
2.006462
 31
0.0
  0
LINE
  5
146
100
AcDbEntity
  8
VIEW
100
AcDbLine
 10
64.100814
 20
2.006462
 30
0.0
 11
64.100814
 21
1.808847
 31
0.0
  0
LINE
  5
147
100
AcDbEntity
  8
VIEW
100
AcDbLine
 10
63.503383
 20
2.006462
 30
0.0
 11
63.503383
 21
1.808847
 31
0.0
  0
LINE
  5
148
100
AcDbEntity
  8
VIEW
100
AcDbLine
 10
63.535193
 20
1.732051
 30
0.0
 11
63.503383
 21
1.808847
 31
0.0
  0
LINE
  5
149
100
AcDbEntity
  8
VIEW
100
AcDbLine
 10
64.100814
 20
1.808847
 30
0.0
 11
64.069003
 21
1.732051
 31
0.0
  0
LINE
  5
14A
100
AcDbEntity
  8
VIEW
100
AcDbLine
 10
64.069003
 20
1.732051
 30
0.0
 11
63.802098
 21
1.732051
 31
0.0
  0
LINE
  5
14B
100
AcDbEntity
  8
VIEW
100
AcDbLine
 10
64.069003
 20
1.732051
 30
0.0
 11
63.535193
 21
1.732051
 31
0.0
  0
LINE
  5
14C
100
AcDbEntity
  8
VIEW
100
AcDbLine
 10
63.406483
 20
2.522669
 30
0.0
 11
64.197713
 21
2.522669
 31
0.0
  0
LINE
  5
14D
100
AcDbEntity
  8
VIEW
100
AcDbLine
 10
63.503383
 20
-1.808847
 30
0.0
 11
64.100814
 21
-1.808847
 31
0.0
  0
LINE
  5
14E
100
AcDbEntity
  8
VIEW
100
AcDbLine
 10
63.535193
 20
-1.732051
 30
0.0
 11
63.503383
 21
-1.808847
 31
0.0
  0
LINE
  5
14F
100
AcDbEntity
  8
VIEW
100
AcDbLine
 10
64.069003
 20
-1.732051
 30
0.0
 11
63.535193
 21
-1.732051
 31
0.0
  0
LINE
  5
150
100
AcDbEntity
  8
VIEW
100
AcDbLine
 10
64.069003
 20
-1.732051
 30
0.0
 11
64.100814
 21
-1.808847
 31
0.0
  0
LINE
  5
151
100
AcDbEntity
  8
VIEW
100
AcDbLine
 10
63.503383
 20
-1.808847
 30
0.0
 11
62.560561
 21
-0.866025
 31
0.0
  0
LINE
  5
152
100
AcDbEntity
  8
VIEW
100
AcDbLine
 10
63.535193
 20
-1.732051
 30
0.0
 11
62.669168
 21
-0.866025
 31
0.0
  0
LINE
  5
153
100
AcDbEntity
  8
VIEW
100
AcDbLine
 10
63.503383
 20
-2.006462
 30
0.0
 11
64.100814
 21
-2.006462
 31
0.0
  0
LINE
  5
154
100
AcDbEntity
  8
VIEW
100
AcDbLine
 10
63.503383
 20
-2.006462
 30
0.0
 11
63.503383
 21
-1.808847
 31
0.0
  0
LINE
  5
155
100
AcDbEntity
  8
VIEW
100
AcDbLine
 10
64.100814
 20
-2.006462
 30
0.0
 11
64.100814
 21
-1.808847
 31
0.0
  0
LINE
  5
156
100
AcDbEntity
  8
VIEW
100
AcDbLine
 10
64.069003
 20
1.732051
 30
0.0
 11
64.801054
 21
1.0
 31
0.0
  0
LINE
  5
157
100
AcDbEntity
  8
VIEW
100
AcDbLine
 10
64.069003
 20
1.732051
 30
0.0
 11
65.802098
 21
-0.001044
 31
0.0
  0
LINE
  5
158
100
AcDbEntity
  8
VIEW
100
AcDbLine
 10
64.100814
 20
1.808847
 30
0.0
 11
64.909661
 21
1.0
 31
0.0
  0
LINE
  5
159
100
AcDbEntity
  8
VIEW
100
AcDbLine
 10
64.100814
 20
1.808847
 30
0.0
 11
65.802098
 21
0.107563
 31
0.0
  0
LINE
  5
15A
100
AcDbEntity
  8
VIEW
100
AcDbLine
 10
68.100814
 20
1.808847
 30
0.0
 11
63.503383
 21
1.808847
 31
0.0
  0
LINE
  5
15B
100
AcDbEntity
  8
VIEW
100
AcDbLine
 10
67.426586
 20
1.732051
 30
0.0
 11
64.17761
 21
1.732051
 31
0.0
  0
LINE
  5
15C
100
AcDbEntity
  8
VIEW
100
AcDbLine
 10
67.426586
 20
1.732051
 30
0.0
 11
64.17761
 21
1.732051
 31
0.0
  0
LINE
  5
15D
100
AcDbEntity
  8
VIEW
100
AcDbLine
 10
68.100814
 20
-1.808847
 30
0.0
 11
63.503383
 21
-1.808847
 31
0.0
  0
LINE
  5
15E
100
AcDbEntity
  8
VIEW
100
AcDbLine
 10
68.100814
 20
-1.808847
 30
0.0
 11
63.503383
 21
-1.808847
 31
0.0
  0
LINE
  5
15F
100
AcDbEntity
  8
VIEW
100
AcDbLine
 10
67.426586
 20
-1.732051
 30
0.0
 11
64.17761
 21
-1.732051
 31
0.0
  0
LINE
  5
160
100
AcDbEntity
  8
VIEW
100
AcDbLine
 10
64.100814
 20
-1.808847
 30
0.0
 11
65.043636
 21
-0.866025
 31
0.0
  0
LINE
  5
161
100
AcDbEntity
  8
VIEW
100
AcDbLine
 10
64.069003
 20
-1.732051
 30
0.0
 11
64.935029
 21
-0.866025
 31
0.0
  0
LINE
  5
162
100
AcDbEntity
  8
VIEW
100
AcDbLine
 10
75.557861
 20
-0.292751
 30
0.0
 11
74.632189
 21
-0.866025
 31
0.0
  0
LINE
  5
163
100
AcDbEntity
  8
VIEW
100
AcDbLine
 10
74.632189
 20
-0.866025
 30
0.0
 11
75.557861
 21
-0.292751
 31
0.0
  0
LINE
  5
164
100
AcDbEntity
  8
VIEW
100
AcDbLine
 10
74.632189
 20
1.732051
 30
0.0
 11
74.632189
 21
-0.866025
 31
0.0
  0
LINE
  5
165
100
AcDbEntity
  8
VIEW
100
AcDbLine
 10
70.437046
 20
1.732051
 30
0.0
 11
70.437046
 21
-0.866025
 31
0.0
  0
LINE
  5
166
100
AcDbEntity
  8
VIEW
100
AcDbLine
 10
69.801054
 20
0.0
 30
0.0
 11
69.909661
 21
0.0
 31
0.0
  0
LINE
  5
167
100
AcDbEntity
  8
VIEW
100
AcDbLine
 10
69.801054
 20
0.0
 30
0.0
 11
69.909661
 21
0.0
 31
0.0
  0
LINE
  5
168
100
AcDbEntity
  8
VIEW
100
AcDbLine
 10
69.801054
 20
0.0
 30
0.0
 11
69.909661
 21
0.0
 31
0.0
  0
LINE
  5
169
100
AcDbEntity
  8
VIEW
100
AcDbLine
 10
69.801054
 20
0.0
 30
0.0
 11
69.909661
 21
0.0
 31
0.0
  0
LINE
  5
16A
100
AcDbEntity
  8
VIEW
100
AcDbLine
 10
70.437046
 20
-0.866025
 30
0.0
 11
74.632189
 21
1.732051
 31
0.0
  0
LINE
  5
16B
100
AcDbEntity
  8
VIEW
100
AcDbLine
 10
74.632189
 20
-0.866025
 30
0.0
 11
70.437046
 21
1.732051
 31
0.0
  0
LINE
  5
16C
100
AcDbEntity
  8
VIEW
100
AcDbLine
 10
70.437046
 20
-0.866025
 30
0.0
 11
74.632189
 21
1.732051
 31
0.0
  0
LINE
  5
16D
100
AcDbEntity
  8
VIEW
100
AcDbLine
 10
125.0
 20
-7.892297
 30
0.0
 11
102.621804
 21
-7.892297
 31
0.0
  0
LINE
  5
16E
100
AcDbEntity
  8
VIEW
100
AcDbLine
 10
86.355924
 20
-18.9987
 30
0.0
 11
85.951556
 21
-18.704614
 31
0.0
  0
ARC
  5
16F
100
AcDbEntity
  8
VIEW
100
AcDbCircle
 10
80.051556
 20
-7.366025
 30
0.0
 40
6.0
100
AcDbArc
 50
10.475314
 51
67.036441
  0
LINE
  5
170
100
AcDbEntity
  8
VIEW
100
AcDbLine
 10
85.951556
 20
1.732051
 30
0.0
 11
85.72551
 21
1.732051
 31
0.0
  0
LINE
  5
171
100
AcDbEntity
  8
VIEW
100
AcDbLine
 10
85.102215
 20
0.444054
 30
0.0
 11
85.951556
 21
-0.081948
 31
0.0
  0
LINE
  5
172
100
AcDbEntity
  8
VIEW
100
AcDbLine
 10
85.951556
 20
0.947973
 30
0.0
 11
85.078407
 21
0.407227
 31
0.0
  0
LINE
  5
173
100
AcDbEntity
  8
VIEW
100
AcDbLine
 10
85.951556
 20
-0.866025
 30
0.0
 11
83.963877
 21
-0.866025
 31
0.0
  0
LINE
  5
174
100
AcDbEntity
  8
VIEW
100
AcDbLine
 10
93.593524
 20
-4.904284
 30
0.0
 11
102.621804
 21
-7.892297
 31
0.0
  0
LINE
  5
175
100
AcDbEntity
  8
VIEW
100
AcDbLine
 10
128.098951
 20
-0.5
 30
0.0
 11
128.098951
 21
-7.0
 31
0.0
  0
LINE
  5
176
100
AcDbEntity
  8
VIEW
100
AcDbLine
 10
128.788291
 20
-3.75
 30
0.0
 11
128.098951
 21
-4.035534
 31
0.0
  0
LINE
  5
177
100
AcDbEntity
  8
VIEW
100
AcDbLine
 10
125.0
 20
-7.0
 30
0.0
 11
128.098951
 21
-7.0
 31
0.0
  0
LINE
  5
178
100
AcDbEntity
  8
VIEW
100
AcDbLine
 10
128.098951
 20
-4.5
 30
0.0
 11
125.0
 21
-4.5
 31
0.0
  0
LINE
  5
179
100
AcDbEntity
  8
VIEW
100
AcDbLine
 10
128.098951
 20
-0.5
 30
0.0
 11
125.0
 21
-0.5
 31
0.0
  0
LINE
  5
17A
100
AcDbEntity
  8
VIEW
100
AcDbLine
 10
128.098951
 20
0.5
 30
0.0
 11
125.0
 21
0.5
 31
0.0
  0
LINE
  5
17B
100
AcDbEntity
  8
VIEW
100
AcDbLine
 10
125.0
 20
7.892297
 30
0.0
 11
102.621804
 21
7.892297
 31
0.0
  0
LINE
  5
17C
100
AcDbEntity
  8
VIEW
100
AcDbLine
 10
93.593524
 20
4.904284
 30
0.0
 11
102.621804
 21
7.892297
 31
0.0
  0
LINE
  5
17D
100
AcDbEntity
  8
VIEW
100
AcDbLine
 10
86.355924
 20
18.9987
 30
0.0
 11
85.951556
 21
18.704614
 31
0.0
  0
LINE
  5
17E
100
AcDbEntity
  8
VIEW
100
AcDbLine
 10
128.098951
 20
7.0
 30
0.0
 11
125.0
 21
7.0
 31
0.0
  0
LINE
  5
17F
100
AcDbEntity
  8
VIEW
100
AcDbLine
 10
128.098951
 20
4.5
 30
0.0
 11
125.0
 21
4.5
 31
0.0
  0
LINE
  5
180
100
AcDbEntity
  8
VIEW
100
AcDbLine
 10
125.0
 20
7.0
 30
0.0
 11
128.098951
 21
7.0
 31
0.0
  0
LINE
  5
181
100
AcDbEntity
  8
VIEW
100
AcDbLine
 10
130.598951
 20
0.5
 30
0.0
 11
130.598951
 21
4.5
 31
0.0
  0
LINE
  5
182
100
AcDbEntity
  8
VIEW
100
AcDbLine
 10
130.598951
 20
3.0
 30
0.0
 11
130.598951
 21
7.0
 31
0.0
  0
LINE
  5
183
100
AcDbEntity
  8
VIEW
100
AcDbLine
 10
130.598951
 20
-0.5
 30
0.0
 11
130.598951
 21
-4.5
 31
0.0
  0
LINE
  5
184
100
AcDbEntity
  8
VIEW
100
AcDbLine
 10
130.598951
 20
-3.0
 30
0.0
 11
130.598951
 21
-7.0
 31
0.0
  0
ENDSEC
  0
SECTION
  2
OBJECTS
  0
DICTIONARY
  5
1A
100
AcDbDictionary
  3
ACAD_GROUP
350
18
  3
ACAD_MLINESTYLE
350
19
  0
DICTIONARY
  5
18
102
{ACAD_REACTORS
330
1A
102
}
100
AcDbDictionary
  0
DICTIONARY
  5
19
102
{ACAD_REACTORS
330
1A
102
}
100
AcDbDictionary
  3
STANDARD
350
1B
  0
MLINESTYLE
  5
1B
102
{ACAD_REACTORS
330
19
102
}
100
AcDbMlineStyle
  2
STANDARD
 70
     0
  3

 62
     0
 51
90.0
 52
90.0
 71
     2
 49
0.5
 62
   256
  6
BYLAYER
 49
-0.5
 62
   256
  6
BYLAYER
  0
ENDSEC
  0
EOF
